NotoSansGurmukhi-Bold.ufo
<glyph name="quotedbl.guru" format="2">
  <advance width="582"/>
  <unicode hex="0022"/>
  <outline>
    <contour>
      <point x="108" y="471" type="line"/>
      <point x="242" y="471" type="line"/>
      <point x="262" y="729" type="line"/>
      <point x="88" y="729" type="line"/>
    </contour>
    <contour>
      <point x="340" y="471" type="line"/>
      <point x="474" y="471" type="line"/>
      <point x="494" y="729" type="line"/>
      <point x="320" y="729" type="line"/>
    </contour>
  </outline>
</glyph>
<glyph name="quotesingle.guru" format="2">
  <advance width="348"/>
  <unicode hex="0027"/>
  <outline>
    <contour>
      <point x="107" y="471" type="line"/>
      <point x="241" y="471" type="line"/>
      <point x="261" y="729" type="line"/>
      <point x="87" y="729" type="line"/>
    </contour>
  </outline>
</glyph>
<glyph name="plus.guru" format="2">
  <advance width="598"/>
  <unicode hex="002B"/>
  <outline>
    <contour>
      <point x="232" y="259" type="line"/>
      <point x="232" y="88" type="line"/>
      <point x="366" y="88" type="line"/>
      <point x="366" y="259" type="line"/>
      <point x="537" y="259" type="line"/>
      <point x="537" y="388" type="line"/>
      <point x="366" y="388" type="line"/>
      <point x="366" y="563" type="line"/>
      <point x="232" y="563" type="line"/>
      <point x="232" y="388" type="line"/>
      <point x="61" y="388" type="line"/>
      <point x="61" y="259" type="line"/>
    </contour>
  </outline>
</glyph>
<glyph name="comma.guru" format="2">
  <advance width="309"/>
  <unicode hex="002C"/>
  <outline>
    <contour>
      <point x="31" y="-139" type="curve"/>
      <point x="167" y="-139" type="line"/>
      <point x="200" y="-65"/>
      <point x="235" y="63"/>
      <point x="253" y="135" type="curve"/>
      <point x="246" y="146" type="line"/>
      <point x="79" y="146" type="line"/>
      <point x="70" y="66"/>
      <point x="50" y="-48"/>
    </contour>
  </outline>
</glyph>
<glyph name="hyphen.guru" format="2">
  <advance width="387"/>
  <unicode hex="002D"/>
  <outline>
    <contour>
      <point x="55" y="373" type="line"/>
      <point x="55" y="221" type="line"/>
      <point x="331" y="221" type="line"/>
      <point x="331" y="373" type="line"/>
    </contour>
  </outline>
</glyph>
<glyph name="slash.guru" format="2">
  <advance width="507"/>
  <unicode hex="002F"/>
  <outline>
    <contour>
      <point x="315" y="833" type="line"/>
      <point x="29" y="-166" type="line"/>
      <point x="191" y="-166" type="line"/>
      <point x="477" y="833" type="line"/>
    </contour>
  </outline>
</glyph>
<glyph name="four.guru" format="2">
  <advance width="578"/>
  <unicode hex="0034"/>
  <outline>
    <contour>
      <point x="297" y="138" type="line"/>
      <point x="297" y="0" type="line"/>
      <point x="485" y="0" type="line"/>
      <point x="485" y="138" type="line"/>
      <point x="563" y="138" type="line"/>
      <point x="563" y="281" type="line"/>
      <point x="485" y="281" type="line"/>
      <point x="485" y="714" type="line"/>
      <point x="309" y="714" type="line"/>
      <point x="17" y="279" type="line"/>
      <point x="17" y="138" type="line"/>
    </contour>
    <contour>
      <point x="297" y="278" type="line"/>
      <point x="179" y="278" type="line"/>
      <point x="258" y="401" type="line" smooth="yes"/>
      <point x="274" y="427"/>
      <point x="284" y="442"/>
      <point x="296" y="471" type="curve"/>
      <point x="301" y="471" type="line"/>
      <point x="300" y="469"/>
      <point x="297" y="394"/>
      <point x="297" y="366" type="curve" smooth="yes"/>
    </contour>
  </outline>
</glyph>
<glyph name="seven.guru" format="2">
  <advance width="578"/>
  <unicode hex="0037"/>
  <outline>
    <contour>
      <point x="342" y="554" type="line"/>
      <point x="101" y="0" type="line"/>
      <point x="299" y="0" type="line"/>
      <point x="545" y="599" type="line"/>
      <point x="545" y="713" type="line"/>
      <point x="38" y="713" type="line"/>
      <point x="38" y="554" type="line"/>
    </contour>
  </outline>
</glyph>
<glyph name="semicolon.guru" format="2">
  <advance width="348"/>
  <unicode hex="003B"/>
  <outline>
    <contour>
      <point x="270" y="146" type="line"/>
      <point x="103" y="146" type="line"/>
      <point x="94" y="66"/>
      <point x="74" y="-48"/>
      <point x="55" y="-139" type="curve"/>
      <point x="191" y="-139" type="line"/>
      <point x="224" y="-65"/>
      <point x="259" y="63"/>
      <point x="277" y="135" type="curve"/>
    </contour>
    <contour>
      <point x="175" y="373" type="curve" smooth="yes"/>
      <point x="229" y="373"/>
      <point x="276" y="400"/>
      <point x="276" y="467" type="curve" smooth="yes"/>
      <point x="276" y="535"/>
      <point x="229" y="560"/>
      <point x="175" y="560" type="curve" smooth="yes"/>
      <point x="118" y="560"/>
      <point x="72" y="535"/>
      <point x="72" y="467" type="curve"/>
      <point x="72" y="400"/>
      <point x="118" y="373"/>
    </contour>
  </outline>
</glyph>
<glyph name="less.guru" format="2">
  <advance width="598"/>
  <unicode hex="003C"/>
  <outline>
    <contour>
      <point x="61" y="284" type="line"/>
      <point x="537" y="65" type="line"/>
      <point x="537" y="210" type="line"/>
      <point x="257" y="332" type="line"/>
      <point x="537" y="471" type="line"/>
      <point x="537" y="616" type="line"/>
      <point x="61" y="369" type="line"/>
    </contour>
  </outline>
</glyph>
<glyph name="equal.guru" format="2">
  <advance width="598"/>
  <unicode hex="003D"/>
  <outline>
    <contour>
      <point x="61" y="484" type="line"/>
      <point x="61" y="354" type="line"/>
      <point x="537" y="354" type="line"/>
      <point x="537" y="484" type="line"/>
    </contour>
    <contour>
      <point x="61" y="293" type="line"/>
      <point x="61" y="162" type="line"/>
      <point x="537" y="162" type="line"/>
      <point x="537" y="293" type="line"/>
    </contour>
  </outline>
</glyph>
<glyph name="greater.guru" format="2">
  <advance width="598"/>
  <unicode hex="003E"/>
  <outline>
    <contour>
      <point x="61" y="210" type="line"/>
      <point x="61" y="65" type="line"/>
      <point x="537" y="284" type="line"/>
      <point x="537" y="369" type="line"/>
      <point x="61" y="616" type="line"/>
      <point x="61" y="471" type="line"/>
      <point x="341" y="332" type="line"/>
    </contour>
  </outline>
</glyph>
<glyph name="backslash.guru" format="2">
  <advance width="507"/>
  <unicode hex="005C"/>
  <outline>
    <contour>
      <point x="29" y="834" type="line"/>
      <point x="315" y="-166" type="line"/>
      <point x="477" y="-166" type="line"/>
      <point x="191" y="834" type="line"/>
    </contour>
  </outline>
</glyph>
<glyph name="bracketright.guru" format="2">
  <advance width="406"/>
  <unicode hex="005D"/>
  <outline>
    <contour>
      <point x="49" y="-42" type="line"/>
      <point x="49" y="-166" type="line"/>
      <point x="301" y="-166" type="line"/>
      <point x="301" y="832" type="line"/>
      <point x="49" y="832" type="line"/>
      <point x="49" y="708" type="line"/>
      <point x="146" y="708" type="line"/>
      <point x="146" y="-42" type="line"/>
    </contour>
  </outline>
</glyph>
<glyph name="asciitilde.guru" format="2">
  <advance width="598"/>
  <unicode hex="007E"/>
  <outline>
    <contour>
      <point x="61" y="366" type="curve"/>
      <point x="61" y="229" type="line"/>
      <point x="97" y="260"/>
      <point x="138" y="288"/>
      <point x="177" y="288" type="curve" smooth="yes"/>
      <point x="207" y="288"/>
      <point x="231" y="280"/>
      <point x="281" y="259" type="curve" smooth="yes"/>
      <point x="344" y="233"/>
      <point x="369" y="230"/>
      <point x="409" y="230" type="curve" smooth="yes"/>
      <point x="461" y="230"/>
      <point x="504" y="246"/>
      <point x="537" y="283" type="curve"/>
      <point x="537" y="420" type="line"/>
      <point x="503" y="387"/>
      <point x="462" y="361"/>
      <point x="421" y="361" type="curve" smooth="yes"/>
      <point x="393" y="361"/>
      <point x="366" y="368"/>
      <point x="317" y="388" type="curve" smooth="yes"/>
      <point x="255" y="413"/>
      <point x="229" y="419"/>
      <point x="189" y="419" type="curve" smooth="yes"/>
      <point x="137" y="419"/>
      <point x="94" y="400"/>
    </contour>
  </outline>
</glyph>
<glyph name="multiply.guru" format="2">
  <advance width="598"/>
  <unicode hex="00D7"/>
  <outline>
    <contour>
      <point x="297" y="236" type="line"/>
      <point x="440" y="93" type="line"/>
      <point x="531" y="184" type="line"/>
      <point x="390" y="326" type="line"/>
      <point x="534" y="469" type="line"/>
      <point x="440" y="559" type="line"/>
      <point x="297" y="417" type="line"/>
      <point x="157" y="559" type="line"/>
      <point x="64" y="467" type="line"/>
      <point x="205" y="326" type="line"/>
      <point x="65" y="184" type="line"/>
      <point x="157" y="94" type="line"/>
    </contour>
  </outline>
</glyph>
<glyph name="divide.guru" format="2">
  <advance width="598"/>
  <unicode hex="00F7"/>
  <outline>
    <contour>
      <point x="61" y="388" type="line"/>
      <point x="61" y="259" type="line"/>
      <point x="537" y="259" type="line"/>
      <point x="537" y="388" type="line"/>
    </contour>
    <contour>
      <point x="299" y="68" type="curve" smooth="yes"/>
      <point x="340" y="68"/>
      <point x="376" y="91"/>
      <point x="376" y="151" type="curve" smooth="yes"/>
      <point x="376" y="213"/>
      <point x="340" y="234"/>
      <point x="299" y="234" type="curve" smooth="yes"/>
      <point x="257" y="234"/>
      <point x="221" y="213"/>
      <point x="221" y="151" type="curve" smooth="yes"/>
      <point x="221" y="91"/>
      <point x="257" y="68"/>
    </contour>
    <contour>
      <point x="299" y="409" type="curve" smooth="yes"/>
      <point x="340" y="409"/>
      <point x="376" y="432"/>
      <point x="376" y="492" type="curve" smooth="yes"/>
      <point x="376" y="552"/>
      <point x="340" y="575"/>
      <point x="299" y="575" type="curve" smooth="yes"/>
      <point x="257" y="575"/>
      <point x="221" y="552"/>
      <point x="221" y="492" type="curve" smooth="yes"/>
      <point x="221" y="432"/>
      <point x="257" y="409"/>
    </contour>
  </outline>
</glyph>
<glyph name="uni0951" format="2">
  <unicode hex="0951"/>
  <outline>
    <contour>
      <point x="-217" y="668" type="line"/>
      <point x="-99" y="668" type="line"/>
      <point x="-99" y="895" type="line"/>
      <point x="-217" y="895" type="line"/>
    </contour>
  </outline>
</glyph>
<glyph name="uni0952" format="2">
  <unicode hex="0952"/>
  <outline>
    <contour>
      <point x="-495" y="-165" type="line"/>
      <point x="-47" y="-165" type="line"/>
      <point x="-47" y="-60" type="line"/>
      <point x="-495" y="-60" type="line"/>
    </contour>
  </outline>
</glyph>
<glyph name="danda.guru" format="2">
  <advance width="419"/>
  <unicode hex="0964"/>
  <outline>
    <contour>
      <point x="165" y="0" type="line"/>
      <point x="342" y="0" type="line"/>
      <point x="342" y="622" type="line"/>
      <point x="165" y="622" type="line"/>
    </contour>
  </outline>
</glyph>
<glyph name="dbldanda.guru" format="2">
  <advance width="673"/>
  <unicode hex="0965"/>
  <outline>
    <contour>
      <point x="419" y="0" type="line"/>
      <point x="596" y="0" type="line"/>
      <point x="596" y="622" type="line"/>
      <point x="419" y="622" type="line"/>
    </contour>
    <contour>
      <point x="165" y="0" type="line"/>
      <point x="342" y="0" type="line"/>
      <point x="342" y="622" type="line"/>
      <point x="165" y="622" type="line"/>
    </contour>
  </outline>
</glyph>
<glyph name="adakbindiguru" format="2">
  <unicode hex="0A01"/>
  <outline>
    <contour>
      <point x="-157" y="648" type="curve" smooth="yes"/>
      <point x="-16" y="648"/>
      <point x="64" y="724"/>
      <point x="82" y="858" type="curve"/>
      <point x="-55" y="877" type="line"/>
      <point x="-66" y="788"/>
      <point x="-96" y="755"/>
      <point x="-157" y="755" type="curve" smooth="yes"/>
      <point x="-216" y="755"/>
      <point x="-247" y="788"/>
      <point x="-259" y="877" type="curve"/>
      <point x="-396" y="858" type="line"/>
      <point x="-378" y="723"/>
      <point x="-297" y="648"/>
    </contour>
    <contour>
      <point x="-157" y="777" type="curve" smooth="yes"/>
      <point x="-114" y="777"/>
      <point x="-89" y="802"/>
      <point x="-89" y="837" type="curve" smooth="yes"/>
      <point x="-89" y="872"/>
      <point x="-114" y="896"/>
      <point x="-157" y="896" type="curve" smooth="yes"/>
      <point x="-199" y="896"/>
      <point x="-225" y="872"/>
      <point x="-225" y="837" type="curve" smooth="yes"/>
      <point x="-225" y="802"/>
      <point x="-202" y="777"/>
    </contour>
  </outline>
</glyph>
<glyph name="bindiguru" format="2">
  <unicode hex="0A02"/>
  <outline>
    <contour>
      <point x="-158" y="695" type="curve" smooth="yes"/>
      <point x="-102" y="695"/>
      <point x="-70" y="726"/>
      <point x="-70" y="776" type="curve" smooth="yes"/>
      <point x="-70" y="824"/>
      <point x="-102" y="857"/>
      <point x="-158" y="857" type="curve" smooth="yes"/>
      <point x="-215" y="857"/>
      <point x="-247" y="824"/>
      <point x="-247" y="776" type="curve" smooth="yes"/>
      <point x="-247" y="726"/>
      <point x="-215" y="695"/>
    </contour>
  </outline>
</glyph>
<glyph name="visargaguru" format="2">
  <advance width="455"/>
  <unicode hex="0A03"/>
  <outline>
    <contour>
      <point x="228" y="328" type="curve" smooth="yes"/>
      <point x="341" y="328"/>
      <point x="408" y="381"/>
      <point x="408" y="475" type="curve" smooth="yes"/>
      <point x="408" y="566"/>
      <point x="341" y="622"/>
      <point x="228" y="622" type="curve" smooth="yes"/>
      <point x="114" y="622"/>
      <point x="47" y="564"/>
      <point x="47" y="475" type="curve" smooth="yes"/>
      <point x="47" y="383"/>
      <point x="114" y="328"/>
    </contour>
    <contour>
      <point x="228" y="434" type="curve" smooth="yes"/>
      <point x="203" y="434"/>
      <point x="186" y="449"/>
      <point x="186" y="475" type="curve" smooth="yes"/>
      <point x="186" y="501"/>
      <point x="201" y="516"/>
      <point x="228" y="516" type="curve" smooth="yes"/>
      <point x="254" y="516"/>
      <point x="269" y="501"/>
      <point x="269" y="475" type="curve" smooth="yes"/>
      <point x="269" y="450"/>
      <point x="254" y="434"/>
    </contour>
    <contour>
      <point x="228" y="0" type="curve" smooth="yes"/>
      <point x="341" y="0"/>
      <point x="408" y="53"/>
      <point x="408" y="147" type="curve" smooth="yes"/>
      <point x="408" y="238"/>
      <point x="341" y="294"/>
      <point x="228" y="294" type="curve" smooth="yes"/>
      <point x="114" y="294"/>
      <point x="47" y="236"/>
      <point x="47" y="147" type="curve" smooth="yes"/>
      <point x="47" y="55"/>
      <point x="114" y="0"/>
    </contour>
    <contour>
      <point x="228" y="106" type="curve" smooth="yes"/>
      <point x="203" y="106"/>
      <point x="186" y="121"/>
      <point x="186" y="147" type="curve" smooth="yes"/>
      <point x="186" y="173"/>
      <point x="201" y="188"/>
      <point x="228" y="188" type="curve" smooth="yes"/>
      <point x="254" y="188"/>
      <point x="269" y="173"/>
      <point x="269" y="147" type="curve" smooth="yes"/>
      <point x="269" y="122"/>
      <point x="254" y="106"/>
    </contour>
  </outline>
</glyph>
<glyph name="aguru" format="2">
  <advance width="873"/>
  <unicode hex="0A05"/>
  <outline>
    <contour>
      <point x="626" y="0" type="line"/>
      <point x="803" y="0" type="line"/>
      <point x="803" y="484" type="line"/>
      <point x="880" y="484" type="line"/>
      <point x="880" y="622" type="line"/>
      <point x="626" y="622" type="line"/>
      <point x="626" y="428" type="line"/>
      <point x="645" y="449" type="line"/>
      <point x="561" y="432"/>
      <point x="482" y="379"/>
      <point x="439" y="340" type="curve"/>
      <point x="550" y="342" type="line"/>
      <point x="550" y="430"/>
      <point x="514" y="536"/>
      <point x="491" y="577" type="curve"/>
      <point x="369" y="560"/>
      <point x="249" y="499"/>
      <point x="185" y="437" type="curve"/>
      <point x="276" y="434" type="line"/>
      <point x="276" y="491"/>
      <point x="253" y="586"/>
      <point x="237" y="622" type="curve"/>
      <point x="-7" y="622" type="line"/>
      <point x="-7" y="484" type="line"/>
      <point x="133" y="484" type="line"/>
      <point x="70" y="547" type="line"/>
      <point x="88" y="515"/>
      <point x="105" y="462"/>
      <point x="107" y="411" type="curve"/>
      <point x="59" y="365"/>
      <point x="42" y="322"/>
      <point x="42" y="273" type="curve" smooth="yes"/>
      <point x="42" y="223"/>
      <point x="70" y="177"/>
      <point x="140" y="177" type="curve" smooth="yes"/>
      <point x="215" y="177"/>
      <point x="281" y="222"/>
      <point x="281" y="390" type="curve"/>
      <point x="216" y="300" type="line"/>
      <point x="279" y="355"/>
      <point x="353" y="393"/>
      <point x="417" y="409" type="curve"/>
      <point x="342" y="466" type="line"/>
      <point x="366" y="422"/>
      <point x="380" y="363"/>
      <point x="381" y="317" type="curve"/>
      <point x="333" y="271"/>
      <point x="316" y="232"/>
      <point x="316" y="180" type="curve" smooth="yes"/>
      <point x="316" y="130"/>
      <point x="344" y="84"/>
      <point x="414" y="84" type="curve" smooth="yes"/>
      <point x="489" y="84"/>
      <point x="555" y="129"/>
      <point x="555" y="297" type="curve"/>
      <point x="506" y="222" type="line"/>
      <point x="547" y="259"/>
      <point x="604" y="287"/>
      <point x="647" y="298" type="curve"/>
      <point x="626" y="374" type="line"/>
    </contour>
  </outline>
</glyph>
<glyph name="aaguru" format="2">
  <advance width="1159"/>
  <unicode hex="0A06"/>
  <outline>
    <contour>
      <point x="924" y="242" type="line"/>
      <point x="1101" y="242" type="line"/>
      <point x="1101" y="484" type="line"/>
      <point x="1166" y="484" type="line"/>
      <point x="1166" y="622" type="line"/>
      <point x="864" y="622" type="line"/>
      <point x="864" y="484" type="line"/>
      <point x="924" y="484" type="line"/>
    </contour>
    <component base="aguru"/>
  </outline>
</glyph>
<glyph name="kaguru" format="2">
  <advance width="689"/>
  <unicode hex="0A15"/>
  <guideline x="423" y="252" angle="0"/>
  <outline>
    <contour>
      <point x="478" y="0" type="curve"/>
      <point x="655" y="0" type="line"/>
      <point x="646" y="132"/>
      <point x="611" y="235"/>
      <point x="532" y="320" type="curve"/>
      <point x="491" y="341" type="line"/>
      <point x="428" y="405"/>
      <point x="360" y="434"/>
      <point x="253" y="434" type="curve" smooth="yes"/>
      <point x="110" y="434"/>
      <point x="23" y="365"/>
      <point x="23" y="242" type="curve" smooth="yes"/>
      <point x="23" y="121"/>
      <point x="116" y="49"/>
      <point x="260" y="49" type="curve" smooth="yes"/>
      <point x="374" y="49"/>
      <point x="462" y="95"/>
      <point x="526" y="181" type="curve"/>
      <point x="551" y="203" type="line"/>
      <point x="599" y="266"/>
      <point x="623" y="337"/>
      <point x="623" y="432" type="curve" smooth="yes"/>
      <point x="623" y="449"/>
      <point x="622" y="467"/>
      <point x="620" y="484" type="curve"/>
      <point x="696" y="484" type="line"/>
      <point x="696" y="622" type="line"/>
      <point x="-7" y="622" type="line"/>
      <point x="-7" y="484" type="line"/>
      <point x="445" y="484" type="line"/>
      <point x="448" y="470"/>
      <point x="450" y="452"/>
      <point x="450" y="435" type="curve" smooth="yes"/>
      <point x="450" y="407"/>
      <point x="447" y="369"/>
      <point x="439" y="339" type="curve"/>
      <point x="413" y="278" type="line"/>
      <point x="386" y="227"/>
      <point x="342" y="188"/>
      <point x="277" y="188" type="curve" smooth="yes"/>
      <point x="217" y="188"/>
      <point x="200" y="216"/>
      <point x="200" y="243" type="curve" smooth="yes"/>
      <point x="200" y="280"/>
      <point x="233" y="296"/>
      <point x="277" y="296" type="curve" smooth="yes"/>
      <point x="343" y="296"/>
      <point x="389" y="259"/>
      <point x="422" y="210" type="curve"/>
      <point x="441" y="172" type="line"/>
      <point x="461" y="124"/>
      <point x="476" y="62"/>
    </contour>
  </outline>
</glyph>
<glyph name="gaguru" format="2">
  <advance width="887"/>
  <unicode hex="0A17"/>
  <outline>
    <contour>
      <point x="323" y="0" type="curve" smooth="yes"/>
      <point x="457" y="0"/>
      <point x="528" y="51"/>
      <point x="528" y="187" type="curve" smooth="yes"/>
      <point x="528" y="484" type="line"/>
      <point x="598" y="484" type="line"/>
      <point x="598" y="622" type="line"/>
      <point x="-7" y="622" type="line"/>
      <point x="-7" y="484" type="line"/>
      <point x="354" y="484" type="line"/>
      <point x="354" y="425" type="line"/>
      <point x="273" y="425" type="line" smooth="yes"/>
      <point x="172" y="425"/>
      <point x="113" y="410"/>
      <point x="72" y="374" type="curve" smooth="yes"/>
      <point x="43" y="348"/>
      <point x="25" y="313"/>
      <point x="25" y="265" type="curve" smooth="yes"/>
      <point x="25" y="112"/>
      <point x="163" y="0"/>
    </contour>
    <contour>
      <point x="315" y="139" type="curve" smooth="yes"/>
      <point x="260" y="139"/>
      <point x="203" y="202"/>
      <point x="203" y="248" type="curve" smooth="yes"/>
      <point x="203" y="259"/>
      <point x="207" y="269"/>
      <point x="214" y="275" type="curve" smooth="yes"/>
      <point x="224" y="284"/>
      <point x="236" y="287"/>
      <point x="266" y="287" type="curve" smooth="yes"/>
      <point x="351" y="287" type="line"/>
      <point x="351" y="191" type="line" smooth="yes"/>
      <point x="351" y="168"/>
      <point x="348" y="155"/>
      <point x="340" y="147" type="curve" smooth="yes"/>
      <point x="334" y="142"/>
      <point x="328" y="139"/>
    </contour>
    <contour>
      <point x="640" y="0" type="line"/>
      <point x="817" y="0" type="line"/>
      <point x="817" y="484" type="line"/>
      <point x="894" y="484" type="line"/>
      <point x="894" y="622" type="line"/>
      <point x="572" y="622" type="line"/>
      <point x="572" y="484" type="line"/>
      <point x="640" y="484" type="line"/>
    </contour>
  </outline>
</glyph>
<glyph name="ghaguru" format="2">
  <advance width="863"/>
  <unicode hex="0A18"/>
  <outline>
    <contour>
      <point x="277" y="115" type="curve" smooth="yes"/>
      <point x="420" y="115"/>
      <point x="472" y="195"/>
      <point x="501" y="308" type="curve"/>
      <point x="381" y="327" type="line"/>
      <point x="388" y="212"/>
      <point x="428" y="115"/>
      <point x="561" y="115" type="curve" smooth="yes"/>
      <point x="605" y="115"/>
      <point x="642" y="127"/>
      <point x="668" y="146" type="curve"/>
      <point x="641" y="287" type="line"/>
      <point x="626" y="261"/>
      <point x="604" y="253"/>
      <point x="579" y="253" type="curve" smooth="yes"/>
      <point x="548" y="253"/>
      <point x="528" y="273"/>
      <point x="516" y="311" type="curve"/>
      <point x="530" y="366"/>
      <point x="539" y="428"/>
      <point x="539" y="486" type="curve" smooth="yes"/>
      <point x="539" y="565"/>
      <point x="506" y="611"/>
      <point x="439" y="611" type="curve" smooth="yes"/>
      <point x="373" y="611"/>
      <point x="339" y="562"/>
      <point x="339" y="485" type="curve" smooth="yes"/>
      <point x="339" y="434"/>
      <point x="347" y="371"/>
      <point x="363" y="313" type="curve"/>
      <point x="349" y="275"/>
      <point x="329" y="254"/>
      <point x="292" y="254" type="curve" smooth="yes"/>
      <point x="252" y="254"/>
      <point x="228" y="285"/>
      <point x="212" y="336" type="curve"/>
      <point x="186" y="278" type="line"/>
      <point x="248" y="325"/>
      <point x="273" y="382"/>
      <point x="273" y="445" type="curve" smooth="yes"/>
      <point x="273" y="505"/>
      <point x="253" y="562"/>
      <point x="224" y="622" type="curve"/>
      <point x="-7" y="622" type="line"/>
      <point x="-7" y="484" type="line"/>
      <point x="107" y="484" type="line"/>
      <point x="68" y="515" type="line"/>
      <point x="87" y="489"/>
      <point x="96" y="459"/>
      <point x="96" y="434" type="curve" smooth="yes"/>
      <point x="96" y="387"/>
      <point x="70" y="359"/>
      <point x="29" y="330" type="curve"/>
      <point x="71" y="189"/>
      <point x="154" y="115"/>
    </contour>
    <contour>
      <point x="616" y="0" type="line"/>
      <point x="793" y="0" type="line"/>
      <point x="793" y="484" type="line"/>
      <point x="870" y="484" type="line"/>
      <point x="870" y="622" type="line"/>
      <point x="616" y="622" type="line"/>
    </contour>
  </outline>
</glyph>
<glyph name="ngaguru" format="2">
  <advance width="658"/>
  <unicode hex="0A19"/>
  <outline>
    <contour>
      <point x="427" y="-19" type="curve"/>
      <point x="574" y="21" type="line"/>
      <point x="547" y="70"/>
      <point x="519" y="115"/>
      <point x="487" y="152" type="curve"/>
      <point x="404" y="247"/>
      <point x="333" y="288"/>
      <point x="207" y="288" type="curve" smooth="yes"/>
      <point x="80" y="288"/>
      <point x="27" y="237"/>
      <point x="27" y="162" type="curve" smooth="yes"/>
      <point x="27" y="46"/>
      <point x="155" y="18"/>
      <point x="272" y="18" type="curve" smooth="yes"/>
      <point x="477" y="18"/>
      <point x="633" y="117"/>
      <point x="633" y="278" type="curve" smooth="yes"/>
      <point x="633" y="327"/>
      <point x="614" y="365"/>
      <point x="580" y="392" type="curve" smooth="yes"/>
      <point x="542" y="422"/>
      <point x="495" y="437"/>
      <point x="396" y="437" type="curve" smooth="yes"/>
      <point x="250" y="437" type="line"/>
      <point x="250" y="484" type="line"/>
      <point x="665" y="484" type="line"/>
      <point x="665" y="622" type="line"/>
      <point x="-7" y="622" type="line"/>
      <point x="-7" y="484" type="line"/>
      <point x="76" y="484" type="line"/>
      <point x="76" y="349" type="line"/>
      <point x="121" y="304" type="line"/>
      <point x="383" y="304" type="line" smooth="yes"/>
      <point x="415" y="304"/>
      <point x="430" y="301"/>
      <point x="443" y="291" type="curve" smooth="yes"/>
      <point x="452" y="284"/>
      <point x="457" y="273"/>
      <point x="457" y="258" type="curve" smooth="yes"/>
      <point x="457" y="220"/>
      <point x="439" y="194"/>
      <point x="407" y="172" type="curve"/>
      <point x="372" y="149"/>
      <point x="320" y="137"/>
      <point x="267" y="137" type="curve" smooth="yes"/>
      <point x="218" y="137"/>
      <point x="202" y="145"/>
      <point x="202" y="159" type="curve" smooth="yes"/>
      <point x="202" y="173"/>
      <point x="215" y="178"/>
      <point x="236" y="178" type="curve" smooth="yes"/>
      <point x="295" y="178"/>
      <point x="366" y="128"/>
    </contour>
  </outline>
</glyph>
<glyph name="caguru" format="2">
  <advance width="709"/>
  <unicode hex="0A1A"/>
  <outline>
    <contour>
      <point x="411" y="0" type="curve" smooth="yes"/>
      <point x="568" y="0"/>
      <point x="639" y="52"/>
      <point x="639" y="193" type="curve" smooth="yes"/>
      <point x="639" y="523" type="line"/>
      <point x="462" y="523" type="line"/>
      <point x="462" y="203" type="line" smooth="yes"/>
      <point x="462" y="172"/>
      <point x="459" y="159"/>
      <point x="451" y="151" type="curve" smooth="yes"/>
      <point x="442" y="142"/>
      <point x="429" y="139"/>
      <point x="404" y="139" type="curve" smooth="yes"/>
      <point x="350" y="139"/>
      <point x="276" y="176"/>
      <point x="256" y="262" type="curve"/>
      <point x="205" y="244" type="line"/>
      <point x="509" y="244" type="line"/>
      <point x="489" y="382" type="line"/>
      <point x="259" y="382" type="line"/>
      <point x="259" y="384" type="line" smooth="yes"/>
      <point x="259" y="423"/>
      <point x="237" y="453"/>
      <point x="180" y="453" type="curve" smooth="yes"/>
      <point x="100" y="453"/>
      <point x="13" y="369"/>
      <point x="13" y="305" type="curve" smooth="yes"/>
      <point x="13" y="262"/>
      <point x="40" y="242"/>
      <point x="80" y="242" type="curve" smooth="yes"/>
      <point x="123" y="242" type="line"/>
      <point x="73" y="278" type="line"/>
      <point x="92" y="192"/>
      <point x="122" y="135"/>
      <point x="172" y="89" type="curve" smooth="yes"/>
      <point x="235" y="30"/>
      <point x="322" y="0"/>
    </contour>
    <contour>
      <point x="-7" y="484" type="line"/>
      <point x="716" y="484" type="line"/>
      <point x="716" y="622" type="line"/>
      <point x="-7" y="622" type="line"/>
    </contour>
  </outline>
</glyph>
<glyph name="chaguru" format="2">
  <advance width="708"/>
  <unicode hex="0A1B"/>
  <outline>
    <contour>
      <point x="343" y="0" type="curve" smooth="yes"/>
      <point x="575" y="0"/>
      <point x="686" y="28"/>
      <point x="686" y="149" type="curve" smooth="yes"/>
      <point x="686" y="250"/>
      <point x="594" y="287"/>
      <point x="463" y="287" type="curve" smooth="yes"/>
      <point x="271" y="287" type="line" smooth="yes"/>
      <point x="237" y="287"/>
      <point x="219" y="292"/>
      <point x="219" y="308" type="curve" smooth="yes"/>
      <point x="219" y="314"/>
      <point x="221" y="319"/>
      <point x="226" y="322" type="curve" smooth="yes"/>
      <point x="230" y="325"/>
      <point x="237" y="327"/>
      <point x="258" y="327" type="curve" smooth="yes"/>
      <point x="575" y="327" type="line"/>
      <point x="625" y="367" type="line"/>
      <point x="625" y="484" type="line"/>
      <point x="715" y="484" type="line"/>
      <point x="715" y="622" type="line"/>
      <point x="-7" y="622" type="line"/>
      <point x="-7" y="484" type="line"/>
      <point x="453" y="484" type="line"/>
      <point x="453" y="446" type="line"/>
      <point x="258" y="446" type="line" smooth="yes"/>
      <point x="181" y="446"/>
      <point x="142" y="439"/>
      <point x="106" y="421" type="curve" smooth="yes"/>
      <point x="66" y="401"/>
      <point x="39" y="370"/>
      <point x="39" y="313" type="curve" smooth="yes"/>
      <point x="39" y="248"/>
      <point x="89" y="213"/>
      <point x="168" y="190" type="curve"/>
      <point x="167" y="175" type="line"/>
      <point x="438" y="175" type="line" smooth="yes"/>
      <point x="489" y="175"/>
      <point x="506" y="165"/>
      <point x="506" y="145" type="curve" smooth="yes"/>
      <point x="506" y="122"/>
      <point x="490" y="112"/>
      <point x="412" y="112" type="curve" smooth="yes"/>
      <point x="294" y="112" type="line" smooth="yes"/>
      <point x="226" y="112"/>
      <point x="212" y="123"/>
      <point x="212" y="146" type="curve" smooth="yes"/>
      <point x="212" y="165"/>
      <point x="231" y="175"/>
      <point x="276" y="175" type="curve"/>
      <point x="152" y="253" type="line"/>
      <point x="76" y="230"/>
      <point x="35" y="191"/>
      <point x="35" y="141" type="curve" smooth="yes"/>
      <point x="35" y="38"/>
      <point x="135" y="0"/>
    </contour>
    <contour>
      <point x="428" y="70" type="line"/>
      <point x="428" y="233" type="line"/>
      <point x="288" y="233" type="line"/>
      <point x="288" y="71" type="line"/>
    </contour>
  </outline>
</glyph>
<glyph name="jaguru" format="2">
  <advance width="674"/>
  <unicode hex="0A1C"/>
  <outline>
    <contour>
      <point x="88" y="0" type="line"/>
      <point x="265" y="0" type="line"/>
      <point x="265" y="223" type="line"/>
      <point x="427" y="223" type="line"/>
      <point x="427" y="0" type="line"/>
      <point x="604" y="0" type="line"/>
      <point x="604" y="484" type="line"/>
      <point x="681" y="484" type="line"/>
      <point x="681" y="622" type="line"/>
      <point x="-7" y="622" type="line"/>
      <point x="-7" y="484" type="line"/>
      <point x="427" y="484" type="line"/>
      <point x="427" y="361" type="line"/>
      <point x="263" y="361" type="line"/>
      <point x="263" y="363" type="line" smooth="yes"/>
      <point x="263" y="402"/>
      <point x="241" y="432"/>
      <point x="184" y="432" type="curve" smooth="yes"/>
      <point x="104" y="432"/>
      <point x="17" y="348"/>
      <point x="17" y="284" type="curve" smooth="yes"/>
      <point x="17" y="241"/>
      <point x="44" y="221"/>
      <point x="84" y="221" type="curve" smooth="yes"/>
      <point x="88" y="221" type="line"/>
    </contour>
  </outline>
</glyph>
<glyph name="jhaguru" format="2">
  <advance width="630"/>
  <unicode hex="0A1D"/>
  <outline>
    <contour>
      <point x="263" y="54" type="curve" smooth="yes"/>
      <point x="281" y="54"/>
      <point x="304" y="56"/>
      <point x="332" y="58" type="curve"/>
      <point x="361" y="63" type="line"/>
      <point x="508" y="83"/>
      <point x="601" y="148"/>
      <point x="601" y="254" type="curve" smooth="yes"/>
      <point x="601" y="373"/>
      <point x="494" y="415"/>
      <point x="309" y="415" type="curve" smooth="yes"/>
      <point x="207" y="415"/>
      <point x="109" y="404"/>
      <point x="17" y="374" type="curve"/>
      <point x="66" y="245" type="line"/>
      <point x="140" y="272"/>
      <point x="232" y="290"/>
      <point x="306" y="290" type="curve" smooth="yes"/>
      <point x="394" y="290"/>
      <point x="422" y="273"/>
      <point x="422" y="247" type="curve" smooth="yes"/>
      <point x="422" y="211"/>
      <point x="382" y="196"/>
      <point x="316" y="187" type="curve"/>
      <point x="271" y="213"/>
      <point x="226" y="231"/>
      <point x="170" y="231" type="curve" smooth="yes"/>
      <point x="98" y="231"/>
      <point x="68" y="192"/>
      <point x="68" y="152" type="curve" smooth="yes"/>
      <point x="68" y="69"/>
      <point x="158" y="54"/>
    </contour>
    <contour>
      <point x="375" y="-46" type="curve"/>
      <point x="500" y="44" type="line"/>
      <point x="461" y="73"/>
      <point x="379" y="123"/>
      <point x="333" y="145" type="curve"/>
      <point x="195" y="101" type="line"/>
      <point x="257" y="57"/>
      <point x="326" y="0"/>
    </contour>
    <contour>
      <point x="175" y="360" type="curve"/>
      <point x="369" y="411" type="line"/>
      <point x="268" y="411"/>
      <point x="228" y="451"/>
      <point x="228" y="572" type="curve"/>
      <point x="48" y="577" type="line"/>
      <point x="48" y="454"/>
      <point x="102" y="393"/>
    </contour>
    <contour>
      <point x="-7" y="484" type="line"/>
      <point x="637" y="484" type="line"/>
      <point x="637" y="622" type="line"/>
      <point x="-7" y="622" type="line"/>
    </contour>
    <contour>
      <point x="451" y="357" type="line"/>
      <point x="531" y="382"/>
      <point x="586" y="462"/>
      <point x="586" y="577" type="curve"/>
      <point x="406" y="572" type="line"/>
      <point x="406" y="456"/>
      <point x="363" y="411"/>
      <point x="277" y="411" type="curve"/>
    </contour>
  </outline>
</glyph>
<glyph name="nyaguru" format="2">
  <advance width="618"/>
  <unicode hex="0A1E"/>
  <outline>
    <contour>
      <point x="155" y="369" type="curve"/>
      <point x="301" y="416" type="line"/>
      <point x="280" y="467"/>
      <point x="241" y="535"/>
      <point x="199" y="589" type="curve"/>
      <point x="44" y="553" type="line"/>
      <point x="85" y="502"/>
      <point x="126" y="430"/>
    </contour>
    <component base="vaguru"/>
  </outline>
</glyph>
<glyph name="ttaguru" format="2">
  <advance width="626"/>
  <unicode hex="0A1F"/>
  <outline>
    <contour>
      <point x="360" y="0" type="curve" smooth="yes"/>
      <point x="446" y="0"/>
      <point x="540" y="17"/>
      <point x="608" y="51" type="curve"/>
      <point x="552" y="184" type="line"/>
      <point x="480" y="150"/>
      <point x="428" y="139"/>
      <point x="365" y="139" type="curve" smooth="yes"/>
      <point x="284" y="139"/>
      <point x="236" y="163"/>
      <point x="171" y="277" type="curve"/>
      <point x="180" y="167" type="line"/>
      <point x="221" y="218"/>
      <point x="256" y="246"/>
      <point x="292" y="261" type="curve" smooth="yes"/>
      <point x="318" y="272"/>
      <point x="344" y="277"/>
      <point x="409" y="277" type="curve" smooth="yes"/>
      <point x="510" y="277" type="line"/>
      <point x="556" y="323" type="line"/>
      <point x="556" y="484" type="line"/>
      <point x="633" y="484" type="line"/>
      <point x="633" y="622" type="line"/>
      <point x="-7" y="622" type="line"/>
      <point x="-7" y="484" type="line"/>
      <point x="379" y="484" type="line"/>
      <point x="379" y="415" type="line"/>
      <point x="373" y="415" type="line" smooth="yes"/>
      <point x="280" y="415"/>
      <point x="237" y="403"/>
      <point x="193" y="383" type="curve" smooth="yes"/>
      <point x="127" y="353"/>
      <point x="75" y="303"/>
      <point x="16" y="231" type="curve"/>
      <point x="82" y="65"/>
      <point x="201" y="0"/>
    </contour>
  </outline>
</glyph>
<glyph name="tthaguru" format="2">
  <advance width="735"/>
  <unicode hex="0A20"/>
  <outline>
    <contour>
      <point x="368" y="0" type="curve" smooth="yes"/>
      <point x="563" y="0"/>
      <point x="710" y="47"/>
      <point x="710" y="201" type="curve" smooth="yes"/>
      <point x="710" y="299"/>
      <point x="638" y="386"/>
      <point x="456" y="427" type="curve"/>
      <point x="456" y="484" type="line"/>
      <point x="742" y="484" type="line"/>
      <point x="742" y="622" type="line"/>
      <point x="-7" y="622" type="line"/>
      <point x="-7" y="484" type="line"/>
      <point x="279" y="484" type="line"/>
      <point x="279" y="427" type="line"/>
      <point x="98" y="387"/>
      <point x="25" y="299"/>
      <point x="25" y="201" type="curve" smooth="yes"/>
      <point x="25" y="47"/>
      <point x="171" y="0"/>
    </contour>
    <contour>
      <point x="368" y="140" type="curve" smooth="yes"/>
      <point x="257" y="140"/>
      <point x="202" y="157"/>
      <point x="202" y="205" type="curve" smooth="yes"/>
      <point x="202" y="246"/>
      <point x="248" y="283"/>
      <point x="368" y="305" type="curve"/>
      <point x="486" y="283"/>
      <point x="533" y="246"/>
      <point x="533" y="209" type="curve" smooth="yes"/>
      <point x="533" y="157"/>
      <point x="478" y="140"/>
    </contour>
  </outline>
</glyph>
<glyph name="ddaguru" format="2">
  <advance width="669"/>
  <unicode hex="0A21"/>
  <outline>
    <contour>
      <point x="298" y="0" type="curve" smooth="yes"/>
      <point x="526" y="0"/>
      <point x="640" y="91"/>
      <point x="640" y="221" type="curve" smooth="yes"/>
      <point x="640" y="291"/>
      <point x="609" y="337"/>
      <point x="547" y="373" type="curve"/>
      <point x="589" y="399"/>
      <point x="615" y="434"/>
      <point x="615" y="500" type="curve" smooth="yes"/>
      <point x="615" y="517"/>
      <point x="612" y="542"/>
      <point x="609" y="553" type="curve"/>
      <point x="547" y="484" type="line"/>
      <point x="676" y="484" type="line"/>
      <point x="676" y="622" type="line"/>
      <point x="-7" y="622" type="line"/>
      <point x="-7" y="484" type="line"/>
      <point x="489" y="484" type="line"/>
      <point x="439" y="550" type="line"/>
      <point x="443" y="540"/>
      <point x="445" y="520"/>
      <point x="445" y="500" type="curve" smooth="yes"/>
      <point x="445" y="475"/>
      <point x="424" y="445"/>
      <point x="392" y="436" type="curve"/>
      <point x="344" y="453"/>
      <point x="307" y="459"/>
      <point x="261" y="459" type="curve" smooth="yes"/>
      <point x="177" y="459"/>
      <point x="135" y="424"/>
      <point x="135" y="372" type="curve" smooth="yes"/>
      <point x="135" y="322"/>
      <point x="172" y="281"/>
      <point x="275" y="281" type="curve" smooth="yes"/>
      <point x="323" y="281"/>
      <point x="374" y="288"/>
      <point x="411" y="303" type="curve"/>
      <point x="441" y="288"/>
      <point x="461" y="268"/>
      <point x="461" y="227" type="curve" smooth="yes"/>
      <point x="461" y="159"/>
      <point x="378" y="119"/>
      <point x="290" y="119" type="curve" smooth="yes"/>
      <point x="217" y="119"/>
      <point x="196" y="127"/>
      <point x="196" y="141" type="curve" smooth="yes"/>
      <point x="196" y="155"/>
      <point x="209" y="160"/>
      <point x="231" y="160" type="curve" smooth="yes"/>
      <point x="286" y="160"/>
      <point x="342" y="128"/>
      <point x="398" y="70" type="curve"/>
      <point x="508" y="118" type="line"/>
      <point x="429" y="209"/>
      <point x="338" y="271"/>
      <point x="199" y="271" type="curve" smooth="yes"/>
      <point x="71" y="271"/>
      <point x="21" y="213"/>
      <point x="21" y="142" type="curve" smooth="yes"/>
      <point x="21" y="36"/>
      <point x="137" y="0"/>
    </contour>
  </outline>
</glyph>
<glyph name="ddhaguru" format="2">
  <advance width="717"/>
  <unicode hex="0A22"/>
  <outline>
    <contour>
      <point x="440" y="0" type="curve" smooth="yes"/>
      <point x="562" y="0"/>
      <point x="690" y="28"/>
      <point x="690" y="140" type="curve" smooth="yes"/>
      <point x="690" y="209"/>
      <point x="640" y="266"/>
      <point x="511" y="266" type="curve" smooth="yes"/>
      <point x="373" y="266"/>
      <point x="282" y="205"/>
      <point x="203" y="114" type="curve"/>
      <point x="313" y="70" type="line"/>
      <point x="369" y="128"/>
      <point x="427" y="160"/>
      <point x="478" y="160" type="curve" smooth="yes"/>
      <point x="502" y="160"/>
      <point x="515" y="155"/>
      <point x="515" y="141" type="curve" smooth="yes"/>
      <point x="515" y="127"/>
      <point x="496" y="119"/>
      <point x="450" y="119" type="curve" smooth="yes"/>
      <point x="321" y="119"/>
      <point x="262" y="202"/>
      <point x="257" y="277" type="curve"/>
      <point x="591" y="277" type="line"/>
      <point x="643" y="327" type="line"/>
      <point x="643" y="484" type="line"/>
      <point x="724" y="484" type="line"/>
      <point x="724" y="622" type="line"/>
      <point x="-7" y="622" type="line"/>
      <point x="-7" y="484" type="line"/>
      <point x="466" y="484" type="line"/>
      <point x="466" y="405" type="line"/>
      <point x="263" y="405" type="line"/>
      <point x="263" y="407" type="line" smooth="yes"/>
      <point x="263" y="446"/>
      <point x="227" y="471"/>
      <point x="184" y="471" type="curve" smooth="yes"/>
      <point x="99" y="471"/>
      <point x="17" y="397"/>
      <point x="17" y="333" type="curve" smooth="yes"/>
      <point x="17" y="290"/>
      <point x="44" y="270"/>
      <point x="84" y="270" type="curve" smooth="yes"/>
      <point x="88" y="270" type="line"/>
      <point x="88" y="269" type="line"/>
      <point x="92" y="116"/>
      <point x="204" y="0"/>
    </contour>
  </outline>
</glyph>
<glyph name="nnaguru" format="2">
  <advance width="662"/>
  <unicode hex="0A23"/>
  <outline>
    <contour>
      <point x="387" y="0" type="curve" smooth="yes"/>
      <point x="486" y="0"/>
      <point x="577" y="25"/>
      <point x="644" y="60" type="curve"/>
      <point x="584" y="191" type="line"/>
      <point x="520" y="162"/>
      <point x="452" y="139"/>
      <point x="387" y="139" type="curve" smooth="yes"/>
      <point x="279" y="139"/>
      <point x="242" y="167"/>
      <point x="188" y="237" type="curve"/>
      <point x="205" y="182" type="line"/>
      <point x="256" y="236"/>
      <point x="288" y="247"/>
      <point x="328" y="247" type="curve" smooth="yes"/>
      <point x="353" y="247"/>
      <point x="371" y="244"/>
      <point x="390" y="237" type="curve"/>
      <point x="462" y="262" type="line"/>
      <point x="537" y="425" type="line"/>
      <point x="396" y="492" type="line"/>
      <point x="332" y="340" type="line"/>
      <point x="417" y="351" type="line"/>
      <point x="376" y="373"/>
      <point x="338" y="382"/>
      <point x="311" y="382" type="curve" smooth="yes"/>
      <point x="197" y="382"/>
      <point x="110" y="333"/>
      <point x="16" y="214" type="curve"/>
      <point x="90" y="53"/>
      <point x="216" y="0"/>
    </contour>
    <contour>
      <point x="580" y="280" type="curve"/>
      <point x="647" y="409" type="line"/>
      <point x="552" y="445"/>
      <point x="465" y="480"/>
      <point x="372" y="530" type="curve"/>
      <point x="350" y="484" type="line"/>
      <point x="669" y="484" type="line"/>
      <point x="669" y="622" type="line"/>
      <point x="-7" y="622" type="line"/>
      <point x="-7" y="484" type="line"/>
      <point x="281" y="484" type="line"/>
      <point x="171" y="521" type="line"/>
      <point x="318" y="404"/>
      <point x="459" y="327"/>
    </contour>
  </outline>
</glyph>
<glyph name="taguru" format="2">
  <advance width="608"/>
  <unicode hex="0A24"/>
  <outline>
    <contour>
      <point x="298" y="0" type="curve" smooth="yes"/>
      <point x="454" y="0"/>
      <point x="579" y="52"/>
      <point x="579" y="188" type="curve" smooth="yes"/>
      <point x="579" y="255"/>
      <point x="546" y="302"/>
      <point x="486" y="341" type="curve"/>
      <point x="535" y="372"/>
      <point x="555" y="411"/>
      <point x="555" y="478" type="curve" smooth="yes"/>
      <point x="555" y="503"/>
      <point x="551" y="527"/>
      <point x="545" y="539" type="curve"/>
      <point x="483" y="484" type="line"/>
      <point x="615" y="484" type="line"/>
      <point x="615" y="622" type="line"/>
      <point x="-7" y="622" type="line"/>
      <point x="-7" y="484" type="line"/>
      <point x="422" y="484" type="line"/>
      <point x="373" y="517" type="line"/>
      <point x="377" y="509"/>
      <point x="379" y="500"/>
      <point x="379" y="482" type="curve" smooth="yes"/>
      <point x="379" y="441"/>
      <point x="357" y="418"/>
      <point x="329" y="407" type="curve"/>
      <point x="287" y="422"/>
      <point x="238" y="429"/>
      <point x="200" y="429" type="curve" smooth="yes"/>
      <point x="116" y="429"/>
      <point x="74" y="393"/>
      <point x="74" y="340" type="curve" smooth="yes"/>
      <point x="74" y="287"/>
      <point x="111" y="248"/>
      <point x="214" y="248" type="curve" smooth="yes"/>
      <point x="262" y="248"/>
      <point x="309" y="255"/>
      <point x="345" y="269" type="curve"/>
      <point x="377" y="255"/>
      <point x="400" y="235"/>
      <point x="400" y="203" type="curve" smooth="yes"/>
      <point x="400" y="158"/>
      <point x="360" y="140"/>
      <point x="276" y="140" type="curve" smooth="yes"/>
      <point x="209" y="140"/>
      <point x="140" y="158"/>
      <point x="59" y="198" type="curve"/>
      <point x="12" y="64" type="line"/>
      <point x="82" y="26"/>
      <point x="192" y="0"/>
    </contour>
  </outline>
</glyph>
<glyph name="thaguru" format="2">
  <advance width="681"/>
  <unicode hex="0A25"/>
  <outline>
    <contour>
      <point x="434" y="0" type="line"/>
      <point x="611" y="0" type="line"/>
      <point x="611" y="484" type="line"/>
      <point x="688" y="484" type="line"/>
      <point x="688" y="622" type="line"/>
      <point x="179" y="622" type="line"/>
      <point x="185" y="484" type="line"/>
      <point x="434" y="484" type="line"/>
      <point x="434" y="252" type="line"/>
      <point x="455" y="288" type="line"/>
      <point x="419" y="265"/>
      <point x="381" y="248"/>
      <point x="329" y="248" type="curve" smooth="yes"/>
      <point x="271" y="248"/>
      <point x="232" y="278"/>
      <point x="209" y="334" type="curve"/>
      <point x="177" y="278" type="line"/>
      <point x="239" y="325"/>
      <point x="269" y="380"/>
      <point x="269" y="444" type="curve" smooth="yes"/>
      <point x="269" y="496"/>
      <point x="245" y="562"/>
      <point x="216" y="622" type="curve"/>
      <point x="-7" y="622" type="line"/>
      <point x="-7" y="484" type="line"/>
      <point x="81" y="484" type="line"/>
      <point x="89" y="467"/>
      <point x="92" y="450"/>
      <point x="92" y="434" type="curve" smooth="yes"/>
      <point x="92" y="387"/>
      <point x="66" y="359"/>
      <point x="25" y="330" type="curve"/>
      <point x="92" y="171"/>
      <point x="185" y="109"/>
      <point x="322" y="109" type="curve" smooth="yes"/>
      <point x="379" y="109"/>
      <point x="417" y="116"/>
      <point x="457" y="135" type="curve"/>
      <point x="434" y="145" type="line"/>
    </contour>
    <contour>
      <point x="172" y="307" type="line"/>
      <point x="500" y="307" type="line"/>
      <point x="500" y="428" type="line"/>
      <point x="150" y="428" type="line"/>
    </contour>
  </outline>
</glyph>
<glyph name="daguru" format="2">
  <advance width="673"/>
  <unicode hex="0A26"/>
  <outline>
    <contour>
      <point x="403" y="0" type="curve" smooth="yes"/>
      <point x="502" y="0"/>
      <point x="585" y="19"/>
      <point x="650" y="48" type="curve"/>
      <point x="594" y="181" type="line"/>
      <point x="527" y="153"/>
      <point x="482" y="139"/>
      <point x="411" y="139" type="curve" smooth="yes"/>
      <point x="313" y="139"/>
      <point x="272" y="174"/>
      <point x="258" y="244" type="curve"/>
      <point x="557" y="244" type="line"/>
      <point x="603" y="290" type="line"/>
      <point x="603" y="484" type="line"/>
      <point x="680" y="484" type="line"/>
      <point x="680" y="622" type="line"/>
      <point x="-7" y="622" type="line"/>
      <point x="-7" y="484" type="line"/>
      <point x="426" y="484" type="line"/>
      <point x="426" y="382" type="line"/>
      <point x="259" y="382" type="line"/>
      <point x="259" y="384" type="line" smooth="yes"/>
      <point x="259" y="423"/>
      <point x="237" y="453"/>
      <point x="180" y="453" type="curve" smooth="yes"/>
      <point x="100" y="453"/>
      <point x="13" y="369"/>
      <point x="13" y="305" type="curve" smooth="yes"/>
      <point x="13" y="262"/>
      <point x="40" y="242"/>
      <point x="80" y="242" type="curve" smooth="yes"/>
      <point x="82" y="242" type="line"/>
      <point x="84" y="241" type="line"/>
      <point x="94" y="98"/>
      <point x="192" y="0"/>
    </contour>
  </outline>
</glyph>
<glyph name="dhaguru" format="2">
  <advance width="676"/>
  <unicode hex="0A27"/>
  <outline>
    <contour>
      <point x="429" y="0" type="line"/>
      <point x="606" y="0" type="line"/>
      <point x="606" y="484" type="line"/>
      <point x="683" y="484" type="line"/>
      <point x="683" y="622" type="line"/>
      <point x="179" y="622" type="line"/>
      <point x="185" y="484" type="line"/>
      <point x="429" y="484" type="line"/>
      <point x="429" y="252" type="line"/>
      <point x="455" y="288" type="line"/>
      <point x="419" y="265"/>
      <point x="381" y="248"/>
      <point x="328" y="248" type="curve" smooth="yes"/>
      <point x="274" y="248"/>
      <point x="237" y="278"/>
      <point x="214" y="334" type="curve"/>
      <point x="182" y="278" type="line"/>
      <point x="244" y="325"/>
      <point x="269" y="381"/>
      <point x="269" y="445" type="curve" smooth="yes"/>
      <point x="269" y="497"/>
      <point x="245" y="562"/>
      <point x="216" y="622" type="curve"/>
      <point x="-7" y="622" type="line"/>
      <point x="-7" y="484" type="line"/>
      <point x="81" y="484" type="line"/>
      <point x="89" y="467"/>
      <point x="92" y="450"/>
      <point x="92" y="434" type="curve" smooth="yes"/>
      <point x="92" y="387"/>
      <point x="66" y="359"/>
      <point x="25" y="330" type="curve"/>
      <point x="92" y="171"/>
      <point x="185" y="109"/>
      <point x="322" y="109" type="curve" smooth="yes"/>
      <point x="379" y="109"/>
      <point x="417" y="116"/>
      <point x="457" y="135" type="curve"/>
      <point x="429" y="145" type="line"/>
    </contour>
  </outline>
</glyph>
<glyph name="naguru" format="2">
  <advance width="725"/>
  <unicode hex="0A28"/>
  <outline>
    <contour>
      <point x="296" y="0" type="curve"/>
      <point x="304" y="141" type="line"/>
      <point x="240" y="141"/>
      <point x="202" y="154"/>
      <point x="202" y="199" type="curve" smooth="yes"/>
      <point x="202" y="249"/>
      <point x="264" y="284"/>
      <point x="363" y="305" type="curve"/>
      <point x="461" y="284"/>
      <point x="523" y="245"/>
      <point x="523" y="199" type="curve" smooth="yes"/>
      <point x="523" y="154"/>
      <point x="485" y="141"/>
      <point x="421" y="141" type="curve"/>
      <point x="429" y="0" type="line"/>
      <point x="625" y="0"/>
      <point x="700" y="88"/>
      <point x="700" y="195" type="curve" smooth="yes"/>
      <point x="700" y="312"/>
      <point x="606" y="388"/>
      <point x="451" y="427" type="curve"/>
      <point x="451" y="484" type="line"/>
      <point x="732" y="484" type="line"/>
      <point x="732" y="622" type="line"/>
      <point x="-7" y="622" type="line"/>
      <point x="-7" y="484" type="line"/>
      <point x="274" y="484" type="line"/>
      <point x="274" y="427" type="line"/>
      <point x="119" y="388"/>
      <point x="25" y="312"/>
      <point x="25" y="195" type="curve" smooth="yes"/>
      <point x="25" y="88"/>
      <point x="100" y="0"/>
    </contour>
  </outline>
</glyph>
<glyph name="phaguru" format="2">
  <advance width="658"/>
  <unicode hex="0A2B"/>
  <outline>
    <contour>
      <point x="381" y="0" type="curve" smooth="yes"/>
      <point x="503" y="0"/>
      <point x="631" y="28"/>
      <point x="631" y="142" type="curve" smooth="yes"/>
      <point x="631" y="213"/>
      <point x="581" y="270"/>
      <point x="452" y="270" type="curve" smooth="yes"/>
      <point x="314" y="270"/>
      <point x="223" y="209"/>
      <point x="144" y="118" type="curve"/>
      <point x="254" y="70" type="line"/>
      <point x="310" y="128"/>
      <point x="368" y="160"/>
      <point x="419" y="160" type="curve" smooth="yes"/>
      <point x="443" y="160"/>
      <point x="456" y="155"/>
      <point x="456" y="141" type="curve" smooth="yes"/>
      <point x="456" y="127"/>
      <point x="440" y="119"/>
      <point x="391" y="119" type="curve" smooth="yes"/>
      <point x="306" y="119"/>
      <point x="201" y="169"/>
      <point x="201" y="248" type="curve" smooth="yes"/>
      <point x="201" y="261"/>
      <point x="205" y="271"/>
      <point x="213" y="277" type="curve" smooth="yes"/>
      <point x="226" y="287"/>
      <point x="241" y="291"/>
      <point x="286" y="291" type="curve" smooth="yes"/>
      <point x="538" y="291" type="line"/>
      <point x="584" y="337" type="line"/>
      <point x="584" y="484" type="line"/>
      <point x="665" y="484" type="line"/>
      <point x="665" y="622" type="line"/>
      <point x="-7" y="622" type="line"/>
      <point x="-7" y="484" type="line"/>
      <point x="407" y="484" type="line"/>
      <point x="407" y="424" type="line"/>
      <point x="253" y="424" type="line" smooth="yes"/>
      <point x="163" y="424"/>
      <point x="119" y="410"/>
      <point x="81" y="381" type="curve" smooth="yes"/>
      <point x="47" y="355"/>
      <point x="25" y="318"/>
      <point x="25" y="268" type="curve" smooth="yes"/>
      <point x="25" y="96"/>
      <point x="185" y="0"/>
    </contour>
  </outline>
</glyph>
<glyph name="baguru" format="2">
  <advance width="690"/>
  <unicode hex="0A2C"/>
  <outline>
    <contour>
      <point x="28" y="242" type="curve"/>
      <point x="86" y="113"/>
      <point x="188" y="53"/>
      <point x="311" y="53" type="curve" smooth="yes"/>
      <point x="381" y="53"/>
      <point x="424" y="64"/>
      <point x="472" y="86" type="curve"/>
      <point x="465" y="235" type="line"/>
      <point x="427" y="206"/>
      <point x="386" y="191"/>
      <point x="325" y="191" type="curve" smooth="yes"/>
      <point x="259" y="191"/>
      <point x="220" y="225"/>
      <point x="199" y="281" type="curve"/>
      <point x="198" y="202" type="line"/>
      <point x="240" y="259"/>
      <point x="272" y="277"/>
      <point x="342" y="277" type="curve" smooth="yes"/>
      <point x="464" y="277" type="line"/>
      <point x="466" y="410" type="line"/>
      <point x="342" y="410" type="line" smooth="yes"/>
      <point x="282" y="410"/>
      <point x="260" y="416"/>
      <point x="243" y="431" type="curve" smooth="yes"/>
      <point x="229" y="443"/>
      <point x="223" y="465"/>
      <point x="223" y="490" type="curve"/>
      <point x="169" y="484" type="line"/>
      <point x="564" y="484" type="line"/>
      <point x="581" y="622" type="line"/>
      <point x="-7" y="622" type="line"/>
      <point x="-7" y="484" type="line"/>
      <point x="83" y="484" type="line"/>
      <point x="46" y="498" type="line"/>
      <point x="46" y="398"/>
      <point x="106" y="342"/>
      <point x="185" y="324" type="curve"/>
      <point x="204" y="367" type="line"/>
      <point x="128" y="352"/>
      <point x="70" y="306"/>
    </contour>
    <contour>
      <point x="443" y="0" type="line"/>
      <point x="620" y="0" type="line"/>
      <point x="620" y="484" type="line"/>
      <point x="697" y="484" type="line"/>
      <point x="697" y="622" type="line"/>
      <point x="352" y="622" type="line"/>
      <point x="352" y="484" type="line"/>
      <point x="443" y="484" type="line"/>
    </contour>
  </outline>
</glyph>
<glyph name="bhaguru" format="2">
  <advance width="652"/>
  <unicode hex="0A2D"/>
  <outline>
    <contour>
      <point x="300" y="0" type="curve" smooth="yes"/>
      <point x="500" y="0"/>
      <point x="610" y="68"/>
      <point x="610" y="205" type="curve" smooth="yes"/>
      <point x="610" y="275"/>
      <point x="576" y="336"/>
      <point x="511" y="382" type="curve"/>
      <point x="483" y="389" type="line"/>
      <point x="419" y="438"/>
      <point x="347" y="460"/>
      <point x="260" y="460" type="curve" smooth="yes"/>
      <point x="117" y="460"/>
      <point x="53" y="402"/>
      <point x="53" y="324" type="curve" smooth="yes"/>
      <point x="53" y="241"/>
      <point x="119" y="183"/>
      <point x="269" y="183" type="curve" smooth="yes"/>
      <point x="367" y="183"/>
      <point x="434" y="210"/>
      <point x="491" y="256" type="curve"/>
      <point x="521" y="271" type="line"/>
      <point x="579" y="323"/>
      <point x="601" y="382"/>
      <point x="601" y="437" type="curve" smooth="yes"/>
      <point x="601" y="469"/>
      <point x="595" y="499"/>
      <point x="584" y="523" type="curve"/>
      <point x="539" y="484" type="line"/>
      <point x="659" y="484" type="line"/>
      <point x="659" y="622" type="line"/>
      <point x="-7" y="622" type="line"/>
      <point x="-7" y="484" type="line"/>
      <point x="485" y="484" type="line"/>
      <point x="392" y="540" type="line"/>
      <point x="418" y="500"/>
      <point x="426" y="469"/>
      <point x="426" y="424" type="curve" smooth="yes"/>
      <point x="426" y="352"/>
      <point x="373" y="301"/>
      <point x="271" y="301" type="curve" smooth="yes"/>
      <point x="246" y="301"/>
      <point x="227" y="306"/>
      <point x="227" y="321" type="curve" smooth="yes"/>
      <point x="227" y="337"/>
      <point x="246" y="342"/>
      <point x="272" y="342" type="curve" smooth="yes"/>
      <point x="354" y="342"/>
      <point x="438" y="299"/>
      <point x="438" y="220" type="curve" smooth="yes"/>
      <point x="438" y="169"/>
      <point x="397" y="138"/>
      <point x="284" y="138" type="curve" smooth="yes"/>
      <point x="216" y="138"/>
      <point x="141" y="157"/>
      <point x="59" y="201" type="curve"/>
      <point x="12" y="66" type="line"/>
      <point x="95" y="23"/>
      <point x="199" y="0"/>
    </contour>
  </outline>
</glyph>
<glyph name="maguru" format="2">
  <advance width="665"/>
  <unicode hex="0A2E"/>
  <outline>
    <contour>
      <point x="418" y="0" type="line"/>
      <point x="595" y="0" type="line"/>
      <point x="595" y="484" type="line"/>
      <point x="672" y="484" type="line"/>
      <point x="672" y="622" type="line"/>
      <point x="418" y="622" type="line"/>
      <point x="418" y="335" type="line"/>
      <point x="265" y="335" type="line"/>
      <point x="264" y="413"/>
      <point x="232" y="541"/>
      <point x="195" y="622" type="curve"/>
      <point x="-7" y="622" type="line"/>
      <point x="-7" y="484" type="line"/>
      <point x="51" y="484" type="line"/>
      <point x="73" y="435"/>
      <point x="92" y="347"/>
      <point x="97" y="285" type="curve"/>
      <point x="49" y="235"/>
      <point x="32" y="195"/>
      <point x="32" y="146" type="curve" smooth="yes"/>
      <point x="32" y="95"/>
      <point x="59" y="50"/>
      <point x="130" y="50" type="curve" smooth="yes"/>
      <point x="206" y="50"/>
      <point x="257" y="99"/>
      <point x="263" y="197" type="curve"/>
      <point x="418" y="197" type="line"/>
    </contour>
  </outline>
</glyph>
<glyph name="yaguru" format="2">
  <advance width="809"/>
  <unicode hex="0A2F"/>
  <outline>
    <contour>
      <point x="562" y="0" type="line"/>
      <point x="739" y="0" type="line"/>
      <point x="739" y="484" type="line"/>
      <point x="816" y="484" type="line"/>
      <point x="816" y="622" type="line"/>
      <point x="-7" y="622" type="line"/>
      <point x="-7" y="484" type="line"/>
      <point x="81" y="484" type="line"/>
      <point x="89" y="467"/>
      <point x="92" y="450"/>
      <point x="92" y="432" type="curve" smooth="yes"/>
      <point x="92" y="381"/>
      <point x="66" y="353"/>
      <point x="25" y="324" type="curve"/>
      <point x="97" y="160"/>
      <point x="185" y="97"/>
      <point x="322" y="97" type="curve" smooth="yes"/>
      <point x="391" y="97"/>
      <point x="438" y="104"/>
      <point x="498" y="125" type="curve"/>
      <point x="498" y="237" type="line"/>
      <point x="562" y="237" type="line"/>
    </contour>
    <contour>
      <point x="328" y="374" type="line"/>
      <point x="328" y="233" type="line"/>
      <point x="327" y="233"/>
      <point x="325" y="233"/>
      <point x="325" y="233" type="curve" smooth="yes"/>
      <point x="274" y="233"/>
      <point x="239" y="267"/>
      <point x="214" y="328" type="curve"/>
      <point x="182" y="272" type="line"/>
      <point x="244" y="319"/>
      <point x="269" y="374"/>
      <point x="269" y="443" type="curve" smooth="yes"/>
      <point x="269" y="459"/>
      <point x="267" y="472"/>
      <point x="265" y="484" type="curve"/>
      <point x="562" y="484" type="line"/>
      <point x="562" y="374" type="line"/>
    </contour>
  </outline>
</glyph>
<glyph name="raguru" format="2">
  <advance width="649"/>
  <unicode hex="0A30"/>
  <outline>
    <contour>
      <point x="353" y="0" type="curve" smooth="yes"/>
      <point x="508" y="0"/>
      <point x="579" y="52"/>
      <point x="579" y="193" type="curve" smooth="yes"/>
      <point x="579" y="484" type="line"/>
      <point x="656" y="484" type="line"/>
      <point x="656" y="622" type="line"/>
      <point x="-7" y="622" type="line"/>
      <point x="-7" y="484" type="line"/>
      <point x="405" y="484" type="line"/>
      <point x="405" y="425" type="line"/>
      <point x="271" y="425" type="line" smooth="yes"/>
      <point x="167" y="425"/>
      <point x="112" y="408"/>
      <point x="72" y="373" type="curve" smooth="yes"/>
      <point x="44" y="348"/>
      <point x="25" y="311.992"/>
      <point x="25" y="265" type="curve" smooth="yes"/>
      <point x="25" y="112"/>
      <point x="179" y="0"/>
    </contour>
    <contour>
      <point x="344" y="139" type="curve" smooth="yes"/>
      <point x="283" y="139"/>
      <point x="203" y="191"/>
      <point x="203" y="246" type="curve" smooth="yes"/>
      <point x="203" y="258"/>
      <point x="206" y="267"/>
      <point x="214" y="274" type="curve" smooth="yes"/>
      <point x="224" y="282"/>
      <point x="234" y="287"/>
      <point x="271" y="287" type="curve" smooth="yes"/>
      <point x="402" y="287" type="line"/>
      <point x="402" y="203" type="line" smooth="yes"/>
      <point x="402" y="172"/>
      <point x="399" y="159"/>
      <point x="391" y="151" type="curve" smooth="yes"/>
      <point x="382" y="142"/>
      <point x="369" y="139"/>
    </contour>
  </outline>
</glyph>
<glyph name="laguru" format="2">
  <advance width="752"/>
  <unicode hex="0A32"/>
  <guideline x="376" y="243" angle="90"/>
  <outline>
    <contour>
      <point x="376" y="214" type="curve"/>
      <point x="510" y="251"/>
      <point x="618" y="387"/>
      <point x="640" y="484" type="curve"/>
      <point x="759" y="484" type="line"/>
      <point x="759" y="622" type="line"/>
      <point x="-7" y="622" type="line"/>
      <point x="-7" y="484" type="line"/>
      <point x="109" y="484" type="line"/>
      <point x="137" y="381"/>
      <point x="243" y="258"/>
    </contour>
    <contour>
      <point x="455" y="484" type="line"/>
      <point x="439" y="428"/>
      <point x="397" y="380"/>
      <point x="322" y="350" type="curve"/>
      <point x="430" y="350" type="line"/>
      <point x="350" y="383"/>
      <point x="308" y="430"/>
      <point x="293" y="484" type="curve"/>
    </contour>
    <contour>
      <point x="25" y="194" type="curve" smooth="yes"/>
      <point x="25" y="88"/>
      <point x="100" y="0"/>
      <point x="297" y="0" type="curve" smooth="yes"/>
      <point x="313" y="0" type="line"/>
      <point x="322" y="141" type="line"/>
      <point x="304" y="141" type="line" smooth="yes"/>
      <point x="240" y="141"/>
      <point x="202" y="154"/>
      <point x="202" y="198" type="curve" smooth="yes"/>
      <point x="202" y="241"/>
      <point x="244" y="272"/>
      <point x="322" y="296" type="curve"/>
      <point x="221" y="411" type="line"/>
      <point x="82" y="361"/>
      <point x="25" y="290"/>
    </contour>
    <contour>
      <point x="727" y="194" type="curve" smooth="yes"/>
      <point x="727" y="290"/>
      <point x="670" y="361"/>
      <point x="531" y="411" type="curve"/>
      <point x="430" y="296" type="line"/>
      <point x="508" y="272"/>
      <point x="550" y="241"/>
      <point x="550" y="198" type="curve" smooth="yes"/>
      <point x="550" y="154"/>
      <point x="512" y="141"/>
      <point x="448" y="141" type="curve" smooth="yes"/>
      <point x="430" y="141" type="line"/>
      <point x="439" y="0" type="line"/>
      <point x="455" y="0" type="line" smooth="yes"/>
      <point x="652" y="0"/>
      <point x="727" y="88"/>
    </contour>
  </outline>
</glyph>
<glyph name="vaguru" format="2">
  <advance width="618"/>
  <unicode hex="0A35"/>
  <outline>
    <contour>
      <point x="552" y="170" type="line"/>
      <point x="552" y="287" type="line"/>
      <point x="265" y="287" type="line" smooth="yes"/>
      <point x="234" y="287"/>
      <point x="222" y="289"/>
      <point x="214" y="293" type="curve" smooth="yes"/>
      <point x="207" y="297"/>
      <point x="205" y="302"/>
      <point x="205" y="308" type="curve" smooth="yes"/>
      <point x="205" y="314"/>
      <point x="207" y="319"/>
      <point x="212" y="322" type="curve" smooth="yes"/>
      <point x="216" y="325"/>
      <point x="222" y="327"/>
      <point x="244" y="327" type="curve" smooth="yes"/>
      <point x="512" y="327" type="line"/>
      <point x="548" y="362" type="line"/>
      <point x="548" y="484" type="line"/>
      <point x="625" y="484" type="line"/>
      <point x="625" y="622" type="line"/>
      <point x="-7" y="622" type="line"/>
      <point x="-7" y="484" type="line"/>
      <point x="376" y="484" type="line"/>
      <point x="376" y="446" type="line"/>
      <point x="244" y="446" type="line" smooth="yes"/>
      <point x="167" y="446"/>
      <point x="128" y="439"/>
      <point x="92" y="421" type="curve" smooth="yes"/>
      <point x="52" y="401"/>
      <point x="25" y="368"/>
      <point x="25" y="313" type="curve" smooth="yes"/>
      <point x="25" y="255"/>
      <point x="57" y="217"/>
      <point x="109" y="195" type="curve" smooth="yes"/>
      <point x="155" y="175"/>
      <point x="202" y="170"/>
      <point x="275" y="170" type="curve" smooth="yes"/>
    </contour>
    <contour>
      <point x="344" y="0" type="curve" smooth="yes"/>
      <point x="438" y="0"/>
      <point x="506" y="11"/>
      <point x="567" y="26" type="curve"/>
      <point x="540" y="147" type="line"/>
      <point x="480" y="131"/>
      <point x="421" y="123"/>
      <point x="370" y="123" type="curve" smooth="yes"/>
      <point x="316" y="123"/>
      <point x="285" y="128"/>
      <point x="285" y="150" type="curve" smooth="yes"/>
      <point x="285" y="157"/>
      <point x="288" y="162"/>
      <point x="293" y="165" type="curve" smooth="yes"/>
      <point x="299" y="169"/>
      <point x="309" y="170"/>
      <point x="325" y="170" type="curve" smooth="yes"/>
      <point x="339" y="170" type="line"/>
      <point x="178" y="237" type="line"/>
      <point x="147" y="216"/>
      <point x="108" y="186"/>
      <point x="108" y="135" type="curve" smooth="yes"/>
      <point x="108" y="43"/>
      <point x="191" y="0"/>
    </contour>
  </outline>
</glyph>
<glyph name="sanuktaguru" format="2">
  <advance width="688"/>
  <unicode hex="0A36"/>
  <guideline x="76" y="484" angle="0"/>
  <outline>
    <contour>
      <point x="441" y="0" type="line"/>
      <point x="618" y="0" type="line"/>
      <point x="618" y="484" type="line"/>
      <point x="695" y="484" type="line"/>
      <point x="695" y="622" type="line"/>
      <point x="-7" y="622" type="line"/>
      <point x="-7" y="484" type="line"/>
      <point x="51" y="484" type="line"/>
      <point x="73" y="435"/>
      <point x="92" y="347"/>
      <point x="97" y="291" type="curve"/>
      <point x="49" y="241"/>
      <point x="32" y="201"/>
      <point x="32" y="155" type="curve" smooth="yes"/>
      <point x="32" y="105"/>
      <point x="60" y="61"/>
      <point x="130" y="61" type="curve" smooth="yes"/>
      <point x="207" y="61"/>
      <point x="253" y="108"/>
      <point x="263" y="203" type="curve"/>
      <point x="441" y="203" type="line"/>
    </contour>
    <contour>
      <point x="265" y="341" type="line"/>
      <point x="265" y="375"/>
      <point x="250" y="447"/>
      <point x="236" y="484" type="curve"/>
      <point x="441" y="484" type="line"/>
      <point x="441" y="341" type="line"/>
    </contour>
    <contour>
      <point x="334" y="-8" type="curve" smooth="yes"/>
      <point x="386" y="-8"/>
      <point x="415" y="24"/>
      <point x="415" y="72" type="curve" smooth="yes"/>
      <point x="415" y="119"/>
      <point x="386" y="151"/>
      <point x="334" y="151" type="curve" smooth="yes"/>
      <point x="281" y="151"/>
      <point x="251" y="119"/>
      <point x="251" y="72" type="curve" smooth="yes"/>
      <point x="251" y="24"/>
      <point x="281" y="-8"/>
    </contour>
  </outline>
</glyph>
<glyph name="saguru" format="2">
  <advance width="671"/>
  <unicode hex="0A38"/>
  <outline>
    <contour>
      <point x="424" y="0" type="line"/>
      <point x="601" y="0" type="line"/>
      <point x="601" y="484" type="line"/>
      <point x="678" y="484" type="line"/>
      <point x="678" y="622" type="line"/>
      <point x="-7" y="622" type="line"/>
      <point x="-7" y="484" type="line"/>
      <point x="51" y="484" type="line"/>
      <point x="73" y="435"/>
      <point x="92" y="347"/>
      <point x="97" y="285" type="curve"/>
      <point x="49" y="235"/>
      <point x="32" y="195"/>
      <point x="32" y="146" type="curve" smooth="yes"/>
      <point x="32" y="95"/>
      <point x="60" y="50"/>
      <point x="130" y="50" type="curve" smooth="yes"/>
      <point x="207" y="50"/>
      <point x="257" y="100"/>
      <point x="263" y="197" type="curve"/>
      <point x="424" y="197" type="line"/>
    </contour>
    <contour>
      <point x="265" y="335" type="line"/>
      <point x="265" y="372"/>
      <point x="250" y="447"/>
      <point x="236" y="484" type="curve"/>
      <point x="424" y="484" type="line"/>
      <point x="424" y="335" type="line"/>
    </contour>
  </outline>
</glyph>
<glyph name="haguru" format="2">
  <advance width="645"/>
  <unicode hex="0A39"/>
  <outline>
    <contour>
      <point x="352" y="0" type="curve" smooth="yes"/>
      <point x="504" y="0"/>
      <point x="575" y="52"/>
      <point x="575" y="191" type="curve" smooth="yes"/>
      <point x="575" y="484" type="line"/>
      <point x="652" y="484" type="line"/>
      <point x="652" y="622" type="line"/>
      <point x="-7" y="622" type="line"/>
      <point x="-7" y="484" type="line"/>
      <point x="398" y="484" type="line"/>
      <point x="398" y="203" type="line" smooth="yes"/>
      <point x="398" y="172"/>
      <point x="395" y="159"/>
      <point x="387" y="151" type="curve" smooth="yes"/>
      <point x="378" y="142"/>
      <point x="365" y="139"/>
      <point x="343" y="139" type="curve" smooth="yes"/>
      <point x="283" y="139"/>
      <point x="203" y="191"/>
      <point x="203" y="246" type="curve" smooth="yes"/>
      <point x="203" y="274"/>
      <point x="221" y="287"/>
      <point x="262" y="287" type="curve" smooth="yes"/>
      <point x="273" y="287"/>
      <point x="286" y="286"/>
      <point x="295" y="285" type="curve"/>
      <point x="302" y="423" type="line"/>
      <point x="290" y="425"/>
      <point x="273" y="427"/>
      <point x="245" y="427" type="curve" smooth="yes"/>
      <point x="120" y="427"/>
      <point x="25" y="378"/>
      <point x="25" y="265" type="curve" smooth="yes"/>
      <point x="25" y="112"/>
      <point x="179" y="0"/>
    </contour>
  </outline>
</glyph>
<glyph name="nuktaguru" format="2">
  <unicode hex="0A3C"/>
  <outline>
    <contour>
      <point x="-283" y="-214" type="curve" smooth="yes"/>
      <point x="-228" y="-214"/>
      <point x="-197" y="-182"/>
      <point x="-197" y="-134" type="curve" smooth="yes"/>
      <point x="-197" y="-87"/>
      <point x="-228" y="-55"/>
      <point x="-283" y="-55" type="curve" smooth="yes"/>
      <point x="-338" y="-55"/>
      <point x="-370" y="-87"/>
      <point x="-370" y="-134" type="curve" smooth="yes"/>
      <point x="-370" y="-182"/>
      <point x="-338" y="-214"/>
    </contour>
  </outline>
</glyph>
<glyph name="aamatraguru" format="2">
  <advance width="288"/>
  <unicode hex="0A3E"/>
  <outline>
    <contour>
      <point x="53" y="242" type="line"/>
      <point x="230" y="242" type="line"/>
      <point x="230" y="484" type="line"/>
      <point x="295" y="484" type="line"/>
      <point x="295" y="622" type="line"/>
      <point x="-7" y="622" type="line"/>
      <point x="-7" y="484" type="line"/>
      <point x="53" y="484" type="line"/>
    </contour>
  </outline>
</glyph>
<glyph name="imatraguru" format="2">
  <advance width="317"/>
  <unicode hex="0A3F"/>
  <outline>
    <contour>
      <point x="70" y="0" type="line"/>
      <point x="247" y="0" type="line"/>
      <point x="247" y="484" type="line"/>
      <point x="324" y="484" type="line"/>
      <point x="324" y="622" type="line"/>
      <point x="247" y="622" type="line"/>
      <point x="247" y="635" type="line" smooth="yes"/>
      <point x="247" y="722"/>
      <point x="272" y="759"/>
      <point x="331" y="759" type="curve" smooth="yes"/>
      <point x="375" y="759"/>
      <point x="397" y="728"/>
      <point x="397" y="694" type="curve" smooth="yes"/>
      <point x="397" y="679"/>
      <point x="396" y="669"/>
      <point x="394" y="660" type="curve"/>
      <point x="566" y="651" type="line"/>
      <point x="570" y="668"/>
      <point x="572" y="687"/>
      <point x="572" y="700" type="curve" smooth="yes"/>
      <point x="572" y="834"/>
      <point x="471" y="896"/>
      <point x="329" y="896" type="curve" smooth="yes"/>
      <point x="161" y="896"/>
      <point x="70" y="808"/>
      <point x="70" y="644" type="curve" smooth="yes"/>
      <point x="70" y="622" type="line"/>
      <point x="-7" y="622" type="line"/>
      <point x="-7" y="484" type="line"/>
      <point x="70" y="484" type="line"/>
    </contour>
  </outline>
</glyph>
<glyph name="iimatraguru" format="2">
  <advance width="317"/>
  <unicode hex="0A40"/>
  <outline>
    <contour>
      <point x="70" y="0" type="line"/>
      <point x="247" y="0" type="line"/>
      <point x="247" y="484" type="line"/>
      <point x="324" y="484" type="line"/>
      <point x="324" y="622" type="line"/>
      <point x="247" y="622" type="line"/>
      <point x="247" y="641" type="line" smooth="yes"/>
      <point x="247" y="806"/>
      <point x="158" y="896"/>
      <point x="-8" y="896" type="curve" smooth="yes"/>
      <point x="-153" y="896"/>
      <point x="-255" y="837"/>
      <point x="-255" y="700" type="curve" smooth="yes"/>
      <point x="-255" y="687"/>
      <point x="-253" y="668"/>
      <point x="-249" y="651" type="curve"/>
      <point x="-77" y="660" type="line"/>
      <point x="-79" y="669"/>
      <point x="-80" y="679"/>
      <point x="-80" y="694" type="curve" smooth="yes"/>
      <point x="-80" y="728"/>
      <point x="-58" y="759"/>
      <point x="-8" y="759" type="curve" smooth="yes"/>
      <point x="45" y="759"/>
      <point x="70" y="722"/>
      <point x="70" y="635" type="curve" smooth="yes"/>
      <point x="70" y="622" type="line"/>
      <point x="-7" y="622" type="line"/>
      <point x="-7" y="484" type="line"/>
      <point x="70" y="484" type="line"/>
    </contour>
  </outline>
</glyph>
<glyph name="umatraguru" format="2">
  <unicode hex="0A41"/>
  <guideline x="-562" y="-88" angle="90"/>
  <guideline x="-101" y="-116" angle="90"/>
  <outline>
    <contour>
      <point x="-332" y="-212" type="curve" smooth="yes"/>
      <point x="-222" y="-212"/>
      <point x="-153" y="-186"/>
      <point x="-101" y="-159" type="curve"/>
      <point x="-146" y="-40" type="line"/>
      <point x="-194" y="-65"/>
      <point x="-252" y="-82"/>
      <point x="-332" y="-82" type="curve" smooth="yes"/>
      <point x="-412" y="-82"/>
      <point x="-470" y="-65"/>
      <point x="-517" y="-40" type="curve"/>
      <point x="-562" y="-159" type="line"/>
      <point x="-510" y="-186"/>
      <point x="-438" y="-212"/>
    </contour>
  </outline>
</glyph>
<glyph name="uumatraguru" format="2">
  <unicode hex="0A42"/>
  <outline>
    <contour>
      <point x="-336" y="-172" type="curve" smooth="yes"/>
      <point x="-248" y="-172"/>
      <point x="-167" y="-149"/>
      <point x="-104" y="-115" type="curve"/>
      <point x="-143" y="-19" type="line"/>
      <point x="-199" y="-48"/>
      <point x="-265" y="-63"/>
      <point x="-333" y="-63" type="curve" smooth="yes"/>
      <point x="-398" y="-63"/>
      <point x="-466" y="-48"/>
      <point x="-520" y="-19" type="curve"/>
      <point x="-559" y="-115" type="line"/>
      <point x="-499" y="-148"/>
      <point x="-421" y="-172"/>
    </contour>
    <contour>
      <point x="-336" y="-319" type="curve" smooth="yes"/>
      <point x="-250" y="-319"/>
      <point x="-164" y="-302"/>
      <point x="-104" y="-268" type="curve"/>
      <point x="-140" y="-172" type="line"/>
      <point x="-200" y="-200"/>
      <point x="-258" y="-210"/>
      <point x="-332" y="-210" type="curve" smooth="yes"/>
      <point x="-403" y="-210"/>
      <point x="-460" y="-199"/>
      <point x="-521" y="-172" type="curve"/>
      <point x="-559" y="-268" type="line"/>
      <point x="-500" y="-301"/>
      <point x="-418" y="-319"/>
    </contour>
  </outline>
</glyph>
<glyph name="eematraguru" format="2">
  <unicode hex="0A47"/>
  <outline>
    <contour>
      <point x="-246" y="615" type="curve"/>
      <point x="-81" y="615" type="line"/>
      <point x="-132" y="828"/>
      <point x="-244" y="896"/>
      <point x="-394" y="896" type="curve" smooth="yes"/>
      <point x="-412" y="896"/>
      <point x="-430" y="895"/>
      <point x="-442" y="894" type="curve"/>
      <point x="-433" y="744" type="line"/>
      <point x="-425" y="745"/>
      <point x="-415" y="746"/>
      <point x="-405" y="746" type="curve" smooth="yes"/>
      <point x="-329" y="746"/>
      <point x="-277" y="708"/>
    </contour>
  </outline>
</glyph>
<glyph name="aimatraguru" format="2">
  <unicode hex="0A48"/>
  <outline>
    <contour>
      <point x="-169" y="610" type="curve"/>
      <point x="-63" y="615" type="line"/>
      <point x="-88" y="810"/>
      <point x="-181" y="896"/>
      <point x="-346" y="896" type="curve" smooth="yes"/>
      <point x="-367" y="896"/>
      <point x="-382" y="896"/>
      <point x="-388" y="896" type="curve"/>
      <point x="-384" y="783" type="line"/>
      <point x="-375" y="783"/>
      <point x="-365" y="783"/>
      <point x="-360" y="783" type="curve" smooth="yes"/>
      <point x="-270" y="783"/>
      <point x="-203" y="737"/>
    </contour>
    <contour>
      <point x="-205" y="563" type="curve"/>
      <point x="-143" y="594" type="line"/>
      <point x="-215" y="730"/>
      <point x="-302" y="761"/>
      <point x="-410" y="761" type="curve" smooth="yes"/>
      <point x="-422" y="761"/>
      <point x="-429" y="760"/>
      <point x="-440" y="759" type="curve"/>
      <point x="-434" y="651" type="line"/>
      <point x="-425" y="652"/>
      <point x="-418" y="652"/>
      <point x="-407" y="652" type="curve" smooth="yes"/>
      <point x="-326" y="652"/>
      <point x="-263" y="638"/>
    </contour>
  </outline>
</glyph>
<glyph name="oomatraguru" format="2">
  <unicode hex="0A4B"/>
  <outline>
    <contour>
      <point x="-239" y="615" type="curve"/>
      <point x="-79" y="615" type="line"/>
      <point x="-79" y="758"/>
      <point x="-132" y="837"/>
      <point x="-248" y="837" type="curve" smooth="yes"/>
      <point x="-287" y="837"/>
      <point x="-309" y="832"/>
      <point x="-336" y="832" type="curve" smooth="yes"/>
      <point x="-366" y="832"/>
      <point x="-379" y="847"/>
      <point x="-393" y="896" type="curve"/>
      <point x="-540" y="855" type="line"/>
      <point x="-510" y="734"/>
      <point x="-462" y="690"/>
      <point x="-374" y="690" type="curve" smooth="yes"/>
      <point x="-344" y="690"/>
      <point x="-316" y="694"/>
      <point x="-293" y="694" type="curve" smooth="yes"/>
      <point x="-260" y="694"/>
      <point x="-246" y="679"/>
    </contour>
  </outline>
</glyph>
<glyph name="aumatraguru" format="2">
  <unicode hex="0A4C"/>
  <outline>
    <contour>
      <point x="-317" y="659" type="curve"/>
      <point x="-179" y="682" type="line"/>
      <point x="-187" y="701"/>
      <point x="-192" y="717"/>
      <point x="-192" y="734" type="curve" smooth="yes"/>
      <point x="-192" y="760"/>
      <point x="-175" y="773"/>
      <point x="-153" y="773" type="curve" smooth="yes"/>
      <point x="-131" y="773"/>
      <point x="-117" y="759"/>
      <point x="-117" y="734" type="curve" smooth="yes"/>
      <point x="-117" y="717"/>
      <point x="-122" y="701"/>
      <point x="-130" y="682" type="curve"/>
      <point x="9" y="659" type="line"/>
      <point x="23" y="691"/>
      <point x="29" y="722"/>
      <point x="29" y="754" type="curve" smooth="yes"/>
      <point x="29" y="834"/>
      <point x="-37" y="888"/>
      <point x="-149" y="888" type="curve" smooth="yes"/>
      <point x="-271" y="888"/>
      <point x="-338" y="835"/>
      <point x="-338" y="754" type="curve" smooth="yes"/>
      <point x="-338" y="720"/>
      <point x="-329" y="684"/>
    </contour>
    <contour>
      <point x="-338" y="740" type="curve" smooth="yes"/>
      <point x="-310" y="740"/>
      <point x="-273" y="751"/>
      <point x="-245" y="766" type="curve"/>
      <point x="-265" y="865" type="line"/>
      <point x="-285" y="854"/>
      <point x="-295" y="852"/>
      <point x="-312" y="852" type="curve" smooth="yes"/>
      <point x="-336" y="852"/>
      <point x="-354" y="858"/>
      <point x="-368" y="896" type="curve"/>
      <point x="-510" y="856" type="line"/>
      <point x="-481" y="769"/>
      <point x="-435" y="740"/>
    </contour>
  </outline>
</glyph>
<glyph name="halantguru" format="2">
  <unicode hex="0A4D"/>
  <outline>
    <contour>
      <point x="-70" y="-271" type="curve"/>
      <point x="73" y="-228" type="line"/>
      <point x="21" y="-101"/>
      <point x="-57" y="-17"/>
      <point x="-219" y="-17" type="curve" smooth="yes"/>
      <point x="-229" y="-17"/>
      <point x="-244" y="-18"/>
      <point x="-259" y="-19" type="curve"/>
      <point x="-250" y="-168" type="line"/>
      <point x="-241" y="-167"/>
      <point x="-233" y="-167"/>
      <point x="-226" y="-167" type="curve" smooth="yes"/>
      <point x="-161" y="-167"/>
      <point x="-115" y="-185"/>
    </contour>
  </outline>
</glyph>
<glyph name="udaatguru" format="2">
  <unicode hex="0A51"/>
  <outline>
    <contour>
      <point x="93" y="-322" type="curve"/>
      <point x="105" y="-173" type="line"/>
      <point x="98" y="-174"/>
      <point x="91" y="-174"/>
      <point x="84" y="-174" type="curve" smooth="yes"/>
      <point x="7" y="-174"/>
      <point x="-45" y="-152"/>
      <point x="-84" y="-24" type="curve"/>
      <point x="-236" y="-69" type="line"/>
      <point x="-185" y="-254"/>
      <point x="-80" y="-324"/>
      <point x="67" y="-324" type="curve" smooth="yes"/>
      <point x="79" y="-324"/>
      <point x="86" y="-323"/>
    </contour>
  </outline>
</glyph>
<glyph name="januktaguru" format="2">
  <advance width="720"/>
  <unicode hex="0A5B"/>
  <outline>
    <contour>
      <point x="88" y="0" type="line"/>
      <point x="265" y="0" type="line"/>
      <point x="265" y="223" type="line"/>
      <point x="473" y="223" type="line"/>
      <point x="473" y="0" type="line"/>
      <point x="650" y="0" type="line"/>
      <point x="650" y="484" type="line"/>
      <point x="727" y="484" type="line"/>
      <point x="727" y="622" type="line"/>
      <point x="-7" y="622" type="line"/>
      <point x="-7" y="484" type="line"/>
      <point x="473" y="484" type="line"/>
      <point x="473" y="361" type="line"/>
      <point x="263" y="361" type="line"/>
      <point x="263" y="363" type="line" smooth="yes"/>
      <point x="263" y="402"/>
      <point x="241" y="432"/>
      <point x="184" y="432" type="curve" smooth="yes"/>
      <point x="104" y="432"/>
      <point x="17" y="348"/>
      <point x="17" y="284" type="curve" smooth="yes"/>
      <point x="17" y="241"/>
      <point x="44" y="221"/>
      <point x="84" y="221" type="curve" smooth="yes"/>
      <point x="88" y="221" type="line"/>
    </contour>
    <contour>
      <point x="370" y="-8" type="curve" smooth="yes"/>
      <point x="422" y="-8"/>
      <point x="451" y="24"/>
      <point x="451" y="72" type="curve" smooth="yes"/>
      <point x="451" y="119"/>
      <point x="422" y="151"/>
      <point x="370" y="151" type="curve" smooth="yes"/>
      <point x="317" y="151"/>
      <point x="287" y="119"/>
      <point x="287" y="72" type="curve" smooth="yes"/>
      <point x="287" y="24"/>
      <point x="317" y="-8"/>
    </contour>
  </outline>
</glyph>
<glyph name="rraguru" format="2">
  <advance width="636"/>
  <unicode hex="0A5C"/>
  <outline>
    <contour>
      <point x="316" y="58" type="curve" smooth="yes"/>
      <point x="502" y="58"/>
      <point x="607" y="109"/>
      <point x="607" y="222" type="curve" smooth="yes"/>
      <point x="607" y="287"/>
      <point x="569" y="330"/>
      <point x="514" y="359" type="curve"/>
      <point x="573" y="389"/>
      <point x="583" y="438"/>
      <point x="583" y="475" type="curve" smooth="yes"/>
      <point x="583" y="496"/>
      <point x="580" y="517"/>
      <point x="571" y="536" type="curve"/>
      <point x="515" y="484" type="line"/>
      <point x="643" y="484" type="line"/>
      <point x="643" y="622" type="line"/>
      <point x="-7" y="622" type="line"/>
      <point x="-7" y="484" type="line"/>
      <point x="454" y="484" type="line"/>
      <point x="397" y="526" type="line"/>
      <point x="404" y="517"/>
      <point x="407" y="502"/>
      <point x="407" y="489" type="curve" smooth="yes"/>
      <point x="407" y="456"/>
      <point x="391" y="434"/>
      <point x="357" y="425" type="curve"/>
      <point x="311" y="441"/>
      <point x="266" y="447"/>
      <point x="228" y="447" type="curve" smooth="yes"/>
      <point x="144" y="447"/>
      <point x="102" y="411"/>
      <point x="102" y="358" type="curve" smooth="yes"/>
      <point x="102" y="305"/>
      <point x="139" y="266"/>
      <point x="242" y="266" type="curve" smooth="yes"/>
      <point x="290" y="266"/>
      <point x="337" y="273"/>
      <point x="373" y="287" type="curve"/>
      <point x="412" y="277"/>
      <point x="429" y="263"/>
      <point x="429" y="241" type="curve" smooth="yes"/>
      <point x="429" y="209"/>
      <point x="394" y="196"/>
      <point x="306" y="196" type="curve" smooth="yes"/>
      <point x="210" y="196"/>
      <point x="142" y="216"/>
      <point x="81" y="242" type="curve"/>
      <point x="14" y="130" type="line"/>
      <point x="174" y="84" type="line"/>
      <point x="223" y="68"/>
      <point x="268" y="58"/>
    </contour>
    <contour>
      <point x="114" y="-35" type="curve"/>
      <point x="262" y="18" type="line"/>
      <point x="222" y="92"/>
      <point x="170" y="150"/>
      <point x="125" y="183" type="curve"/>
      <point x="14" y="130" type="line"/>
      <point x="56" y="73"/>
      <point x="80" y="34"/>
    </contour>
    <contour>
      <point x="411" y="-35" type="curve"/>
      <point x="571" y="20" type="line"/>
      <point x="536" y="70"/>
      <point x="503" y="102"/>
      <point x="461" y="136" type="curve"/>
      <point x="408" y="100" type="line"/>
      <point x="309" y="104" type="line"/>
      <point x="352" y="56"/>
      <point x="375" y="26"/>
    </contour>
  </outline>
</glyph>
<glyph name="zeroguru" format="2">
  <advance width="598"/>
  <unicode hex="0A66"/>
  <outline>
    <contour>
      <point x="300" y="62" type="curve" smooth="yes"/>
      <point x="467" y="62"/>
      <point x="568" y="157"/>
      <point x="568" y="315" type="curve" smooth="yes"/>
      <point x="568" y="474"/>
      <point x="463" y="569"/>
      <point x="299" y="569" type="curve" smooth="yes"/>
      <point x="140" y="569"/>
      <point x="30" y="475"/>
      <point x="30" y="316" type="curve" smooth="yes"/>
      <point x="30" y="157"/>
      <point x="131" y="62"/>
    </contour>
    <contour>
      <point x="298" y="202" type="curve" smooth="yes"/>
      <point x="241" y="202"/>
      <point x="209" y="238"/>
      <point x="209" y="314" type="curve" smooth="yes"/>
      <point x="209" y="390"/>
      <point x="240" y="429"/>
      <point x="300" y="429" type="curve" smooth="yes"/>
      <point x="356" y="429"/>
      <point x="389" y="393"/>
      <point x="389" y="317" type="curve" smooth="yes"/>
      <point x="389" y="241"/>
      <point x="359" y="202"/>
    </contour>
  </outline>
</glyph>
<glyph name="oneguru" format="2">
  <advance width="598"/>
  <unicode hex="0A67"/>
  <outline>
    <contour>
      <point x="539" y="-9" type="curve"/>
      <point x="560" y="133" type="line"/>
      <point x="513" y="135"/>
      <point x="507" y="150"/>
      <point x="507" y="205" type="curve" smooth="yes"/>
      <point x="507" y="399" type="line" smooth="yes"/>
      <point x="507" y="509"/>
      <point x="475" y="554"/>
      <point x="432" y="586" type="curve" smooth="yes"/>
      <point x="394" y="614"/>
      <point x="339" y="632"/>
      <point x="270" y="632" type="curve" smooth="yes"/>
      <point x="105" y="632"/>
      <point x="37" y="536"/>
      <point x="37" y="443" type="curve" smooth="yes"/>
      <point x="37" y="320"/>
      <point x="109" y="254"/>
      <point x="245" y="254" type="curve" smooth="yes"/>
      <point x="311" y="254"/>
      <point x="355" y="265"/>
      <point x="401" y="297" type="curve"/>
      <point x="369" y="435" type="line"/>
      <point x="333" y="407"/>
      <point x="315" y="393"/>
      <point x="270" y="393" type="curve" smooth="yes"/>
      <point x="229" y="393"/>
      <point x="212" y="411"/>
      <point x="212" y="442" type="curve" smooth="yes"/>
      <point x="212" y="472"/>
      <point x="233" y="493"/>
      <point x="269" y="493" type="curve" smooth="yes"/>
      <point x="291" y="493"/>
      <point x="307" y="486"/>
      <point x="317" y="473" type="curve" smooth="yes"/>
      <point x="328" y="459"/>
      <point x="330" y="440"/>
      <point x="330" y="414" type="curve" smooth="yes"/>
      <point x="330" y="178" type="line" smooth="yes"/>
      <point x="330" y="104"/>
      <point x="345" y="67"/>
      <point x="372" y="40" type="curve" smooth="yes"/>
      <point x="407" y="4"/>
      <point x="464" y="-9"/>
    </contour>
  </outline>
</glyph>
<glyph name="twoguru" format="2">
  <advance width="598"/>
  <unicode hex="0A68"/>
  <outline>
    <contour>
      <point x="221" y="127" type="curve" smooth="yes"/>
      <point x="392" y="127"/>
      <point x="530" y="219"/>
      <point x="530" y="396" type="curve" smooth="yes"/>
      <point x="530" y="537"/>
      <point x="441" y="632"/>
      <point x="258" y="632" type="curve" smooth="yes"/>
      <point x="173" y="632"/>
      <point x="103" y="618"/>
      <point x="34" y="593" type="curve"/>
      <point x="88" y="462" type="line"/>
      <point x="143" y="483"/>
      <point x="187" y="492"/>
      <point x="233" y="492" type="curve" smooth="yes"/>
      <point x="309" y="492"/>
      <point x="352" y="458"/>
      <point x="352" y="388" type="curve" smooth="yes"/>
      <point x="352" y="315"/>
      <point x="300" y="267"/>
      <point x="182" y="246" type="curve"/>
      <point x="233" y="232" type="line"/>
      <point x="300" y="261" type="line"/>
      <point x="248" y="301"/>
      <point x="206" y="319"/>
      <point x="154" y="319" type="curve" smooth="yes"/>
      <point x="85" y="319"/>
      <point x="47" y="283"/>
      <point x="47" y="232" type="curve" smooth="yes"/>
      <point x="47" y="157"/>
      <point x="107" y="127"/>
    </contour>
    <contour>
      <point x="429" y="-32" type="curve"/>
      <point x="545" y="75" type="line"/>
      <point x="483" y="136"/>
      <point x="395" y="197"/>
      <point x="322" y="237" type="curve"/>
      <point x="254" y="218" type="line"/>
      <point x="141" y="191" type="line"/>
      <point x="258" y="123"/>
      <point x="344" y="54"/>
    </contour>
  </outline>
</glyph>
<glyph name="threeguru" format="2">
  <advance width="598"/>
  <unicode hex="0A69"/>
  <outline>
    <contour>
      <point x="410" y="-100" type="curve"/>
      <point x="526" y="7" type="line"/>
      <point x="477" y="55"/>
      <point x="387" y="113"/>
      <point x="311" y="154" type="curve"/>
      <point x="173" y="92" type="line"/>
      <point x="264" y="33"/>
      <point x="326" y="-17"/>
    </contour>
    <contour>
      <point x="400" y="317" type="line"/>
      <point x="483" y="350"/>
      <point x="538" y="390"/>
      <point x="538" y="468" type="curve" smooth="yes"/>
      <point x="538" y="575"/>
      <point x="446" y="630"/>
      <point x="276" y="630" type="curve" smooth="yes"/>
      <point x="194" y="630"/>
      <point x="110" y="618"/>
      <point x="33" y="592" type="curve"/>
      <point x="86" y="461" type="line"/>
      <point x="154" y="483"/>
      <point x="211" y="492"/>
      <point x="270" y="492" type="curve" smooth="yes"/>
      <point x="339" y="492"/>
      <point x="359" y="478"/>
      <point x="359" y="455" type="curve" smooth="yes"/>
      <point x="359" y="428"/>
      <point x="337" y="412"/>
      <point x="283" y="403" type="curve"/>
      <point x="382" y="385" type="line"/>
      <point x="320" y="419"/>
      <point x="270" y="435"/>
      <point x="205" y="435" type="curve" smooth="yes"/>
      <point x="133" y="435"/>
      <point x="82" y="413"/>
      <point x="82" y="356" type="curve" smooth="yes"/>
      <point x="82" y="295"/>
      <point x="128" y="268"/>
      <point x="207" y="268" type="curve" smooth="yes"/>
      <point x="259" y="268"/>
      <point x="320" y="278"/>
      <point x="363" y="298" type="curve"/>
      <point x="270" y="286" type="line"/>
      <point x="336" y="283"/>
      <point x="361" y="263"/>
      <point x="361" y="233" type="curve" smooth="yes"/>
      <point x="361" y="202"/>
      <point x="323" y="176"/>
      <point x="235" y="176" type="curve"/>
      <point x="320" y="161" type="line"/>
      <point x="247" y="209"/>
      <point x="197" y="230"/>
      <point x="137" y="230" type="curve" smooth="yes"/>
      <point x="74" y="230"/>
      <point x="37" y="199"/>
      <point x="37" y="149" type="curve" smooth="yes"/>
      <point x="37" y="82"/>
      <point x="88" y="49"/>
      <point x="235" y="49" type="curve" smooth="yes"/>
      <point x="431" y="49"/>
      <point x="542" y="103"/>
      <point x="542" y="221" type="curve" smooth="yes"/>
      <point x="542" y="297"/>
      <point x="494" y="344"/>
      <point x="393" y="380" type="curve"/>
    </contour>
  </outline>
</glyph>
<glyph name="fourguru" format="2">
  <advance width="598"/>
  <unicode hex="0A6A"/>
  <outline>
    <contour>
      <point x="298" y="251" type="curve" smooth="yes"/>
      <point x="455" y="251"/>
      <point x="562" y="326"/>
      <point x="562" y="451" type="curve" smooth="yes"/>
      <point x="562" y="534"/>
      <point x="503" y="614"/>
      <point x="352" y="630" type="curve"/>
      <point x="333" y="487" type="line"/>
      <point x="369" y="479"/>
      <point x="386" y="459"/>
      <point x="386" y="431" type="curve" smooth="yes"/>
      <point x="386" y="387"/>
      <point x="353" y="366"/>
      <point x="299" y="366" type="curve" smooth="yes"/>
      <point x="247" y="366"/>
      <point x="212" y="387"/>
      <point x="212" y="431" type="curve" smooth="yes"/>
      <point x="212" y="459"/>
      <point x="229" y="479"/>
      <point x="265" y="487" type="curve"/>
      <point x="245" y="630" type="line"/>
      <point x="93" y="614"/>
      <point x="36" y="534"/>
      <point x="36" y="447" type="curve" smooth="yes"/>
      <point x="36" y="326"/>
      <point x="147" y="251"/>
    </contour>
    <contour>
      <point x="300" y="-10" type="curve" smooth="yes"/>
      <point x="462" y="-10"/>
      <point x="545" y="61"/>
      <point x="545" y="174" type="curve" smooth="yes"/>
      <point x="545" y="281"/>
      <point x="440" y="350"/>
      <point x="299" y="350" type="curve" smooth="yes"/>
      <point x="163" y="350"/>
      <point x="53" y="287"/>
      <point x="53" y="172" type="curve" smooth="yes"/>
      <point x="53" y="61"/>
      <point x="135" y="-10"/>
    </contour>
    <contour>
      <point x="297" y="124" type="curve" smooth="yes"/>
      <point x="257" y="124"/>
      <point x="229" y="140"/>
      <point x="229" y="181" type="curve" smooth="yes"/>
      <point x="229" y="222"/>
      <point x="259" y="238"/>
      <point x="297" y="238" type="curve" smooth="yes"/>
      <point x="341" y="238"/>
      <point x="369" y="222"/>
      <point x="369" y="181" type="curve" smooth="yes"/>
      <point x="369" y="140"/>
      <point x="339" y="124"/>
    </contour>
  </outline>
</glyph>
<glyph name="fiveguru" format="2">
  <advance width="598"/>
  <unicode hex="0A6B"/>
  <outline>
    <contour>
      <point x="367" y="0" type="line"/>
      <point x="544" y="0" type="line"/>
      <point x="544" y="622" type="line"/>
      <point x="367" y="622" type="line"/>
      <point x="367" y="240" type="line"/>
      <point x="418" y="304" type="line"/>
      <point x="377" y="282"/>
      <point x="350" y="276"/>
      <point x="315" y="276" type="curve" smooth="yes"/>
      <point x="250" y="276"/>
      <point x="220" y="320"/>
      <point x="193" y="390" type="curve"/>
      <point x="176" y="298" type="line"/>
      <point x="238" y="345"/>
      <point x="264" y="402"/>
      <point x="264" y="470" type="curve" smooth="yes"/>
      <point x="264" y="526"/>
      <point x="246" y="576"/>
      <point x="216" y="632" type="curve"/>
      <point x="51" y="575" type="line"/>
      <point x="77" y="531"/>
      <point x="87" y="499"/>
      <point x="87" y="457" type="curve" smooth="yes"/>
      <point x="87" y="413"/>
      <point x="64" y="379"/>
      <point x="19" y="350" type="curve"/>
      <point x="87" y="191"/>
      <point x="182" y="137"/>
      <point x="309" y="137" type="curve" smooth="yes"/>
      <point x="369" y="137"/>
      <point x="413" y="148"/>
      <point x="465" y="178" type="curve"/>
      <point x="367" y="199" type="line"/>
    </contour>
  </outline>
</glyph>
<glyph name="sixguru" format="2">
  <advance width="598"/>
  <unicode hex="0A6C"/>
  <outline>
    <contour>
      <point x="371" y="511" type="curve"/>
      <point x="504" y="539" type="line"/>
      <point x="478" y="570"/>
      <point x="466" y="597"/>
      <point x="466" y="623" type="curve" smooth="yes"/>
      <point x="466" y="653"/>
      <point x="486" y="665"/>
      <point x="514" y="665" type="curve" smooth="yes"/>
      <point x="527" y="665"/>
      <point x="539" y="664"/>
      <point x="551" y="661" type="curve"/>
      <point x="570" y="789" type="line"/>
      <point x="547" y="793"/>
      <point x="524" y="795"/>
      <point x="493" y="795" type="curve" smooth="yes"/>
      <point x="390" y="795"/>
      <point x="311" y="747"/>
      <point x="311" y="651" type="curve" smooth="yes"/>
      <point x="311" y="600"/>
      <point x="326" y="564"/>
    </contour>
    <contour>
      <point x="519" y="161" type="line"/>
      <point x="458" y="140"/>
      <point x="411" y="129"/>
      <point x="335" y="129" type="curve" smooth="yes"/>
      <point x="274" y="129"/>
      <point x="236" y="141"/>
      <point x="236" y="174" type="curve" smooth="yes"/>
      <point x="236" y="207"/>
      <point x="272" y="222"/>
      <point x="344" y="229" type="curve"/>
      <point x="218" y="247" type="line"/>
      <point x="272" y="216"/>
      <point x="334" y="198"/>
      <point x="389" y="198" type="curve" smooth="yes"/>
      <point x="477" y="198"/>
      <point x="521" y="221"/>
      <point x="521" y="281" type="curve" smooth="yes"/>
      <point x="521" y="339"/>
      <point x="476" y="365"/>
      <point x="385" y="365" type="curve" smooth="yes"/>
      <point x="330" y="365"/>
      <point x="266" y="347"/>
      <point x="222" y="328" type="curve"/>
      <point x="314" y="348" type="line"/>
      <point x="266" y="355"/>
      <point x="235" y="371"/>
      <point x="235" y="402" type="curve" smooth="yes"/>
      <point x="235" y="434"/>
      <point x="281" y="450"/>
      <point x="352" y="450" type="curve" smooth="yes"/>
      <point x="392" y="450"/>
      <point x="412" y="449"/>
      <point x="446" y="445" type="curve"/>
      <point x="341" y="500" type="line"/>
      <point x="366" y="436"/>
      <point x="412" y="410"/>
      <point x="473" y="410" type="curve" smooth="yes"/>
      <point x="534" y="410"/>
      <point x="566" y="441"/>
      <point x="566" y="489" type="curve" smooth="yes"/>
      <point x="566" y="550"/>
      <point x="506" y="585"/>
      <point x="357" y="585" type="curve" smooth="yes"/>
      <point x="177" y="585"/>
      <point x="57" y="533"/>
      <point x="57" y="416" type="curve" smooth="yes"/>
      <point x="57" y="334"/>
      <point x="115" y="291"/>
      <point x="195" y="256" type="curve"/>
      <point x="209" y="324" type="line"/>
      <point x="138" y="303"/>
      <point x="59" y="251"/>
      <point x="59" y="164" type="curve" smooth="yes"/>
      <point x="59" y="41"/>
      <point x="158" y="-9"/>
      <point x="324" y="-9" type="curve" smooth="yes"/>
      <point x="421" y="-9"/>
      <point x="490" y="2"/>
      <point x="572" y="27" type="curve"/>
    </contour>
  </outline>
</glyph>
<glyph name="sevenguru" format="2">
  <advance width="598"/>
  <unicode hex="0A6D"/>
  <outline>
    <contour>
      <point x="39" y="-9" type="line"/>
      <point x="366" y="13"/>
      <point x="560" y="146"/>
      <point x="560" y="370" type="curve" smooth="yes"/>
      <point x="560" y="532"/>
      <point x="455" y="632"/>
      <point x="291" y="632" type="curve" smooth="yes"/>
      <point x="131" y="632"/>
      <point x="46" y="557"/>
      <point x="46" y="456" type="curve" smooth="yes"/>
      <point x="46" y="395"/>
      <point x="72" y="343"/>
      <point x="118" y="290" type="curve"/>
      <point x="256" y="365" type="line"/>
      <point x="236" y="389"/>
      <point x="223" y="410"/>
      <point x="223" y="434" type="curve" smooth="yes"/>
      <point x="223" y="468"/>
      <point x="241" y="493"/>
      <point x="282" y="493" type="curve" smooth="yes"/>
      <point x="345" y="493"/>
      <point x="380" y="439"/>
      <point x="380" y="366" type="curve" smooth="yes"/>
      <point x="380" y="236"/>
      <point x="248" y="159"/>
      <point x="23" y="137" type="curve"/>
    </contour>
  </outline>
</glyph>
<glyph name="eightguru" format="2">
  <advance width="598"/>
  <unicode hex="0A6E"/>
  <outline>
    <contour>
      <point x="459" y="0" type="curve" smooth="yes"/>
      <point x="497" y="0"/>
      <point x="528" y="2"/>
      <point x="561" y="7" type="curve"/>
      <point x="549" y="148" type="line"/>
      <point x="522" y="143"/>
      <point x="499" y="140"/>
      <point x="467" y="140" type="curve" smooth="yes"/>
      <point x="387" y="140"/>
      <point x="345" y="153"/>
      <point x="318" y="177" type="curve" smooth="yes"/>
      <point x="289" y="203"/>
      <point x="281" y="243"/>
      <point x="281" y="305" type="curve" smooth="yes"/>
      <point x="281" y="404" type="line"/>
      <point x="557" y="404" type="line"/>
      <point x="557" y="542" type="line"/>
      <point x="279" y="542" type="line"/>
      <point x="279" y="553" type="line" smooth="yes"/>
      <point x="279" y="601"/>
      <point x="258" y="632"/>
      <point x="205" y="632" type="curve" smooth="yes"/>
      <point x="109" y="632"/>
      <point x="27" y="525"/>
      <point x="27" y="465" type="curve" smooth="yes"/>
      <point x="27" y="424"/>
      <point x="52" y="402"/>
      <point x="96" y="402" type="curve" smooth="yes"/>
      <point x="104" y="402" type="line"/>
      <point x="104" y="312" type="line" smooth="yes"/>
      <point x="104" y="202"/>
      <point x="125" y="136"/>
      <point x="174" y="85" type="curve" smooth="yes"/>
      <point x="228" y="28"/>
      <point x="302" y="0"/>
    </contour>
  </outline>
</glyph>
<glyph name="nineguru" format="2">
  <advance width="598"/>
  <unicode hex="0A6F"/>
  <outline>
    <contour>
      <point x="459" y="0" type="curve" smooth="yes"/>
      <point x="497" y="0"/>
      <point x="528" y="2"/>
      <point x="561" y="7" type="curve"/>
      <point x="549" y="148" type="line"/>
      <point x="522" y="143"/>
      <point x="499" y="140"/>
      <point x="467" y="140" type="curve" smooth="yes"/>
      <point x="387" y="140"/>
      <point x="345" y="153"/>
      <point x="318" y="177" type="curve" smooth="yes"/>
      <point x="289" y="203"/>
      <point x="281" y="243"/>
      <point x="281" y="305" type="curve" smooth="yes"/>
      <point x="281" y="404" type="line"/>
      <point x="557" y="404" type="line"/>
      <point x="557" y="542" type="line"/>
      <point x="279" y="542" type="line"/>
      <point x="279" y="553" type="line" smooth="yes"/>
      <point x="279" y="601"/>
      <point x="258" y="632"/>
      <point x="205" y="632" type="curve" smooth="yes"/>
      <point x="109" y="632"/>
      <point x="27" y="525"/>
      <point x="27" y="465" type="curve" smooth="yes"/>
      <point x="27" y="424"/>
      <point x="52" y="402"/>
      <point x="96" y="402" type="curve" smooth="yes"/>
      <point x="104" y="402" type="line"/>
      <point x="104" y="312" type="line" smooth="yes"/>
      <point x="104" y="202"/>
      <point x="125" y="136"/>
      <point x="174" y="85" type="curve" smooth="yes"/>
      <point x="228" y="28"/>
      <point x="302" y="0"/>
    </contour>
    <contour>
      <point x="418" y="511" type="curve"/>
      <point x="551" y="539" type="line"/>
      <point x="525" y="570"/>
      <point x="513" y="597"/>
      <point x="513" y="623" type="curve" smooth="yes"/>
      <point x="513" y="653"/>
      <point x="533" y="665"/>
      <point x="561" y="665" type="curve" smooth="yes"/>
      <point x="574" y="665"/>
      <point x="586" y="664"/>
      <point x="598" y="661" type="curve"/>
      <point x="617" y="789" type="line"/>
      <point x="594" y="793"/>
      <point x="571" y="795"/>
      <point x="540" y="795" type="curve" smooth="yes"/>
      <point x="437" y="795"/>
      <point x="358" y="747"/>
      <point x="358" y="651" type="curve" smooth="yes"/>
      <point x="358" y="600"/>
      <point x="373" y="564"/>
    </contour>
  </outline>
</glyph>
<glyph name="tippiguru" format="2">
  <unicode hex="0A70"/>
  <outline>
    <contour>
      <point x="-324" y="659" type="curve"/>
      <point x="-185" y="682" type="line"/>
      <point x="-193" y="701"/>
      <point x="-198" y="717"/>
      <point x="-198" y="734" type="curve" smooth="yes"/>
      <point x="-198" y="759"/>
      <point x="-184" y="773"/>
      <point x="-159" y="773" type="curve" smooth="yes"/>
      <point x="-133" y="773"/>
      <point x="-119" y="759"/>
      <point x="-119" y="734" type="curve" smooth="yes"/>
      <point x="-119" y="717"/>
      <point x="-124" y="701"/>
      <point x="-132" y="682" type="curve"/>
      <point x="7" y="659" type="line"/>
      <point x="21" y="691"/>
      <point x="27" y="722"/>
      <point x="27" y="754" type="curve" smooth="yes"/>
      <point x="27" y="834"/>
      <point x="-39" y="888"/>
      <point x="-158" y="888" type="curve" smooth="yes"/>
      <point x="-278" y="888"/>
      <point x="-344" y="835"/>
      <point x="-344" y="754" type="curve" smooth="yes"/>
      <point x="-344" y="722"/>
      <point x="-338" y="691"/>
    </contour>
  </outline>
</glyph>
<glyph name="addakguru" format="2">
  <unicode hex="0A71"/>
  <outline>
    <contour>
      <point x="-148" y="667" type="curve" smooth="yes"/>
      <point x="-3" y="667"/>
      <point x="40" y="750"/>
      <point x="40" y="868" type="curve"/>
      <point x="-108" y="878" type="line"/>
      <point x="-109" y="801"/>
      <point x="-125" y="782"/>
      <point x="-151" y="782" type="curve" smooth="yes"/>
      <point x="-179" y="782"/>
      <point x="-192" y="798"/>
      <point x="-193" y="878" type="curve"/>
      <point x="-341" y="868" type="line"/>
      <point x="-341" y="750"/>
      <point x="-295" y="667"/>
    </contour>
  </outline>
</glyph>
<glyph name="iriguru" format="2">
  <advance width="636"/>
  <unicode hex="0A72"/>
  <outline>
    <contour>
      <point x="28" y="206" type="curve"/>
      <point x="101" y="61"/>
      <point x="210" y="0"/>
      <point x="362" y="0" type="curve" smooth="yes"/>
      <point x="467" y="0"/>
      <point x="540" y="18"/>
      <point x="605" y="47" type="curve"/>
      <point x="553" y="179" type="line"/>
      <point x="486" y="151"/>
      <point x="440" y="138"/>
      <point x="375" y="138" type="curve" smooth="yes"/>
      <point x="294" y="138"/>
      <point x="244" y="164"/>
      <point x="196" y="249" type="curve"/>
      <point x="201" y="167" type="line"/>
      <point x="229" y="201"/>
      <point x="257" y="222"/>
      <point x="294" y="234" type="curve" smooth="yes"/>
      <point x="313" y="240"/>
      <point x="335" y="244"/>
      <point x="373" y="244" type="curve" smooth="yes"/>
      <point x="512" y="244" type="line"/>
      <point x="570" y="299" type="line"/>
      <point x="570" y="484" type="line"/>
      <point x="643" y="484" type="line"/>
      <point x="643" y="622" type="line"/>
      <point x="-7" y="622" type="line"/>
      <point x="-7" y="484" type="line"/>
      <point x="47" y="484" type="line"/>
      <point x="47" y="385"/>
      <point x="91" y="306"/>
      <point x="220" y="284" type="curve"/>
      <point x="235" y="344" type="line"/>
      <point x="146" y="327"/>
      <point x="71" y="277"/>
    </contour>
    <contour>
      <point x="314" y="381" type="line" smooth="yes"/>
      <point x="284" y="381"/>
      <point x="268" y="387"/>
      <point x="254" y="397" type="curve" smooth="yes"/>
      <point x="230" y="414"/>
      <point x="225" y="445"/>
      <point x="225" y="484" type="curve"/>
      <point x="393" y="484" type="line"/>
      <point x="393" y="381" type="line"/>
    </contour>
  </outline>
</glyph>
<glyph name="uraguru" format="2">
  <advance width="723"/>
  <unicode hex="0A73"/>
  <outline>
    <contour>
      <point x="391" y="0" type="curve" smooth="yes"/>
      <point x="564" y="0"/>
      <point x="644" y="62"/>
      <point x="644" y="170" type="curve" smooth="yes"/>
      <point x="644" y="245"/>
      <point x="591" y="317"/>
      <point x="459" y="338" type="curve"/>
      <point x="473" y="277" type="line"/>
      <point x="634" y="317"/>
      <point x="710" y="392"/>
      <point x="710" y="550" type="curve" smooth="yes"/>
      <point x="710" y="773"/>
      <point x="569" y="857"/>
      <point x="404" y="857" type="curve" smooth="yes"/>
      <point x="209" y="857"/>
      <point x="91" y="749"/>
      <point x="52" y="574" type="curve"/>
      <point x="49" y="543" type="line"/>
      <point x="42" y="505"/>
      <point x="39" y="463"/>
      <point x="39" y="419" type="curve" smooth="yes"/>
      <point x="39" y="134"/>
      <point x="163" y="0"/>
    </contour>
    <contour>
      <point x="377" y="138" type="curve" smooth="yes"/>
      <point x="269" y="138"/>
      <point x="216" y="211"/>
      <point x="216" y="412" type="curve" smooth="yes"/>
      <point x="216" y="453"/>
      <point x="218" y="493"/>
      <point x="223" y="527" type="curve"/>
      <point x="228" y="569" type="line"/>
      <point x="252" y="664"/>
      <point x="306" y="719"/>
      <point x="396" y="719" type="curve" smooth="yes"/>
      <point x="484" y="719"/>
      <point x="536" y="654"/>
      <point x="536" y="554" type="curve"/>
      <point x="533" y="540" type="line"/>
      <point x="533" y="470"/>
      <point x="514" y="427"/>
      <point x="472" y="403" type="curve" smooth="yes"/>
      <point x="440" y="385"/>
      <point x="406" y="378"/>
      <point x="320" y="378" type="curve" smooth="yes"/>
      <point x="151" y="378" type="line"/>
      <point x="161" y="242" type="line"/>
      <point x="331" y="242" type="line" smooth="yes"/>
      <point x="395" y="242"/>
      <point x="421" y="238"/>
      <point x="438" y="230" type="curve" smooth="yes"/>
      <point x="456" y="222"/>
      <point x="465" y="208"/>
      <point x="465" y="189" type="curve" smooth="yes"/>
      <point x="465" y="161"/>
      <point x="443" y="138"/>
    </contour>
    <contour>
      <point x="-7" y="484" type="line"/>
      <point x="764" y="484" type="line"/>
      <point x="764" y="622" type="line"/>
      <point x="-7" y="622" type="line"/>
    </contour>
  </outline>
</glyph>
<glyph name="ekonkarguru" format="2">
  <advance width="1630"/>
  <unicode hex="0A74"/>
  <outline>
    <contour>
      <point x="958" y="0" type="curve" smooth="yes"/>
      <point x="1131" y="0"/>
      <point x="1211" y="62"/>
      <point x="1211" y="170" type="curve" smooth="yes"/>
      <point x="1211" y="245"/>
      <point x="1158" y="317"/>
      <point x="1026" y="338" type="curve"/>
      <point x="1040" y="277" type="line"/>
      <point x="1201" y="317"/>
      <point x="1277" y="392"/>
      <point x="1277" y="550" type="curve"/>
      <point x="1277" y="569" type="line"/>
      <point x="1100" y="554" type="line"/>
      <point x="1100" y="540" type="line"/>
      <point x="1100" y="470"/>
      <point x="1081" y="427"/>
      <point x="1039" y="403" type="curve" smooth="yes"/>
      <point x="1007" y="385"/>
      <point x="973" y="378"/>
      <point x="887" y="378" type="curve" smooth="yes"/>
      <point x="718" y="378" type="line"/>
      <point x="728" y="242" type="line"/>
      <point x="898" y="242" type="line" smooth="yes"/>
      <point x="962" y="242"/>
      <point x="988" y="238"/>
      <point x="1005" y="230" type="curve" smooth="yes"/>
      <point x="1023" y="222"/>
      <point x="1032" y="208"/>
      <point x="1032" y="189" type="curve" smooth="yes"/>
      <point x="1032" y="161"/>
      <point x="1010" y="138"/>
      <point x="944" y="138" type="curve" smooth="yes"/>
      <point x="836" y="138"/>
      <point x="783" y="211"/>
      <point x="783" y="412" type="curve" smooth="yes"/>
      <point x="783" y="453"/>
      <point x="785" y="493"/>
      <point x="790" y="527" type="curve"/>
      <point x="795" y="569" type="line"/>
      <point x="819" y="664"/>
      <point x="873" y="719"/>
      <point x="965" y="719" type="curve" smooth="yes"/>
      <point x="1025" y="719"/>
      <point x="1068" y="697"/>
      <point x="1094" y="659" type="curve"/>
      <point x="1245" y="674" type="line"/>
      <point x="1282" y="720"/>
      <point x="1324" y="745"/>
      <point x="1381" y="745" type="curve" smooth="yes"/>
      <point x="1436" y="745"/>
      <point x="1482" y="725"/>
      <point x="1512" y="653" type="curve"/>
      <point x="1695" y="675" type="line"/>
      <point x="1656" y="816"/>
      <point x="1554" y="884"/>
      <point x="1403" y="884" type="curve" smooth="yes"/>
      <point x="1263" y="884"/>
      <point x="1178" y="828"/>
      <point x="1117" y="731" type="curve"/>
      <point x="1228" y="738" type="line"/>
      <point x="1182" y="803"/>
      <point x="1096" y="857"/>
      <point x="980" y="857" type="curve" smooth="yes"/>
      <point x="776" y="857"/>
      <point x="658" y="749"/>
      <point x="619" y="574" type="curve"/>
      <point x="616" y="543" type="line"/>
      <point x="609" y="505"/>
      <point x="606" y="463"/>
      <point x="606" y="419" type="curve" smooth="yes"/>
      <point x="606" y="134"/>
      <point x="730" y="0"/>
    </contour>
    <contour>
      <point x="568" y="484" type="line"/>
      <point x="1331" y="484" type="line"/>
      <point x="1331" y="622" type="line"/>
      <point x="568" y="622" type="line"/>
    </contour>
    <component base="oneguru" xOffset="8"/>
  </outline>
</glyph>
<glyph name="yakashguru" format="2">
  <unicode hex="0A75"/>
  <outline>
    <contour>
      <point x="-153" y="-326" type="curve" smooth="yes"/>
      <point x="-66" y="-326"/>
      <point x="-23" y="-276"/>
      <point x="5" y="-221" type="curve"/>
      <point x="-99" y="-169" type="line"/>
      <point x="-108" y="-192"/>
      <point x="-117" y="-205"/>
      <point x="-133" y="-205" type="curve" smooth="yes"/>
      <point x="-149" y="-205"/>
      <point x="-156" y="-194"/>
      <point x="-156" y="-151" type="curve" smooth="yes"/>
      <point x="-156" y="-118"/>
      <point x="-153" y="-83"/>
      <point x="-149" y="-51" type="curve"/>
      <point x="-299" y="-41" type="line"/>
      <point x="-306" y="-73"/>
      <point x="-311" y="-111"/>
      <point x="-311" y="-148" type="curve" smooth="yes"/>
      <point x="-311" y="-298"/>
      <point x="-217" y="-326"/>
    </contour>
  </outline>
</glyph>
<glyph name="uni0A76" format="2">
  <advance width="320"/>
  <unicode hex="0A76"/>
  <outline>
    <contour>
      <point x="48" y="324" type="curve" smooth="yes"/>
      <point x="48" y="251"/>
      <point x="100" y="222"/>
      <point x="162" y="222" type="curve" smooth="yes"/>
      <point x="222" y="222"/>
      <point x="272" y="251"/>
      <point x="272" y="324" type="curve" smooth="yes"/>
      <point x="272" y="400"/>
      <point x="222" y="427"/>
      <point x="162" y="427" type="curve" smooth="yes"/>
      <point x="100" y="427"/>
      <point x="48" y="400"/>
    </contour>
  </outline>
</glyph>
<glyph name="quoteright.guru" format="2">
  <advance width="354"/>
  <unicode hex="2019"/>
  <outline>
    <contour>
      <point x="294" y="729" type="line"/>
      <point x="127" y="729" type="line"/>
      <point x="118" y="649"/>
      <point x="98" y="535"/>
      <point x="79" y="444" type="curve"/>
      <point x="215" y="444" type="line"/>
      <point x="248" y="518"/>
      <point x="283" y="646"/>
      <point x="301" y="718" type="curve"/>
    </contour>
  </outline>
</glyph>
<glyph name="quotedblleft.guru" format="2">
  <advance width="603"/>
  <unicode hex="201C"/>
  <outline>
    <contour>
      <point x="76" y="444" type="line"/>
      <point x="243" y="444" type="line"/>
      <point x="252" y="524"/>
      <point x="272" y="638"/>
      <point x="291" y="729" type="curve"/>
      <point x="155" y="729" type="line"/>
      <point x="122" y="655"/>
      <point x="87" y="527"/>
      <point x="69" y="455" type="curve"/>
    </contour>
    <contour>
      <point x="325" y="444" type="line"/>
      <point x="492" y="444" type="line"/>
      <point x="501" y="524"/>
      <point x="521" y="638"/>
      <point x="540" y="729" type="curve"/>
      <point x="404" y="729" type="line"/>
      <point x="371" y="655"/>
      <point x="336" y="527"/>
      <point x="318" y="455" type="curve"/>
    </contour>
  </outline>
</glyph>
<glyph name="quotedblright.guru" format="2">
  <advance width="603"/>
  <unicode hex="201D"/>
  <outline>
    <contour>
      <point x="543" y="729" type="line"/>
      <point x="376" y="729" type="line"/>
      <point x="367" y="649"/>
      <point x="347" y="535"/>
      <point x="328" y="444" type="curve"/>
      <point x="464" y="444" type="line"/>
      <point x="497" y="518"/>
      <point x="532" y="646"/>
      <point x="550" y="718" type="curve"/>
    </contour>
    <contour>
      <point x="294" y="729" type="line"/>
      <point x="127" y="729" type="line"/>
      <point x="118" y="649"/>
      <point x="98" y="535"/>
      <point x="79" y="444" type="curve"/>
      <point x="215" y="444" type="line"/>
      <point x="248" y="518"/>
      <point x="283" y="646"/>
      <point x="301" y="718" type="curve"/>
    </contour>
  </outline>
</glyph>
<glyph name="uni20B9.guru" format="2">
  <advance width="598"/>
  <unicode hex="20B9"/>
  <outline>
    <contour>
      <point x="545" y="504" type="line"/>
      <point x="545" y="622" type="line"/>
      <point x="63" y="622" type="line"/>
      <point x="63" y="504" type="line"/>
      <point x="123" y="504" type="line" smooth="yes"/>
      <point x="167" y="504"/>
      <point x="187" y="502"/>
      <point x="204" y="486" type="curve" smooth="yes"/>
      <point x="220" y="471"/>
      <point x="230" y="446"/>
      <point x="230" y="406" type="curve" smooth="yes"/>
      <point x="230" y="372"/>
      <point x="225" y="345"/>
      <point x="210" y="327" type="curve" smooth="yes"/>
      <point x="194" y="307"/>
      <point x="173" y="301"/>
      <point x="109" y="301" type="curve" smooth="yes"/>
      <point x="83" y="301" type="line"/>
      <point x="61" y="192" type="line"/>
      <point x="218" y="0" type="line"/>
      <point x="437" y="0" type="line"/>
      <point x="245" y="209" type="line"/>
      <point x="247" y="199" type="line"/>
      <point x="345" y="226"/>
      <point x="400" y="297"/>
      <point x="400" y="392" type="curve" smooth="yes"/>
      <point x="400" y="436"/>
      <point x="377" y="484"/>
      <point x="353" y="504" type="curve"/>
    </contour>
    <contour>
      <point x="63" y="462" type="line"/>
      <point x="63" y="345" type="line"/>
      <point x="545" y="345" type="line"/>
      <point x="545" y="462" type="line"/>
    </contour>
  </outline>
</glyph>
<glyph name="minus.guru" format="2">
  <advance width="598"/>
  <unicode hex="2212"/>
  <outline>
    <contour>
      <point x="61" y="388" type="line"/>
      <point x="61" y="259" type="line"/>
      <point x="537" y="259" type="line"/>
      <point x="537" y="388" type="line"/>
    </contour>
  </outline>
</glyph>
<glyph name="uniA830" format="2">
  <advance width="324"/>
  <unicode hex="A830"/>
  <outline>
    <contour>
      <point x="75" y="0" type="line"/>
      <point x="248" y="0" type="line"/>
      <point x="248" y="622" type="line"/>
      <point x="75" y="622" type="line"/>
    </contour>
  </outline>
</glyph>
<glyph name="uniA831" format="2">
  <advance width="547"/>
  <unicode hex="A831"/>
  <outline>
    <contour>
      <point x="299" y="0" type="line"/>
      <point x="472" y="0" type="line"/>
      <point x="472" y="622" type="line"/>
      <point x="299" y="622" type="line"/>
    </contour>
    <contour>
      <point x="75" y="0" type="line"/>
      <point x="248" y="0" type="line"/>
      <point x="248" y="622" type="line"/>
      <point x="75" y="622" type="line"/>
    </contour>
  </outline>
</glyph>
<glyph name="uniA832" format="2">
  <advance width="771"/>
  <unicode hex="A832"/>
  <outline>
    <contour>
      <point x="523" y="0" type="line"/>
      <point x="696" y="0" type="line"/>
      <point x="696" y="622" type="line"/>
      <point x="523" y="622" type="line"/>
    </contour>
    <contour>
      <point x="299" y="0" type="line"/>
      <point x="472" y="0" type="line"/>
      <point x="472" y="622" type="line"/>
      <point x="299" y="622" type="line"/>
    </contour>
    <contour>
      <point x="75" y="0" type="line"/>
      <point x="248" y="0" type="line"/>
      <point x="248" y="622" type="line"/>
      <point x="75" y="622" type="line"/>
    </contour>
  </outline>
</glyph>
<glyph name="uniA833" format="2">
  <advance width="629"/>
  <unicode hex="A833"/>
  <outline>
    <contour>
      <point x="73" y="363" type="line"/>
      <point x="596" y="494" type="line"/>
      <point x="556" y="645" type="line"/>
      <point x="33" y="514" type="line"/>
    </contour>
  </outline>
</glyph>
<glyph name="uniA834" format="2">
  <advance width="629"/>
  <unicode hex="A834"/>
  <outline>
    <contour>
      <point x="73" y="363" type="line"/>
      <point x="596" y="494" type="line"/>
      <point x="556" y="645" type="line"/>
      <point x="33" y="514" type="line"/>
    </contour>
    <contour>
      <point x="73" y="162" type="line"/>
      <point x="596" y="293" type="line"/>
      <point x="556" y="444" type="line"/>
      <point x="33" y="315" type="line"/>
    </contour>
  </outline>
</glyph>
<glyph name="uniA836" format="2">
  <advance width="489"/>
  <unicode hex="A836"/>
  <outline>
    <contour>
      <point x="245" y="140" type="curve" smooth="yes"/>
      <point x="351" y="140"/>
      <point x="437" y="207"/>
      <point x="437" y="321" type="curve" smooth="yes"/>
      <point x="437" y="435"/>
      <point x="354" y="500"/>
      <point x="245" y="500" type="curve" smooth="yes"/>
      <point x="132" y="500"/>
      <point x="52" y="430"/>
      <point x="52" y="321" type="curve" smooth="yes"/>
      <point x="52" y="201"/>
      <point x="143" y="140"/>
    </contour>
    <contour>
      <point x="244" y="259" type="curve" smooth="yes"/>
      <point x="211" y="259"/>
      <point x="181" y="281"/>
      <point x="181" y="321" type="curve" smooth="yes"/>
      <point x="181" y="355"/>
      <point x="207" y="382"/>
      <point x="244" y="382" type="curve" smooth="yes"/>
      <point x="279" y="382"/>
      <point x="308" y="357"/>
      <point x="308" y="321" type="curve" smooth="yes"/>
      <point x="308" y="284"/>
      <point x="279" y="259"/>
    </contour>
  </outline>
</glyph>
<glyph name="uniA837" format="2">
  <advance width="545"/>
  <unicode hex="A837"/>
  <outline>
    <contour>
      <point x="243" y="55" type="curve" smooth="yes"/>
      <point x="350" y="55"/>
      <point x="435" y="122"/>
      <point x="435" y="236" type="curve" smooth="yes"/>
      <point x="435" y="344"/>
      <point x="357" y="408"/>
      <point x="241" y="408" type="curve" smooth="yes"/>
      <point x="201" y="408"/>
      <point x="171" y="389"/>
      <point x="161" y="368" type="curve"/>
      <point x="254" y="314" type="line"/>
      <point x="326" y="350"/>
      <point x="375" y="377"/>
      <point x="460" y="445" type="curve" smooth="yes"/>
      <point x="544" y="512" type="line"/>
      <point x="447" y="623" type="line"/>
      <point x="137" y="391" type="line" smooth="yes"/>
      <point x="72" y="342"/>
      <point x="50" y="292"/>
      <point x="50" y="236" type="curve" smooth="yes"/>
      <point x="50" y="116"/>
      <point x="141" y="55"/>
    </contour>
    <contour>
      <point x="242" y="174" type="curve" smooth="yes"/>
      <point x="209" y="174"/>
      <point x="179" y="196"/>
      <point x="179" y="236" type="curve" smooth="yes"/>
      <point x="179" y="270"/>
      <point x="205" y="297"/>
      <point x="242" y="297" type="curve" smooth="yes"/>
      <point x="277" y="297"/>
      <point x="306" y="272"/>
      <point x="306" y="236" type="curve" smooth="yes"/>
      <point x="306" y="199"/>
      <point x="277" y="174"/>
    </contour>
  </outline>
</glyph>
<glyph name="uniA839" format="2">
  <advance width="372"/>
  <unicode hex="A839"/>
  <outline>
    <contour>
      <point x="-135" y="-123" type="curve"/>
      <point x="-137" y="-265" type="line"/>
      <point x="-123" y="-266"/>
      <point x="-95" y="-268"/>
      <point x="-69" y="-268" type="curve" smooth="yes"/>
      <point x="241" y="-268"/>
      <point x="333" y="-116"/>
      <point x="333" y="28" type="curve" smooth="yes"/>
      <point x="333" y="197"/>
      <point x="222" y="303"/>
      <point x="222" y="393" type="curve" smooth="yes"/>
      <point x="222" y="444"/>
      <point x="267" y="468"/>
      <point x="372" y="490" type="curve"/>
      <point x="321" y="632" type="line"/>
      <point x="169" y="601"/>
      <point x="43" y="535"/>
      <point x="43" y="404" type="curve" smooth="yes"/>
      <point x="43" y="261"/>
      <point x="154" y="169"/>
      <point x="154" y="37" type="curve" smooth="yes"/>
      <point x="154" y="-58"/>
      <point x="91" y="-126"/>
      <point x="-82" y="-126" type="curve" smooth="yes"/>
      <point x="-104" y="-126"/>
      <point x="-124" y="-125"/>
    </contour>
  </outline>
</glyph>
<glyph name="addakbaraltguru" format="2">
  <advance width="275"/>
  <outline>
    <contour>
      <point x="230" y="667" type="curve" smooth="yes"/>
      <point x="375" y="667"/>
      <point x="418" y="750"/>
      <point x="418" y="868" type="curve"/>
      <point x="270" y="878" type="line"/>
      <point x="269" y="801"/>
      <point x="253" y="782"/>
      <point x="227" y="782" type="curve" smooth="yes"/>
      <point x="199" y="782"/>
      <point x="186" y="798"/>
      <point x="185" y="878" type="curve"/>
      <point x="37" y="868" type="line"/>
      <point x="37" y="750"/>
      <point x="83" y="667"/>
    </contour>
    <contour>
      <point x="-7" y="484" type="line"/>
      <point x="282" y="484" type="line"/>
      <point x="282" y="622" type="line"/>
      <point x="-7" y="622" type="line"/>
    </contour>
  </outline>
</glyph>
<glyph name="aimatraaddakguru" format="2">
  <outline>
    <contour>
      <point x="-174" y="610" type="curve"/>
      <point x="-68" y="615" type="line"/>
      <point x="-108" y="797"/>
      <point x="-201" y="896"/>
      <point x="-367" y="896" type="curve" smooth="yes"/>
      <point x="-387" y="896"/>
      <point x="-402" y="896"/>
      <point x="-408" y="896" type="curve"/>
      <point x="-404" y="783" type="line"/>
      <point x="-395" y="783"/>
      <point x="-385" y="783"/>
      <point x="-380" y="783" type="curve" smooth="yes"/>
      <point x="-280" y="783"/>
      <point x="-208" y="734"/>
    </contour>
    <contour>
      <point x="-210" y="563" type="curve"/>
      <point x="-148" y="594" type="line"/>
      <point x="-228" y="730"/>
      <point x="-313" y="761"/>
      <point x="-430" y="761" type="curve" smooth="yes"/>
      <point x="-442" y="761"/>
      <point x="-449" y="760"/>
      <point x="-460" y="759" type="curve"/>
      <point x="-454" y="651" type="line"/>
      <point x="-445" y="652"/>
      <point x="-438" y="652"/>
      <point x="-427" y="652" type="curve" smooth="yes"/>
      <point x="-346" y="652"/>
      <point x="-268" y="638"/>
    </contour>
    <contour>
      <point x="-31" y="677" type="curve" smooth="yes"/>
      <point x="114" y="677"/>
      <point x="157" y="760"/>
      <point x="157" y="868" type="curve"/>
      <point x="9" y="878" type="line"/>
      <point x="8" y="811"/>
      <point x="-8" y="792"/>
      <point x="-29" y="792" type="curve" smooth="yes"/>
      <point x="-52" y="792"/>
      <point x="-65" y="808"/>
      <point x="-66" y="878" type="curve"/>
      <point x="-206" y="868" type="line"/>
      <point x="-206" y="759"/>
      <point x="-151" y="677"/>
    </contour>
  </outline>
</glyph>
<glyph name="aumatraaddakguru" format="2">
  <outline>
    <contour>
      <point x="-361" y="659" type="curve"/>
      <point x="-223" y="682" type="line"/>
      <point x="-231" y="701"/>
      <point x="-236" y="717"/>
      <point x="-236" y="734" type="curve" smooth="yes"/>
      <point x="-236" y="760"/>
      <point x="-221" y="773"/>
      <point x="-202" y="773" type="curve" smooth="yes"/>
      <point x="-183" y="773"/>
      <point x="-171" y="759"/>
      <point x="-171" y="734" type="curve" smooth="yes"/>
      <point x="-171" y="717"/>
      <point x="-176" y="701"/>
      <point x="-184" y="682" type="curve"/>
      <point x="-45" y="659" type="line"/>
      <point x="-31" y="691"/>
      <point x="-27" y="722"/>
      <point x="-27" y="754" type="curve" smooth="yes"/>
      <point x="-27" y="834"/>
      <point x="-91" y="888"/>
      <point x="-198" y="888" type="curve" smooth="yes"/>
      <point x="-315" y="888"/>
      <point x="-382" y="835"/>
      <point x="-382" y="754" type="curve" smooth="yes"/>
      <point x="-382" y="720"/>
      <point x="-373" y="684"/>
    </contour>
    <contour>
      <point x="-382" y="740" type="curve" smooth="yes"/>
      <point x="-354" y="740"/>
      <point x="-317" y="751"/>
      <point x="-289" y="766" type="curve"/>
      <point x="-309" y="865" type="line"/>
      <point x="-329" y="854"/>
      <point x="-339" y="852"/>
      <point x="-351" y="852" type="curve" smooth="yes"/>
      <point x="-372" y="852"/>
      <point x="-386" y="858"/>
      <point x="-400" y="896" type="curve"/>
      <point x="-542" y="856" type="line"/>
      <point x="-513" y="769"/>
      <point x="-469" y="740"/>
    </contour>
    <contour>
      <point x="52" y="695" type="curve" smooth="yes"/>
      <point x="197" y="695"/>
      <point x="240" y="778"/>
      <point x="240" y="886" type="curve"/>
      <point x="92" y="896" type="line"/>
      <point x="91" y="829"/>
      <point x="75" y="810"/>
      <point x="54" y="810" type="curve" smooth="yes"/>
      <point x="31" y="810"/>
      <point x="18" y="826"/>
      <point x="17" y="896" type="curve"/>
      <point x="-123" y="886" type="line"/>
      <point x="-123" y="787"/>
      <point x="-68" y="695"/>
    </contour>
  </outline>
</glyph>
<glyph name="aumatrabindiguru" format="2">
  <outline>
    <contour>
      <point x="-403" y="659" type="curve"/>
      <point x="-265" y="682" type="line"/>
      <point x="-273" y="701"/>
      <point x="-278" y="717"/>
      <point x="-278" y="734" type="curve" smooth="yes"/>
      <point x="-278" y="760"/>
      <point x="-261" y="773"/>
      <point x="-239" y="773" type="curve" smooth="yes"/>
      <point x="-217" y="773"/>
      <point x="-203" y="759"/>
      <point x="-203" y="734" type="curve" smooth="yes"/>
      <point x="-203" y="717"/>
      <point x="-208" y="701"/>
      <point x="-216" y="682" type="curve"/>
      <point x="-77" y="659" type="line"/>
      <point x="-63" y="691"/>
      <point x="-57" y="722"/>
      <point x="-57" y="754" type="curve" smooth="yes"/>
      <point x="-57" y="834"/>
      <point x="-123" y="888"/>
      <point x="-235" y="888" type="curve" smooth="yes"/>
      <point x="-357" y="888"/>
      <point x="-424" y="835"/>
      <point x="-424" y="754" type="curve" smooth="yes"/>
      <point x="-424" y="720"/>
      <point x="-415" y="684"/>
    </contour>
    <contour>
      <point x="-424" y="740" type="curve" smooth="yes"/>
      <point x="-396" y="740"/>
      <point x="-359" y="751"/>
      <point x="-331" y="766" type="curve"/>
      <point x="-351" y="865" type="line"/>
      <point x="-371" y="854"/>
      <point x="-381" y="852"/>
      <point x="-398" y="852" type="curve" smooth="yes"/>
      <point x="-422" y="852"/>
      <point x="-440" y="858"/>
      <point x="-454" y="896" type="curve"/>
      <point x="-596" y="856" type="line"/>
      <point x="-567" y="769"/>
      <point x="-521" y="740"/>
    </contour>
    <contour>
      <point x="30" y="734" type="curve" smooth="yes"/>
      <point x="86" y="734"/>
      <point x="118" y="765"/>
      <point x="118" y="815" type="curve" smooth="yes"/>
      <point x="118" y="863"/>
      <point x="86" y="896"/>
      <point x="30" y="896" type="curve" smooth="yes"/>
      <point x="-27" y="896"/>
      <point x="-59" y="863"/>
      <point x="-59" y="815" type="curve" smooth="yes"/>
      <point x="-59" y="765"/>
      <point x="-27" y="734"/>
    </contour>
  </outline>
</glyph>
<glyph name="baUIguru" format="2">
  <advance width="690"/>
  <outline>
    <contour>
      <point x="28" y="261" type="curve"/>
      <point x="86" y="140"/>
      <point x="188" y="84"/>
      <point x="311" y="84" type="curve" smooth="yes"/>
      <point x="381" y="84"/>
      <point x="424" y="94"/>
      <point x="472" y="115" type="curve"/>
      <point x="465" y="252" type="line"/>
      <point x="427" y="230"/>
      <point x="386" y="218"/>
      <point x="325" y="218" type="curve" smooth="yes"/>
      <point x="259" y="218"/>
      <point x="220" y="244"/>
      <point x="199" y="288" type="curve"/>
      <point x="198" y="234" type="line"/>
      <point x="240" y="277"/>
      <point x="272" y="291"/>
      <point x="342" y="291" type="curve" smooth="yes"/>
      <point x="464" y="291" type="line"/>
      <point x="466" y="418" type="line"/>
      <point x="342" y="418" type="line" smooth="yes"/>
      <point x="282" y="418"/>
      <point x="260" y="424"/>
      <point x="243" y="439" type="curve" smooth="yes"/>
      <point x="229" y="451"/>
      <point x="223" y="473"/>
      <point x="223" y="498" type="curve"/>
      <point x="169" y="484" type="line"/>
      <point x="564" y="484" type="line"/>
      <point x="581" y="622" type="line"/>
      <point x="-7" y="622" type="line"/>
      <point x="-7" y="484" type="line"/>
      <point x="83" y="484" type="line"/>
      <point x="46" y="509" type="line"/>
      <point x="46" y="409"/>
      <point x="106" y="353"/>
      <point x="185" y="335" type="curve"/>
      <point x="204" y="377" type="line"/>
      <point x="128" y="363"/>
      <point x="70" y="321"/>
    </contour>
    <contour>
      <point x="443" y="80" type="line"/>
      <point x="620" y="80" type="line"/>
      <point x="620" y="484" type="line"/>
      <point x="697" y="484" type="line"/>
      <point x="697" y="622" type="line"/>
      <point x="352" y="622" type="line"/>
      <point x="352" y="484" type="line"/>
      <point x="443" y="484" type="line"/>
    </contour>
  </outline>
</glyph>
<glyph name="eematraaddakaltguru" format="2">
  <advance width="69"/>
  <outline>
    <contour>
      <point x="76" y="484" type="line"/>
      <point x="76" y="622" type="line"/>
      <point x="-7" y="622" type="line"/>
      <point x="-7" y="484" type="line"/>
    </contour>
    <component base="eematraaddakguru"/>
  </outline>
</glyph>
<glyph name="eematraaddakguru" format="2">
  <outline>
    <contour>
      <point x="-246" y="615" type="curve"/>
      <point x="-81" y="615" type="line"/>
      <point x="-156" y="839"/>
      <point x="-260" y="896"/>
      <point x="-404" y="896" type="curve" smooth="yes"/>
      <point x="-422" y="896"/>
      <point x="-440" y="895"/>
      <point x="-452" y="894" type="curve"/>
      <point x="-443" y="744" type="line"/>
      <point x="-435" y="745"/>
      <point x="-425" y="746"/>
      <point x="-415" y="746" type="curve" smooth="yes"/>
      <point x="-339" y="746"/>
      <point x="-282" y="708"/>
    </contour>
    <contour>
      <point x="-31" y="677" type="curve" smooth="yes"/>
      <point x="114" y="677"/>
      <point x="157" y="760"/>
      <point x="157" y="868" type="curve"/>
      <point x="9" y="878" type="line"/>
      <point x="8" y="811"/>
      <point x="-8" y="792"/>
      <point x="-29" y="792" type="curve" smooth="yes"/>
      <point x="-52" y="792"/>
      <point x="-65" y="808"/>
      <point x="-66" y="878" type="curve"/>
      <point x="-206" y="868" type="line"/>
      <point x="-206" y="749"/>
      <point x="-151" y="677"/>
    </contour>
  </outline>
</glyph>
<glyph name="eematrabindiguru" format="2">
  <outline>
    <contour>
      <point x="-246" y="615" type="curve"/>
      <point x="-81" y="615" type="line"/>
      <point x="-132" y="828"/>
      <point x="-244" y="896"/>
      <point x="-394" y="896" type="curve" smooth="yes"/>
      <point x="-412" y="896"/>
      <point x="-430" y="895"/>
      <point x="-442" y="894" type="curve"/>
      <point x="-433" y="744" type="line"/>
      <point x="-425" y="745"/>
      <point x="-415" y="746"/>
      <point x="-405" y="746" type="curve" smooth="yes"/>
      <point x="-329" y="746"/>
      <point x="-277" y="708"/>
    </contour>
    <contour>
      <point x="-52" y="734" type="curve" smooth="yes"/>
      <point x="4" y="734"/>
      <point x="36" y="765"/>
      <point x="36" y="815" type="curve" smooth="yes"/>
      <point x="36" y="863"/>
      <point x="4" y="896"/>
      <point x="-52" y="896" type="curve" smooth="yes"/>
      <point x="-109" y="896"/>
      <point x="-141" y="863"/>
      <point x="-141" y="815" type="curve" smooth="yes"/>
      <point x="-141" y="765"/>
      <point x="-109" y="734"/>
    </contour>
  </outline>
</glyph>
<glyph name="gaUIguru" format="2">
  <advance width="887"/>
  <outline>
    <contour>
      <point x="323" y="30" type="curve" smooth="yes"/>
      <point x="457" y="30"/>
      <point x="528" y="81"/>
      <point x="528" y="217" type="curve" smooth="yes"/>
      <point x="528" y="484" type="line"/>
      <point x="598" y="484" type="line"/>
      <point x="598" y="622" type="line"/>
      <point x="-7" y="622" type="line"/>
      <point x="-7" y="484" type="line"/>
      <point x="354" y="484" type="line"/>
      <point x="354" y="435" type="line"/>
      <point x="273" y="435" type="line" smooth="yes"/>
      <point x="172" y="435"/>
      <point x="113" y="420"/>
      <point x="72" y="386" type="curve" smooth="yes"/>
      <point x="43" y="361"/>
      <point x="25" y="328"/>
      <point x="25" y="282" type="curve" smooth="yes"/>
      <point x="25" y="137"/>
      <point x="163" y="30"/>
    </contour>
    <contour>
      <point x="315" y="169" type="curve" smooth="yes"/>
      <point x="260" y="169"/>
      <point x="203" y="223"/>
      <point x="203" y="263" type="curve" smooth="yes"/>
      <point x="203" y="273"/>
      <point x="207" y="281"/>
      <point x="214" y="287" type="curve" smooth="yes"/>
      <point x="224" y="294"/>
      <point x="236" y="297"/>
      <point x="266" y="297" type="curve" smooth="yes"/>
      <point x="351" y="297" type="line"/>
      <point x="351" y="214" type="line" smooth="yes"/>
      <point x="351" y="194"/>
      <point x="348" y="183"/>
      <point x="340" y="176" type="curve" smooth="yes"/>
      <point x="334" y="171"/>
      <point x="328" y="169"/>
    </contour>
    <contour>
      <point x="640" y="81" type="line"/>
      <point x="817" y="81" type="line"/>
      <point x="817" y="484" type="line"/>
      <point x="894" y="484" type="line"/>
      <point x="894" y="622" type="line"/>
      <point x="572" y="622" type="line"/>
      <point x="572" y="484" type="line"/>
      <point x="640" y="484" type="line"/>
    </contour>
  </outline>
</glyph>
<glyph name="hasubscript1UIguru" format="2">
  <outline>
    <contour>
      <point x="-262" y="-271" type="curve" smooth="yes"/>
      <point x="-204" y="-271"/>
      <point x="-161" y="-258"/>
      <point x="-130" y="-233" type="curve" smooth="yes"/>
      <point x="-97" y="-206"/>
      <point x="-80" y="-167"/>
      <point x="-80" y="-97" type="curve" smooth="yes"/>
      <point x="-80" y="64" type="line"/>
      <point x="-247" y="30" type="line"/>
      <point x="-247" y="-136" type="line" smooth="yes"/>
      <point x="-247" y="-163"/>
      <point x="-256" y="-170"/>
      <point x="-278" y="-170" type="curve" smooth="yes"/>
      <point x="-309" y="-170"/>
      <point x="-343" y="-153"/>
      <point x="-343" y="-137" type="curve" smooth="yes"/>
      <point x="-343" y="-122"/>
      <point x="-331" y="-119"/>
      <point x="-295" y="-119" type="curve"/>
      <point x="-292" y="-19" type="line"/>
      <point x="-297" y="-19" type="line" smooth="yes"/>
      <point x="-380" y="-19"/>
      <point x="-420" y="-24"/>
      <point x="-455" y="-46" type="curve" smooth="yes"/>
      <point x="-480" y="-62"/>
      <point x="-496" y="-83"/>
      <point x="-496" y="-114" type="curve" smooth="yes"/>
      <point x="-496" y="-202"/>
      <point x="-402" y="-271"/>
    </contour>
  </outline>
</glyph>
<glyph name="hasubscript1guru" format="2">
  <outline>
    <contour>
      <point x="-262" y="-322" type="curve" smooth="yes"/>
      <point x="-204" y="-322"/>
      <point x="-160" y="-308"/>
      <point x="-130" y="-281" type="curve" smooth="yes"/>
      <point x="-97" y="-251"/>
      <point x="-80" y="-209"/>
      <point x="-80" y="-132" type="curve" smooth="yes"/>
      <point x="-80" y="64" type="line"/>
      <point x="-247" y="30" type="line"/>
      <point x="-247" y="-175" type="line" smooth="yes"/>
      <point x="-247" y="-204"/>
      <point x="-256" y="-212"/>
      <point x="-278" y="-212" type="curve" smooth="yes"/>
      <point x="-309" y="-212"/>
      <point x="-343" y="-193"/>
      <point x="-343" y="-176" type="curve" smooth="yes"/>
      <point x="-343" y="-159"/>
      <point x="-331" y="-155"/>
      <point x="-295" y="-155" type="curve"/>
      <point x="-292" y="-46" type="line"/>
      <point x="-297" y="-46" type="line" smooth="yes"/>
      <point x="-380" y="-46"/>
      <point x="-420" y="-52"/>
      <point x="-455" y="-76" type="curve" smooth="yes"/>
      <point x="-480" y="-93"/>
      <point x="-496" y="-117"/>
      <point x="-496" y="-151" type="curve" smooth="yes"/>
      <point x="-496" y="-247"/>
      <point x="-402" y="-322"/>
    </contour>
  </outline>
</glyph>
<glyph name="hasubscriptUIguru" format="2">
  <outline>
    <contour>
      <point x="-262" y="-271" type="curve" smooth="yes"/>
      <point x="-201" y="-271"/>
      <point x="-155" y="-258"/>
      <point x="-123" y="-233" type="curve" smooth="yes"/>
      <point x="-88" y="-206"/>
      <point x="-70" y="-167"/>
      <point x="-70" y="-97" type="curve" smooth="yes"/>
      <point x="-70" y="0" type="line"/>
      <point x="-247" y="0" type="line"/>
      <point x="-247" y="-136" type="line" smooth="yes"/>
      <point x="-247" y="-163"/>
      <point x="-256" y="-170"/>
      <point x="-278" y="-170" type="curve" smooth="yes"/>
      <point x="-309" y="-170"/>
      <point x="-343" y="-153"/>
      <point x="-343" y="-137" type="curve" smooth="yes"/>
      <point x="-343" y="-122"/>
      <point x="-331" y="-119"/>
      <point x="-295" y="-119" type="curve"/>
      <point x="-292" y="-19" type="line"/>
      <point x="-297" y="-19" type="line" smooth="yes"/>
      <point x="-380" y="-19"/>
      <point x="-420" y="-24"/>
      <point x="-455" y="-46" type="curve" smooth="yes"/>
      <point x="-480" y="-62"/>
      <point x="-496" y="-83"/>
      <point x="-496" y="-114" type="curve" smooth="yes"/>
      <point x="-496" y="-202"/>
      <point x="-402" y="-271"/>
    </contour>
  </outline>
</glyph>
<glyph name="hasubscriptguru" format="2">
  <outline>
    <contour>
      <point x="-262" y="-322" type="curve" smooth="yes"/>
      <point x="-201" y="-322"/>
      <point x="-155" y="-308"/>
      <point x="-123" y="-281" type="curve" smooth="yes"/>
      <point x="-88" y="-251"/>
      <point x="-70" y="-209"/>
      <point x="-70" y="-132" type="curve" smooth="yes"/>
      <point x="-70" y="0" type="line"/>
      <point x="-247" y="0" type="line"/>
      <point x="-247" y="-175" type="line" smooth="yes"/>
      <point x="-247" y="-204"/>
      <point x="-256" y="-212"/>
      <point x="-278" y="-212" type="curve" smooth="yes"/>
      <point x="-309" y="-212"/>
      <point x="-343" y="-193"/>
      <point x="-343" y="-176" type="curve" smooth="yes"/>
      <point x="-343" y="-159"/>
      <point x="-331" y="-155"/>
      <point x="-295" y="-155" type="curve"/>
      <point x="-292" y="-46" type="line"/>
      <point x="-302" y="-46" type="line" smooth="yes"/>
      <point x="-380" y="-46"/>
      <point x="-423" y="-52"/>
      <point x="-458" y="-76" type="curve" smooth="yes"/>
      <point x="-483" y="-93"/>
      <point x="-496" y="-117"/>
      <point x="-496" y="-151" type="curve" smooth="yes"/>
      <point x="-496" y="-247"/>
      <point x="-402" y="-322"/>
    </contour>
  </outline>
</glyph>
<glyph name="hasubscripthalantguru" format="2">
  <outline>
    <contour>
      <point x="-262" y="-313" type="curve" smooth="yes"/>
      <point x="-201" y="-313"/>
      <point x="-155" y="-299"/>
      <point x="-123" y="-272" type="curve" smooth="yes"/>
      <point x="-88" y="-242"/>
      <point x="-70" y="-200"/>
      <point x="-70" y="-123" type="curve" smooth="yes"/>
      <point x="-70" y="0" type="line"/>
      <point x="-247" y="0" type="line"/>
      <point x="-247" y="-166" type="line" smooth="yes"/>
      <point x="-247" y="-195"/>
      <point x="-256" y="-203"/>
      <point x="-278" y="-203" type="curve" smooth="yes"/>
      <point x="-309" y="-203"/>
      <point x="-343" y="-184"/>
      <point x="-343" y="-167" type="curve" smooth="yes"/>
      <point x="-343" y="-150"/>
      <point x="-331" y="-146"/>
      <point x="-295" y="-146" type="curve"/>
      <point x="-292" y="-37" type="line"/>
      <point x="-302" y="-37" type="line" smooth="yes"/>
      <point x="-380" y="-37"/>
      <point x="-423" y="-43"/>
      <point x="-458" y="-67" type="curve" smooth="yes"/>
      <point x="-483" y="-84"/>
      <point x="-496" y="-108"/>
      <point x="-496" y="-142" type="curve" smooth="yes"/>
      <point x="-496" y="-238"/>
      <point x="-402" y="-313"/>
    </contour>
    <contour>
      <point x="57" y="-406" type="curve"/>
      <point x="192" y="-360" type="line"/>
      <point x="125" y="-223"/>
      <point x="11" y="-196"/>
      <point x="-71" y="-196" type="curve" smooth="yes"/>
      <point x="-81" y="-196"/>
      <point x="-96" y="-197"/>
      <point x="-111" y="-198" type="curve"/>
      <point x="-102" y="-338" type="line"/>
      <point x="-93" y="-337"/>
      <point x="-85" y="-337"/>
      <point x="-78" y="-337" type="curve" smooth="yes"/>
      <point x="-19" y="-337"/>
      <point x="26" y="-355"/>
    </contour>
  </outline>
</glyph>
<glyph name="hasubscriptuUIguru" format="2">
  <outline>
    <contour>
      <point x="-262" y="-182" type="curve" smooth="yes"/>
      <point x="-201" y="-181"/>
      <point x="-155" y="-173"/>
      <point x="-123" y="-148" type="curve" smooth="yes"/>
      <point x="-88" y="-121"/>
      <point x="-70" y="-82"/>
      <point x="-70" y="-12" type="curve" smooth="yes"/>
      <point x="-70" y="85" type="line"/>
      <point x="-247" y="85" type="line"/>
      <point x="-247" y="-51" type="line" smooth="yes"/>
      <point x="-247" y="-78"/>
      <point x="-256" y="-85"/>
      <point x="-278" y="-85" type="curve" smooth="yes"/>
      <point x="-309" y="-85"/>
      <point x="-343" y="-68"/>
      <point x="-343" y="-52" type="curve" smooth="yes"/>
      <point x="-343" y="-37"/>
      <point x="-331" y="-34"/>
      <point x="-295" y="-34" type="curve"/>
      <point x="-292" y="66" type="line"/>
      <point x="-297" y="66" type="line" smooth="yes"/>
      <point x="-380" y="66"/>
      <point x="-420" y="61"/>
      <point x="-455" y="39" type="curve" smooth="yes"/>
      <point x="-480" y="23"/>
      <point x="-496" y="2"/>
      <point x="-496" y="-29" type="curve" smooth="yes"/>
      <point x="-496" y="-117"/>
      <point x="-401" y="-185"/>
    </contour>
    <contour>
      <point x="-417" y="-271" type="curve" smooth="yes"/>
      <point x="-331" y="-271"/>
      <point x="-260" y="-251"/>
      <point x="-217" y="-224" type="curve"/>
      <point x="-249" y="-130" type="line"/>
      <point x="-302" y="-154"/>
      <point x="-342" y="-168"/>
      <point x="-415" y="-168" type="curve" smooth="yes"/>
      <point x="-480" y="-168"/>
      <point x="-540" y="-149"/>
      <point x="-581" y="-128" type="curve"/>
      <point x="-617" y="-221" type="line"/>
      <point x="-567" y="-248"/>
      <point x="-504" y="-271"/>
    </contour>
  </outline>
</glyph>
<glyph name="hasubscriptuguru" format="2">
  <outline>
    <contour>
      <point x="-263" y="-279" type="curve" smooth="yes"/>
      <point x="-202" y="-279"/>
      <point x="-155" y="-268"/>
      <point x="-123" y="-243" type="curve" smooth="yes"/>
      <point x="-88" y="-215"/>
      <point x="-70" y="-175"/>
      <point x="-70" y="-103" type="curve" smooth="yes"/>
      <point x="-70" y="0" type="line"/>
      <point x="-247" y="0" type="line"/>
      <point x="-247" y="-144" type="line" smooth="yes"/>
      <point x="-247" y="-171"/>
      <point x="-256" y="-178"/>
      <point x="-278" y="-178" type="curve" smooth="yes"/>
      <point x="-309" y="-178"/>
      <point x="-343" y="-160"/>
      <point x="-343" y="-145" type="curve" smooth="yes"/>
      <point x="-343" y="-129"/>
      <point x="-331" y="-125"/>
      <point x="-295" y="-125" type="curve"/>
      <point x="-292" y="-23" type="line"/>
      <point x="-302" y="-23" type="line" smooth="yes"/>
      <point x="-380" y="-23"/>
      <point x="-423" y="-29"/>
      <point x="-458" y="-51" type="curve" smooth="yes"/>
      <point x="-483" y="-67"/>
      <point x="-496" y="-89"/>
      <point x="-496" y="-121" type="curve" smooth="yes"/>
      <point x="-496" y="-211"/>
      <point x="-397" y="-279"/>
    </contour>
    <contour>
      <point x="-392" y="-401" type="curve" smooth="yes"/>
      <point x="-288" y="-401"/>
      <point x="-219" y="-375"/>
      <point x="-167" y="-348" type="curve"/>
      <point x="-208" y="-243" type="line"/>
      <point x="-256" y="-268"/>
      <point x="-318" y="-285"/>
      <point x="-392" y="-285" type="curve" smooth="yes"/>
      <point x="-468" y="-285"/>
      <point x="-530" y="-268"/>
      <point x="-577" y="-243" type="curve"/>
      <point x="-618" y="-348" type="line"/>
      <point x="-566" y="-375"/>
      <point x="-494" y="-401"/>
    </contour>
  </outline>
</glyph>
<glyph name="hasubscriptuuUIguru" format="2">
  <outline>
    <contour>
      <point x="-262" y="-182" type="curve" smooth="yes"/>
      <point x="-201" y="-181"/>
      <point x="-155" y="-173"/>
      <point x="-123" y="-148" type="curve" smooth="yes"/>
      <point x="-88" y="-121"/>
      <point x="-70" y="-82"/>
      <point x="-70" y="-12" type="curve" smooth="yes"/>
      <point x="-70" y="85" type="line"/>
      <point x="-247" y="85" type="line"/>
      <point x="-247" y="-51" type="line" smooth="yes"/>
      <point x="-247" y="-78"/>
      <point x="-256" y="-85"/>
      <point x="-278" y="-85" type="curve" smooth="yes"/>
      <point x="-309" y="-85"/>
      <point x="-343" y="-68"/>
      <point x="-343" y="-52" type="curve" smooth="yes"/>
      <point x="-343" y="-37"/>
      <point x="-331" y="-34"/>
      <point x="-295" y="-34" type="curve"/>
      <point x="-292" y="66" type="line"/>
      <point x="-297" y="66" type="line" smooth="yes"/>
      <point x="-380" y="66"/>
      <point x="-420" y="61"/>
      <point x="-455" y="39" type="curve" smooth="yes"/>
      <point x="-480" y="23"/>
      <point x="-496" y="2"/>
      <point x="-496" y="-29" type="curve" smooth="yes"/>
      <point x="-496" y="-117"/>
      <point x="-401" y="-185"/>
    </contour>
    <contour>
      <point x="-477" y="-155" type="curve" smooth="yes"/>
      <point x="-430" y="-155"/>
      <point x="-390" y="-149"/>
      <point x="-354" y="-138" type="curve"/>
      <point x="-400" y="-64" type="line"/>
      <point x="-426" y="-69"/>
      <point x="-450" y="-71"/>
      <point x="-474" y="-71" type="curve" smooth="yes"/>
      <point x="-539" y="-71"/>
      <point x="-596" y="-57"/>
      <point x="-657" y="-24" type="curve"/>
      <point x="-690" y="-98" type="line"/>
      <point x="-630" y="-131"/>
      <point x="-556" y="-155"/>
    </contour>
    <contour>
      <point x="-477" y="-271" type="curve" smooth="yes"/>
      <point x="-391" y="-271"/>
      <point x="-315" y="-254"/>
      <point x="-255" y="-220" type="curve"/>
      <point x="-285" y="-146" type="line"/>
      <point x="-345" y="-174"/>
      <point x="-399" y="-184"/>
      <point x="-473" y="-184" type="curve" smooth="yes"/>
      <point x="-544" y="-184"/>
      <point x="-597" y="-173"/>
      <point x="-658" y="-146" type="curve"/>
      <point x="-690" y="-220" type="line"/>
      <point x="-631" y="-253"/>
      <point x="-553" y="-271"/>
    </contour>
  </outline>
</glyph>
<glyph name="hasubscriptuuguru" format="2">
  <outline>
    <contour>
      <point x="-262" y="-294" type="curve" smooth="yes"/>
      <point x="-201" y="-294"/>
      <point x="-155" y="-280"/>
      <point x="-123" y="-253" type="curve" smooth="yes"/>
      <point x="-88" y="-223"/>
      <point x="-70" y="-181"/>
      <point x="-70" y="-104" type="curve" smooth="yes"/>
      <point x="-70" y="0" type="line"/>
      <point x="-247" y="0" type="line"/>
      <point x="-247" y="-147" type="line" smooth="yes"/>
      <point x="-247" y="-176"/>
      <point x="-256" y="-184"/>
      <point x="-278" y="-184" type="curve" smooth="yes"/>
      <point x="-309" y="-184"/>
      <point x="-343" y="-165"/>
      <point x="-343" y="-148" type="curve" smooth="yes"/>
      <point x="-343" y="-131"/>
      <point x="-331" y="-127"/>
      <point x="-295" y="-127" type="curve"/>
      <point x="-292" y="-18" type="line"/>
      <point x="-302" y="-18" type="line" smooth="yes"/>
      <point x="-380" y="-18"/>
      <point x="-423" y="-24"/>
      <point x="-458" y="-48" type="curve" smooth="yes"/>
      <point x="-483" y="-65"/>
      <point x="-496" y="-89"/>
      <point x="-496" y="-123" type="curve" smooth="yes"/>
      <point x="-496" y="-219"/>
      <point x="-402" y="-294"/>
    </contour>
    <contour>
      <point x="-424" y="-279" type="curve" smooth="yes"/>
      <point x="-372" y="-279"/>
      <point x="-323" y="-270"/>
      <point x="-280" y="-257" type="curve"/>
      <point x="-361" y="-176" type="line"/>
      <point x="-381" y="-178"/>
      <point x="-401" y="-179"/>
      <point x="-421" y="-179" type="curve" smooth="yes"/>
      <point x="-488" y="-179"/>
      <point x="-553" y="-166"/>
      <point x="-607" y="-140" type="curve"/>
      <point x="-644" y="-224" type="line"/>
      <point x="-586" y="-253"/>
      <point x="-510" y="-279"/>
    </contour>
    <contour>
      <point x="-424" y="-400" type="curve" smooth="yes"/>
      <point x="-338" y="-400"/>
      <point x="-254" y="-384"/>
      <point x="-195" y="-354" type="curve"/>
      <point x="-231" y="-271" type="line"/>
      <point x="-289" y="-296"/>
      <point x="-345" y="-305"/>
      <point x="-420" y="-305" type="curve" smooth="yes"/>
      <point x="-492" y="-305"/>
      <point x="-547" y="-295"/>
      <point x="-607" y="-271" type="curve"/>
      <point x="-644" y="-354" type="line"/>
      <point x="-587" y="-383"/>
      <point x="-507" y="-400"/>
    </contour>
  </outline>
</glyph>
<glyph name="iimatraaddakguru" format="2">
  <advance width="317"/>
  <outline>
    <contour>
      <point x="70" y="0" type="line"/>
      <point x="247" y="0" type="line"/>
      <point x="247" y="484" type="line"/>
      <point x="324" y="484" type="line"/>
      <point x="324" y="622" type="line"/>
      <point x="247" y="622" type="line"/>
      <point x="247" y="635" type="line" smooth="yes"/>
      <point x="247" y="778"/>
      <point x="158" y="896"/>
      <point x="-8" y="896" type="curve" smooth="yes"/>
      <point x="-153" y="896"/>
      <point x="-255" y="837"/>
      <point x="-255" y="700" type="curve" smooth="yes"/>
      <point x="-255" y="687"/>
      <point x="-253" y="668"/>
      <point x="-249" y="651" type="curve"/>
      <point x="-77" y="660" type="line"/>
      <point x="-79" y="669"/>
      <point x="-80" y="679"/>
      <point x="-80" y="694" type="curve" smooth="yes"/>
      <point x="-80" y="728"/>
      <point x="-58" y="759"/>
      <point x="-8" y="759" type="curve" smooth="yes"/>
      <point x="45" y="759"/>
      <point x="70" y="722"/>
      <point x="70" y="635" type="curve" smooth="yes"/>
      <point x="70" y="622" type="line"/>
      <point x="-7" y="622" type="line"/>
      <point x="-7" y="484" type="line"/>
      <point x="70" y="484" type="line"/>
    </contour>
    <contour>
      <point x="269" y="695" type="curve" smooth="yes"/>
      <point x="414" y="695"/>
      <point x="457" y="778"/>
      <point x="457" y="886" type="curve"/>
      <point x="309" y="896" type="line"/>
      <point x="308" y="829"/>
      <point x="292" y="810"/>
      <point x="271" y="810" type="curve" smooth="yes"/>
      <point x="248" y="810"/>
      <point x="235" y="826"/>
      <point x="234" y="896" type="curve"/>
      <point x="97" y="886" type="line"/>
      <point x="97" y="836"/>
      <point x="112" y="789"/>
      <point x="141" y="754" type="curve" smooth="yes"/>
      <point x="169" y="719"/>
      <point x="209" y="695"/>
    </contour>
  </outline>
</glyph>
<glyph name="kaUIguru" format="2">
  <advance width="689"/>
  <outline>
    <contour>
      <point x="472" y="85" type="curve"/>
      <point x="649" y="85" type="line"/>
      <point x="626" y="193"/>
      <point x="591" y="257"/>
      <point x="532" y="320" type="curve"/>
      <point x="491" y="341" type="line"/>
      <point x="428" y="405"/>
      <point x="360" y="434"/>
      <point x="253" y="434" type="curve" smooth="yes"/>
      <point x="110" y="434"/>
      <point x="23" y="365"/>
      <point x="23" y="242" type="curve" smooth="yes"/>
      <point x="23" y="121"/>
      <point x="116" y="49"/>
      <point x="260" y="49" type="curve" smooth="yes"/>
      <point x="374" y="49"/>
      <point x="462" y="95"/>
      <point x="526" y="181" type="curve"/>
      <point x="551" y="203" type="line"/>
      <point x="599" y="266"/>
      <point x="623" y="337"/>
      <point x="623" y="432" type="curve" smooth="yes"/>
      <point x="623" y="449"/>
      <point x="622" y="467"/>
      <point x="620" y="484" type="curve"/>
      <point x="696" y="484" type="line"/>
      <point x="696" y="622" type="line"/>
      <point x="-7" y="622" type="line"/>
      <point x="-7" y="484" type="line"/>
      <point x="445" y="484" type="line"/>
      <point x="448" y="470"/>
      <point x="450" y="452"/>
      <point x="450" y="435" type="curve" smooth="yes"/>
      <point x="450" y="407"/>
      <point x="447" y="369"/>
      <point x="439" y="339" type="curve"/>
      <point x="413" y="278" type="line"/>
      <point x="386" y="227"/>
      <point x="342" y="188"/>
      <point x="277" y="188" type="curve" smooth="yes"/>
      <point x="217" y="188"/>
      <point x="200" y="216"/>
      <point x="200" y="243" type="curve" smooth="yes"/>
      <point x="200" y="280"/>
      <point x="233" y="296"/>
      <point x="277" y="296" type="curve" smooth="yes"/>
      <point x="343" y="296"/>
      <point x="389" y="259"/>
      <point x="422" y="210" type="curve"/>
      <point x="441" y="172" type="line"/>
      <point x="450" y="150"/>
      <point x="465" y="111"/>
    </contour>
  </outline>
</glyph>
<glyph name="karaguru" format="2">
  <advance width="689"/>
  <outline>
    <contour>
      <point x="399" y="-271" type="curve"/>
      <point x="498" y="-206" type="line"/>
      <point x="458" y="-152"/>
      <point x="418" y="-115"/>
      <point x="372" y="-86" type="curve"/>
      <point x="375" y="-68"/>
      <point x="378" y="-44"/>
      <point x="378" y="-8" type="curve" smooth="yes"/>
      <point x="378" y="110" type="line"/>
      <point x="205" y="110" type="line"/>
      <point x="205" y="-29" type="line" smooth="yes"/>
      <point x="205" y="-37"/>
      <point x="205" y="-44"/>
      <point x="204" y="-52" type="curve"/>
      <point x="196" y="-51"/>
      <point x="189" y="-51"/>
      <point x="184" y="-51" type="curve" smooth="yes"/>
      <point x="118" y="-51"/>
      <point x="68" y="-74"/>
      <point x="68" y="-135" type="curve" smooth="yes"/>
      <point x="68" y="-197"/>
      <point x="118" y="-223"/>
      <point x="196" y="-223" type="curve" smooth="yes"/>
      <point x="248" y="-223"/>
      <point x="282" y="-207"/>
      <point x="313" y="-184" type="curve"/>
      <point x="342" y="-206"/>
      <point x="368" y="-233"/>
    </contour>
    <component base="kaguru"/>
  </outline>
</glyph>
<glyph name="laUIguru" format="2">
  <advance width="752"/>
  <outline>
    <contour>
      <point x="376" y="253" type="curve"/>
      <point x="524" y="286"/>
      <point x="618" y="403"/>
      <point x="640" y="484" type="curve"/>
      <point x="759" y="484" type="line"/>
      <point x="759" y="622" type="line"/>
      <point x="-7" y="622" type="line"/>
      <point x="-7" y="484" type="line"/>
      <point x="109" y="484" type="line"/>
      <point x="137" y="397"/>
      <point x="232" y="291"/>
    </contour>
    <contour>
      <point x="455" y="484" type="line"/>
      <point x="439" y="437"/>
      <point x="397" y="401"/>
      <point x="322" y="375" type="curve"/>
      <point x="430" y="375" type="line"/>
      <point x="350" y="403"/>
      <point x="308" y="439"/>
      <point x="293" y="484" type="curve"/>
    </contour>
    <contour>
      <point x="25" y="240" type="curve" smooth="yes"/>
      <point x="25" y="151"/>
      <point x="100" y="77"/>
      <point x="277" y="77" type="curve" smooth="yes"/>
      <point x="309" y="77" type="line"/>
      <point x="318" y="205" type="line"/>
      <point x="282" y="205" type="line" smooth="yes"/>
      <point x="228" y="205"/>
      <point x="202" y="212"/>
      <point x="202" y="246" type="curve" smooth="yes"/>
      <point x="202" y="277"/>
      <point x="244" y="302"/>
      <point x="322" y="322" type="curve"/>
      <point x="211" y="425" type="line"/>
      <point x="78" y="380"/>
      <point x="25" y="321"/>
    </contour>
    <contour>
      <point x="727" y="240" type="curve" smooth="yes"/>
      <point x="727" y="321"/>
      <point x="672" y="380"/>
      <point x="541" y="425" type="curve"/>
      <point x="430" y="322" type="line"/>
      <point x="508" y="302"/>
      <point x="550" y="277"/>
      <point x="550" y="246" type="curve" smooth="yes"/>
      <point x="550" y="213"/>
      <point x="519" y="205"/>
      <point x="469" y="205" type="curve" smooth="yes"/>
      <point x="434" y="205" type="line"/>
      <point x="443" y="77" type="line"/>
      <point x="475" y="77" type="line" smooth="yes"/>
      <point x="652" y="77"/>
      <point x="727" y="151"/>
    </contour>
  </outline>
</glyph>
<glyph name="ooaddakguru" format="2">
  <advance width="723"/>
  <outline>
    <contour>
      <point x="391" y="0" type="curve" smooth="yes"/>
      <point x="564" y="0"/>
      <point x="644" y="62"/>
      <point x="644" y="170" type="curve" smooth="yes"/>
      <point x="644" y="245"/>
      <point x="591" y="317"/>
      <point x="459" y="338" type="curve"/>
      <point x="473" y="277" type="line"/>
      <point x="634" y="317"/>
      <point x="710" y="392"/>
      <point x="710" y="550" type="curve"/>
      <point x="710" y="574" type="line"/>
      <point x="533" y="566" type="line"/>
      <point x="533" y="540" type="line"/>
      <point x="533" y="470"/>
      <point x="514" y="427"/>
      <point x="472" y="403" type="curve" smooth="yes"/>
      <point x="440" y="385"/>
      <point x="406" y="378"/>
      <point x="320" y="378" type="curve" smooth="yes"/>
      <point x="151" y="378" type="line"/>
      <point x="161" y="242" type="line"/>
      <point x="331" y="242" type="line" smooth="yes"/>
      <point x="395" y="242"/>
      <point x="421" y="238"/>
      <point x="438" y="230" type="curve" smooth="yes"/>
      <point x="456" y="222"/>
      <point x="465" y="208"/>
      <point x="465" y="189" type="curve" smooth="yes"/>
      <point x="465" y="161"/>
      <point x="443" y="138"/>
      <point x="377" y="138" type="curve" smooth="yes"/>
      <point x="268" y="138"/>
      <point x="216" y="211"/>
      <point x="216" y="412" type="curve" smooth="yes"/>
      <point x="216" y="540"/>
      <point x="225" y="618"/>
      <point x="273" y="663" type="curve" smooth="yes"/>
      <point x="310" y="698"/>
      <point x="358" y="715"/>
      <point x="504" y="715" type="curve" smooth="yes"/>
      <point x="605" y="715" type="line"/>
      <point x="614" y="854" type="line"/>
      <point x="512" y="854" type="line" smooth="yes"/>
      <point x="327" y="854"/>
      <point x="252" y="832"/>
      <point x="184" y="786" type="curve" smooth="yes"/>
      <point x="88" y="721"/>
      <point x="39" y="622"/>
      <point x="39" y="421" type="curve" smooth="yes"/>
      <point x="39" y="134"/>
      <point x="163" y="0"/>
    </contour>
    <contour>
      <point x="-7" y="484" type="line"/>
      <point x="764" y="484" type="line"/>
      <point x="764" y="622" type="line"/>
      <point x="-7" y="622" type="line"/>
    </contour>
    <contour>
      <point x="688" y="667" type="curve" smooth="yes"/>
      <point x="834" y="667"/>
      <point x="872" y="750"/>
      <point x="872" y="868" type="curve"/>
      <point x="724" y="878" type="line"/>
      <point x="723" y="801"/>
      <point x="712" y="782"/>
      <point x="685" y="782" type="curve" smooth="yes"/>
      <point x="660" y="782"/>
      <point x="648" y="798"/>
      <point x="647" y="878" type="curve"/>
      <point x="499" y="868" type="line"/>
      <point x="499" y="750"/>
      <point x="544" y="667"/>
    </contour>
  </outline>
</glyph>
<glyph name="oobindiguru" format="2">
  <advance width="723"/>
  <outline>
    <contour>
      <point x="391" y="0" type="curve" smooth="yes"/>
      <point x="564" y="0"/>
      <point x="644" y="62"/>
      <point x="644" y="170" type="curve" smooth="yes"/>
      <point x="644" y="245"/>
      <point x="591" y="317"/>
      <point x="459" y="338" type="curve"/>
      <point x="473" y="277" type="line"/>
      <point x="634" y="317"/>
      <point x="710" y="392"/>
      <point x="710" y="550" type="curve"/>
      <point x="710" y="574" type="line"/>
      <point x="533" y="566" type="line"/>
      <point x="533" y="540" type="line"/>
      <point x="533" y="470"/>
      <point x="514" y="427"/>
      <point x="472" y="403" type="curve" smooth="yes"/>
      <point x="440" y="385"/>
      <point x="406" y="378"/>
      <point x="320" y="378" type="curve" smooth="yes"/>
      <point x="151" y="378" type="line"/>
      <point x="161" y="242" type="line"/>
      <point x="331" y="242" type="line" smooth="yes"/>
      <point x="395" y="242"/>
      <point x="421" y="238"/>
      <point x="438" y="230" type="curve" smooth="yes"/>
      <point x="456" y="222"/>
      <point x="465" y="208"/>
      <point x="465" y="189" type="curve" smooth="yes"/>
      <point x="465" y="161"/>
      <point x="443" y="138"/>
      <point x="377" y="138" type="curve" smooth="yes"/>
      <point x="268" y="138"/>
      <point x="216" y="211"/>
      <point x="216" y="412" type="curve" smooth="yes"/>
      <point x="216" y="540"/>
      <point x="225" y="618"/>
      <point x="273" y="663" type="curve" smooth="yes"/>
      <point x="310" y="698"/>
      <point x="358" y="715"/>
      <point x="504" y="715" type="curve" smooth="yes"/>
      <point x="530" y="715" type="line"/>
      <point x="546" y="854" type="line"/>
      <point x="512" y="854" type="line" smooth="yes"/>
      <point x="327" y="854"/>
      <point x="252" y="832"/>
      <point x="184" y="786" type="curve" smooth="yes"/>
      <point x="88" y="721"/>
      <point x="39" y="622"/>
      <point x="39" y="421" type="curve" smooth="yes"/>
      <point x="39" y="134"/>
      <point x="163" y="0"/>
    </contour>
    <contour>
      <point x="-7" y="484" type="line"/>
      <point x="764" y="484" type="line"/>
      <point x="764" y="622" type="line"/>
      <point x="-7" y="622" type="line"/>
    </contour>
    <contour>
      <point x="649" y="650" type="curve" smooth="yes"/>
      <point x="705" y="650"/>
      <point x="737" y="681"/>
      <point x="737" y="731" type="curve" smooth="yes"/>
      <point x="737" y="779"/>
      <point x="705" y="812"/>
      <point x="649" y="812" type="curve" smooth="yes"/>
      <point x="592" y="812"/>
      <point x="560" y="779"/>
      <point x="560" y="731" type="curve" smooth="yes"/>
      <point x="560" y="681"/>
      <point x="592" y="650"/>
    </contour>
  </outline>
</glyph>
<glyph name="oomatraaddakaltguru" format="2">
  <advance width="69"/>
  <outline>
    <contour>
      <point x="76" y="484" type="line"/>
      <point x="76" y="622" type="line"/>
      <point x="-7" y="622" type="line"/>
      <point x="-7" y="484" type="line"/>
    </contour>
    <component base="oomatraaddakguru"/>
  </outline>
</glyph>
<glyph name="oomatraaddakguru" format="2">
  <outline>
    <contour>
      <point x="-244" y="615" type="curve"/>
      <point x="-84" y="615" type="line"/>
      <point x="-100" y="757"/>
      <point x="-153" y="837"/>
      <point x="-262" y="837" type="curve" smooth="yes"/>
      <point x="-301" y="837"/>
      <point x="-323" y="832"/>
      <point x="-350" y="832" type="curve" smooth="yes"/>
      <point x="-380" y="832"/>
      <point x="-393" y="847"/>
      <point x="-407" y="896" type="curve"/>
      <point x="-554" y="855" type="line"/>
      <point x="-524" y="734"/>
      <point x="-476" y="690"/>
      <point x="-388" y="690" type="curve" smooth="yes"/>
      <point x="-358" y="690"/>
      <point x="-330" y="694"/>
      <point x="-307" y="694" type="curve" smooth="yes"/>
      <point x="-274" y="694"/>
      <point x="-253" y="679"/>
    </contour>
    <contour>
      <point x="-31" y="677" type="curve" smooth="yes"/>
      <point x="114" y="677"/>
      <point x="157" y="760"/>
      <point x="157" y="868" type="curve"/>
      <point x="9" y="878" type="line"/>
      <point x="8" y="811"/>
      <point x="-8" y="792"/>
      <point x="-29" y="792" type="curve" smooth="yes"/>
      <point x="-52" y="792"/>
      <point x="-65" y="808"/>
      <point x="-66" y="878" type="curve"/>
      <point x="-206" y="868" type="line"/>
      <point x="-206" y="769"/>
      <point x="-151" y="677"/>
    </contour>
  </outline>
</glyph>
<glyph name="oomatrabindi1guru" format="2">
  <outline>
    <contour>
      <point x="-239" y="615" type="curve"/>
      <point x="-79" y="615" type="line"/>
      <point x="-79" y="758"/>
      <point x="-134" y="837"/>
      <point x="-231" y="837" type="curve" smooth="yes"/>
      <point x="-260" y="837"/>
      <point x="-279" y="833"/>
      <point x="-299" y="833" type="curve" smooth="yes"/>
      <point x="-329" y="833"/>
      <point x="-338" y="847"/>
      <point x="-352" y="896" type="curve"/>
      <point x="-499" y="859" type="line"/>
      <point x="-472" y="738"/>
      <point x="-425" y="691"/>
      <point x="-349" y="691" type="curve" smooth="yes"/>
      <point x="-329" y="691"/>
      <point x="-305" y="694"/>
      <point x="-289" y="694" type="curve" smooth="yes"/>
      <point x="-261" y="694"/>
      <point x="-243" y="681"/>
    </contour>
    <contour>
      <point x="-23" y="734" type="curve" smooth="yes"/>
      <point x="33" y="734"/>
      <point x="65" y="765"/>
      <point x="65" y="815" type="curve" smooth="yes"/>
      <point x="65" y="863"/>
      <point x="33" y="896"/>
      <point x="-23" y="896" type="curve" smooth="yes"/>
      <point x="-80" y="896"/>
      <point x="-112" y="863"/>
      <point x="-112" y="815" type="curve" smooth="yes"/>
      <point x="-112" y="765"/>
      <point x="-80" y="734"/>
    </contour>
  </outline>
</glyph>
<glyph name="oomatrabindiguru" format="2">
  <outline>
    <contour>
      <point x="-239" y="615" type="curve"/>
      <point x="-79" y="615" type="line"/>
      <point x="-79" y="758"/>
      <point x="-132" y="837"/>
      <point x="-248" y="837" type="curve" smooth="yes"/>
      <point x="-287" y="837"/>
      <point x="-309" y="832"/>
      <point x="-336" y="832" type="curve" smooth="yes"/>
      <point x="-366" y="832"/>
      <point x="-379" y="847"/>
      <point x="-393" y="896" type="curve"/>
      <point x="-540" y="855" type="line"/>
      <point x="-510" y="734"/>
      <point x="-462" y="690"/>
      <point x="-374" y="690" type="curve" smooth="yes"/>
      <point x="-344" y="690"/>
      <point x="-316" y="694"/>
      <point x="-293" y="694" type="curve" smooth="yes"/>
      <point x="-260" y="694"/>
      <point x="-246" y="679"/>
    </contour>
    <contour>
      <point x="-28" y="734" type="curve" smooth="yes"/>
      <point x="28" y="734"/>
      <point x="60" y="765"/>
      <point x="60" y="815" type="curve" smooth="yes"/>
      <point x="60" y="863"/>
      <point x="28" y="896"/>
      <point x="-28" y="896" type="curve" smooth="yes"/>
      <point x="-85" y="896"/>
      <point x="-117" y="863"/>
      <point x="-117" y="815" type="curve" smooth="yes"/>
      <point x="-117" y="765"/>
      <point x="-85" y="734"/>
    </contour>
  </outline>
</glyph>
<glyph name="phuunuktaUIguru" format="2">
  <advance width="658"/>
  <outline>
    <contour>
      <point x="388" y="-150" type="curve" smooth="yes"/>
      <point x="461" y="-150"/>
      <point x="535" y="-127"/>
      <point x="598" y="-93" type="curve"/>
      <point x="565" y="-14" type="line"/>
      <point x="509" y="-43"/>
      <point x="450" y="-58"/>
      <point x="391" y="-58" type="curve" smooth="yes"/>
      <point x="334" y="-58"/>
      <point x="274" y="-43"/>
      <point x="220" y="-14" type="curve"/>
      <point x="187" y="-93" type="line"/>
      <point x="247" y="-126"/>
      <point x="317" y="-150"/>
    </contour>
    <contour>
      <point x="388" y="-271" type="curve" smooth="yes"/>
      <point x="459" y="-271"/>
      <point x="538" y="-254"/>
      <point x="598" y="-220" type="curve"/>
      <point x="568" y="-141" type="line"/>
      <point x="508" y="-169"/>
      <point x="457" y="-179"/>
      <point x="392" y="-179" type="curve" smooth="yes"/>
      <point x="329" y="-179"/>
      <point x="280" y="-168"/>
      <point x="219" y="-141" type="curve"/>
      <point x="187" y="-220" type="line"/>
      <point x="246" y="-253"/>
      <point x="320" y="-271"/>
    </contour>
    <component base="phaguru"/>
    <component base="nuktaguru" xOffset="393" yOffset="98"/>
  </outline>
</glyph>
<glyph name="raUIguru" format="2">
  <advance width="649"/>
  <outline>
    <contour>
      <point x="353" y="68" type="curve" smooth="yes"/>
      <point x="508" y="68"/>
      <point x="579" y="113"/>
      <point x="579" y="234" type="curve" smooth="yes"/>
      <point x="579" y="484" type="line"/>
      <point x="656" y="484" type="line"/>
      <point x="656" y="622" type="line"/>
      <point x="-7" y="622" type="line"/>
      <point x="-7" y="484" type="line"/>
      <point x="405" y="484" type="line"/>
      <point x="405" y="437" type="line"/>
      <point x="258" y="437" type="line" smooth="yes"/>
      <point x="160" y="437"/>
      <point x="107" y="423"/>
      <point x="69" y="392" type="curve" smooth="yes"/>
      <point x="43" y="369"/>
      <point x="25" y="337"/>
      <point x="25" y="296" type="curve" smooth="yes"/>
      <point x="25" y="164"/>
      <point x="179" y="68"/>
    </contour>
    <contour>
      <point x="344" y="196" type="curve" smooth="yes"/>
      <point x="283" y="196"/>
      <point x="203" y="232"/>
      <point x="203" y="280" type="curve" smooth="yes"/>
      <point x="203" y="289"/>
      <point x="206" y="297"/>
      <point x="213" y="303" type="curve" smooth="yes"/>
      <point x="221" y="310"/>
      <point x="232" y="313"/>
      <point x="254" y="313" type="curve" smooth="yes"/>
      <point x="402" y="313" type="line"/>
      <point x="402" y="251" type="line" smooth="yes"/>
      <point x="402" y="224"/>
      <point x="399" y="213"/>
      <point x="391" y="206" type="curve" smooth="yes"/>
      <point x="382" y="198"/>
      <point x="369" y="196"/>
    </contour>
  </outline>
</glyph>
<glyph name="rasubscript1guru" format="2">
  <outline>
    <contour>
      <point x="-53" y="-271" type="curve"/>
      <point x="46" y="-206" type="line"/>
      <point x="6" y="-152"/>
      <point x="-36" y="-114"/>
      <point x="-82" y="-85" type="curve"/>
      <point x="-81" y="-67"/>
      <point x="-80" y="-44"/>
      <point x="-80" y="-8" type="curve" smooth="yes"/>
      <point x="-80" y="64" type="line"/>
      <point x="-247" y="30" type="line"/>
      <point x="-247" y="-29" type="line" smooth="yes"/>
      <point x="-247" y="-37"/>
      <point x="-247" y="-44"/>
      <point x="-248" y="-52" type="curve"/>
      <point x="-256" y="-51"/>
      <point x="-263" y="-51"/>
      <point x="-268" y="-51" type="curve" smooth="yes"/>
      <point x="-334" y="-51"/>
      <point x="-384" y="-74"/>
      <point x="-384" y="-135" type="curve" smooth="yes"/>
      <point x="-384" y="-197"/>
      <point x="-334" y="-223"/>
      <point x="-256" y="-223" type="curve" smooth="yes"/>
      <point x="-204" y="-223"/>
      <point x="-170" y="-207"/>
      <point x="-139" y="-184" type="curve"/>
      <point x="-110" y="-206"/>
      <point x="-84" y="-233"/>
    </contour>
  </outline>
</glyph>
<glyph name="rasubscriptguru" format="2">
  <outline>
    <contour>
      <point x="-53" y="-271" type="curve"/>
      <point x="46" y="-206" type="line"/>
      <point x="6" y="-152"/>
      <point x="-36" y="-114"/>
      <point x="-82" y="-85" type="curve"/>
      <point x="-75" y="-67"/>
      <point x="-70" y="-44"/>
      <point x="-70" y="-8" type="curve" smooth="yes"/>
      <point x="-70" y="0" type="line"/>
      <point x="-247" y="0" type="line"/>
      <point x="-247" y="-29" type="line" smooth="yes"/>
      <point x="-247" y="-37"/>
      <point x="-247" y="-44"/>
      <point x="-248" y="-52" type="curve"/>
      <point x="-256" y="-51"/>
      <point x="-263" y="-51"/>
      <point x="-268" y="-51" type="curve" smooth="yes"/>
      <point x="-334" y="-51"/>
      <point x="-384" y="-74"/>
      <point x="-384" y="-135" type="curve" smooth="yes"/>
      <point x="-384" y="-197"/>
      <point x="-334" y="-223"/>
      <point x="-256" y="-223" type="curve" smooth="yes"/>
      <point x="-204" y="-223"/>
      <point x="-170" y="-207"/>
      <point x="-139" y="-184" type="curve"/>
      <point x="-110" y="-206"/>
      <point x="-84" y="-233"/>
    </contour>
  </outline>
</glyph>
<glyph name="rasubscripthalantguru" format="2">
  <outline>
    <contour>
      <point x="-45" y="-241" type="curve"/>
      <point x="48" y="-180" type="line"/>
      <point x="4" y="-126"/>
      <point x="-36" y="-90"/>
      <point x="-82" y="-61" type="curve"/>
      <point x="-74" y="-43"/>
      <point x="-70" y="-23"/>
      <point x="-70" y="-1" type="curve" smooth="yes"/>
      <point x="-70" y="0" type="line"/>
      <point x="-247" y="0" type="line"/>
      <point x="-247" y="-5" type="line" smooth="yes"/>
      <point x="-247" y="-13"/>
      <point x="-247" y="-20"/>
      <point x="-248" y="-28" type="curve"/>
      <point x="-256" y="-27"/>
      <point x="-263" y="-27"/>
      <point x="-268" y="-27" type="curve" smooth="yes"/>
      <point x="-334" y="-27"/>
      <point x="-384" y="-52"/>
      <point x="-384" y="-106" type="curve" smooth="yes"/>
      <point x="-384" y="-167"/>
      <point x="-334" y="-195"/>
      <point x="-256" y="-195" type="curve" smooth="yes"/>
      <point x="-204" y="-195"/>
      <point x="-172" y="-178"/>
      <point x="-138" y="-153" type="curve"/>
      <point x="-114" y="-171"/>
      <point x="-78" y="-203"/>
    </contour>
    <contour>
      <point x="-66" y="-407" type="curve"/>
      <point x="58" y="-355" type="line"/>
      <point x="-9" y="-255"/>
      <point x="-88" y="-203"/>
      <point x="-207" y="-203" type="curve" smooth="yes"/>
      <point x="-223" y="-203"/>
      <point x="-237" y="-204"/>
      <point x="-256" y="-206" type="curve"/>
      <point x="-248" y="-341" type="line"/>
      <point x="-239" y="-340"/>
      <point x="-231" y="-340"/>
      <point x="-223" y="-340" type="curve" smooth="yes"/>
      <point x="-149" y="-340"/>
      <point x="-107" y="-355"/>
    </contour>
  </outline>
</glyph>
<glyph name="rasubscriptuUIguru" format="2">
  <outline>
    <contour>
      <point x="-53" y="-235" type="curve"/>
      <point x="46" y="-173" type="line"/>
      <point x="6" y="-122"/>
      <point x="-36" y="-86"/>
      <point x="-82" y="-58" type="curve"/>
      <point x="-75" y="-41"/>
      <point x="-70" y="-19"/>
      <point x="-70" y="0" type="curve"/>
      <point x="-247" y="0" type="line"/>
      <point x="-247" y="-4" type="line" smooth="yes"/>
      <point x="-247" y="-12"/>
      <point x="-247" y="-19"/>
      <point x="-248" y="-27" type="curve"/>
      <point x="-256" y="-26"/>
      <point x="-263" y="-26"/>
      <point x="-268" y="-26" type="curve" smooth="yes"/>
      <point x="-334" y="-26"/>
      <point x="-384" y="-48"/>
      <point x="-384" y="-106" type="curve" smooth="yes"/>
      <point x="-384" y="-165"/>
      <point x="-334" y="-189"/>
      <point x="-256" y="-189" type="curve" smooth="yes"/>
      <point x="-204" y="-189"/>
      <point x="-170" y="-174"/>
      <point x="-139" y="-152" type="curve"/>
      <point x="-110" y="-173"/>
      <point x="-84" y="-199"/>
    </contour>
    <contour>
      <point x="-412" y="-271" type="curve" smooth="yes"/>
      <point x="-326" y="-271"/>
      <point x="-255" y="-248"/>
      <point x="-212" y="-221" type="curve"/>
      <point x="-244" y="-127" type="line"/>
      <point x="-297" y="-151"/>
      <point x="-337" y="-165"/>
      <point x="-411" y="-165" type="curve" smooth="yes"/>
      <point x="-485" y="-165"/>
      <point x="-535" y="-149"/>
      <point x="-576" y="-128" type="curve"/>
      <point x="-612" y="-221" type="line"/>
      <point x="-562" y="-248"/>
      <point x="-499" y="-271"/>
    </contour>
  </outline>
</glyph>
<glyph name="rasubscriptuguru" format="2">
  <outline>
    <contour>
      <point x="-53" y="-271" type="curve"/>
      <point x="46" y="-206" type="line"/>
      <point x="6" y="-152"/>
      <point x="-36" y="-114"/>
      <point x="-82" y="-85" type="curve"/>
      <point x="-75" y="-67"/>
      <point x="-70" y="-44"/>
      <point x="-70" y="-8" type="curve" smooth="yes"/>
      <point x="-70" y="0" type="line"/>
      <point x="-247" y="0" type="line"/>
      <point x="-247" y="-29" type="line" smooth="yes"/>
      <point x="-247" y="-37"/>
      <point x="-247" y="-44"/>
      <point x="-248" y="-52" type="curve"/>
      <point x="-256" y="-51"/>
      <point x="-263" y="-51"/>
      <point x="-268" y="-51" type="curve" smooth="yes"/>
      <point x="-334" y="-51"/>
      <point x="-384" y="-74"/>
      <point x="-384" y="-135" type="curve" smooth="yes"/>
      <point x="-384" y="-197"/>
      <point x="-334" y="-223"/>
      <point x="-256" y="-223" type="curve" smooth="yes"/>
      <point x="-204" y="-223"/>
      <point x="-170" y="-207"/>
      <point x="-139" y="-184" type="curve"/>
      <point x="-110" y="-206"/>
      <point x="-84" y="-233"/>
    </contour>
    <contour>
      <point x="-332" y="-394" type="curve" smooth="yes"/>
      <point x="-222" y="-394"/>
      <point x="-153" y="-368"/>
      <point x="-101" y="-341" type="curve"/>
      <point x="-146" y="-222" type="line"/>
      <point x="-194" y="-247"/>
      <point x="-252" y="-264"/>
      <point x="-332" y="-264" type="curve" smooth="yes"/>
      <point x="-412" y="-264"/>
      <point x="-470" y="-247"/>
      <point x="-517" y="-222" type="curve"/>
      <point x="-562" y="-341" type="line"/>
      <point x="-510" y="-368"/>
      <point x="-438" y="-394"/>
    </contour>
  </outline>
</glyph>
<glyph name="rasubscriptuuUIguru" format="2">
  <outline>
    <contour>
      <point x="-53" y="-150" type="curve"/>
      <point x="46" y="-88" type="line"/>
      <point x="6" y="-37"/>
      <point x="-36" y="-1"/>
      <point x="-82" y="27" type="curve"/>
      <point x="-75" y="44"/>
      <point x="-70" y="66"/>
      <point x="-70" y="85" type="curve"/>
      <point x="-247" y="85" type="line"/>
      <point x="-247" y="76" type="line" smooth="yes"/>
      <point x="-247" y="68"/>
      <point x="-247" y="61"/>
      <point x="-248" y="53" type="curve"/>
      <point x="-256" y="54"/>
      <point x="-263" y="54"/>
      <point x="-268" y="54" type="curve" smooth="yes"/>
      <point x="-334" y="54"/>
      <point x="-384" y="33"/>
      <point x="-384" y="-21" type="curve" smooth="yes"/>
      <point x="-384" y="-80"/>
      <point x="-327" y="-104"/>
      <point x="-256" y="-104" type="curve" smooth="yes"/>
      <point x="-204" y="-104"/>
      <point x="-170" y="-89"/>
      <point x="-139" y="-67" type="curve"/>
      <point x="-110" y="-88"/>
      <point x="-84" y="-114"/>
    </contour>
    <contour>
      <point x="-354" y="-155" type="curve" smooth="yes"/>
      <point x="-268" y="-155"/>
      <point x="-205" y="-135"/>
      <point x="-142" y="-101" type="curve"/>
      <point x="-175" y="-27" type="line"/>
      <point x="-238" y="-60"/>
      <point x="-297" y="-71"/>
      <point x="-351" y="-71" type="curve" smooth="yes"/>
      <point x="-416" y="-71"/>
      <point x="-473" y="-57"/>
      <point x="-534" y="-24" type="curve"/>
      <point x="-567" y="-98" type="line"/>
      <point x="-507" y="-131"/>
      <point x="-433" y="-155"/>
    </contour>
    <contour>
      <point x="-354" y="-271" type="curve" smooth="yes"/>
      <point x="-268" y="-271"/>
      <point x="-192" y="-254"/>
      <point x="-132" y="-220" type="curve"/>
      <point x="-162" y="-146" type="line"/>
      <point x="-222" y="-174"/>
      <point x="-276" y="-184"/>
      <point x="-350" y="-184" type="curve" smooth="yes"/>
      <point x="-421" y="-184"/>
      <point x="-474" y="-173"/>
      <point x="-535" y="-146" type="curve"/>
      <point x="-567" y="-220" type="line"/>
      <point x="-508" y="-253"/>
      <point x="-430" y="-271"/>
    </contour>
  </outline>
</glyph>
<glyph name="rasubscriptuuguru" format="2">
  <outline>
    <contour>
      <point x="-48" y="-233" type="curve"/>
      <point x="50" y="-166" type="line"/>
      <point x="10" y="-112"/>
      <point x="-30" y="-75"/>
      <point x="-76" y="-46" type="curve"/>
      <point x="-71" y="-33"/>
      <point x="-70" y="-23"/>
      <point x="-70" y="-2" type="curve" smooth="yes"/>
      <point x="-70" y="0" type="line"/>
      <point x="-247" y="0" type="line"/>
      <point x="-247" y="-3" type="line" smooth="yes"/>
      <point x="-247" y="-8"/>
      <point x="-247" y="-14"/>
      <point x="-248" y="-19" type="curve"/>
      <point x="-256" y="-18"/>
      <point x="-263" y="-18"/>
      <point x="-268" y="-18" type="curve" smooth="yes"/>
      <point x="-334" y="-18"/>
      <point x="-384" y="-41"/>
      <point x="-384" y="-102" type="curve" smooth="yes"/>
      <point x="-384" y="-164"/>
      <point x="-328" y="-181"/>
      <point x="-256" y="-179" type="curve" smooth="yes"/>
      <point x="-204" y="-178"/>
      <point x="-170" y="-165"/>
      <point x="-139" y="-142" type="curve"/>
      <point x="-110" y="-164"/>
      <point x="-76" y="-193"/>
    </contour>
    <contour>
      <point x="-371" y="-279" type="curve" smooth="yes"/>
      <point x="-283" y="-279"/>
      <point x="-204" y="-254"/>
      <point x="-142" y="-224" type="curve"/>
      <point x="-181" y="-140" type="line"/>
      <point x="-235" y="-166"/>
      <point x="-299" y="-179"/>
      <point x="-368" y="-179" type="curve" smooth="yes"/>
      <point x="-435" y="-179"/>
      <point x="-500" y="-166"/>
      <point x="-554" y="-140" type="curve"/>
      <point x="-591" y="-224" type="line"/>
      <point x="-533" y="-253"/>
      <point x="-457" y="-279"/>
    </contour>
    <contour>
      <point x="-371" y="-400" type="curve" smooth="yes"/>
      <point x="-285" y="-400"/>
      <point x="-201" y="-384"/>
      <point x="-142" y="-354" type="curve"/>
      <point x="-178" y="-271" type="line"/>
      <point x="-236" y="-296"/>
      <point x="-292" y="-305"/>
      <point x="-367" y="-305" type="curve" smooth="yes"/>
      <point x="-439" y="-305"/>
      <point x="-494" y="-295"/>
      <point x="-554" y="-271" type="curve"/>
      <point x="-591" y="-354" type="line"/>
      <point x="-534" y="-383"/>
      <point x="-454" y="-400"/>
    </contour>
  </outline>
</glyph>
<glyph name="sanuktaUIguru" format="2">
  <advance width="701"/>
  <outline>
    <contour>
      <point x="441" y="80" type="line"/>
      <point x="618" y="80" type="line"/>
      <point x="618" y="484" type="line"/>
      <point x="695" y="484" type="line"/>
      <point x="695" y="622" type="line"/>
      <point x="-7" y="622" type="line"/>
      <point x="-7" y="484" type="line"/>
      <point x="131" y="484" type="line"/>
      <point x="33" y="523" type="line"/>
      <point x="62" y="493"/>
      <point x="87" y="398"/>
      <point x="97" y="328" type="curve"/>
      <point x="49" y="278"/>
      <point x="32" y="238"/>
      <point x="32" y="198" type="curve" smooth="yes"/>
      <point x="32" y="148"/>
      <point x="60" y="105"/>
      <point x="130" y="105" type="curve" smooth="yes"/>
      <point x="207" y="105"/>
      <point x="254" y="154"/>
      <point x="263" y="240" type="curve"/>
      <point x="441" y="240" type="line"/>
    </contour>
    <contour>
      <point x="265" y="375" type="line"/>
      <point x="260" y="425"/>
      <point x="247" y="472"/>
      <point x="226" y="516" type="curve"/>
      <point x="156" y="484" type="line"/>
      <point x="441" y="484" type="line"/>
      <point x="441" y="375" type="line"/>
    </contour>
    <contour>
      <point x="339" y="69" type="curve" smooth="yes"/>
      <point x="389" y="69"/>
      <point x="416" y="98"/>
      <point x="416" y="141" type="curve" smooth="yes"/>
      <point x="416" y="184"/>
      <point x="389" y="213"/>
      <point x="339" y="213" type="curve" smooth="yes"/>
      <point x="289" y="213"/>
      <point x="261" y="184"/>
      <point x="261" y="141" type="curve" smooth="yes"/>
      <point x="261" y="98"/>
      <point x="289" y="69"/>
    </contour>
  </outline>
</glyph>
<glyph name="taUIguru" format="2">
  <advance width="608"/>
  <outline>
    <contour>
      <point x="298" y="45" type="curve" smooth="yes"/>
      <point x="454" y="45"/>
      <point x="579" y="93"/>
      <point x="579" y="217" type="curve" smooth="yes"/>
      <point x="579" y="279"/>
      <point x="546" y="322"/>
      <point x="486" y="358" type="curve"/>
      <point x="535" y="386"/>
      <point x="555" y="422"/>
      <point x="555" y="483" type="curve" smooth="yes"/>
      <point x="555" y="506"/>
      <point x="551" y="528"/>
      <point x="545" y="539" type="curve"/>
      <point x="483" y="484" type="line"/>
      <point x="615" y="484" type="line"/>
      <point x="615" y="622" type="line"/>
      <point x="-7" y="622" type="line"/>
      <point x="-7" y="484" type="line"/>
      <point x="422" y="484" type="line"/>
      <point x="373" y="519" type="line"/>
      <point x="377" y="511"/>
      <point x="379" y="505"/>
      <point x="379" y="489" type="curve" smooth="yes"/>
      <point x="379" y="451"/>
      <point x="357" y="430"/>
      <point x="329" y="420" type="curve"/>
      <point x="287" y="434"/>
      <point x="238" y="440"/>
      <point x="200" y="440" type="curve" smooth="yes"/>
      <point x="116" y="440"/>
      <point x="74" y="407"/>
      <point x="74" y="357" type="curve" smooth="yes"/>
      <point x="74" y="306"/>
      <point x="111" y="270"/>
      <point x="214" y="270" type="curve" smooth="yes"/>
      <point x="262" y="270"/>
      <point x="309" y="277"/>
      <point x="345" y="290" type="curve"/>
      <point x="377" y="277"/>
      <point x="400" y="260"/>
      <point x="400" y="233" type="curve" smooth="yes"/>
      <point x="400" y="194"/>
      <point x="360" y="177"/>
      <point x="276" y="177" type="curve" smooth="yes"/>
      <point x="209" y="177"/>
      <point x="140" y="194"/>
      <point x="59" y="230" type="curve"/>
      <point x="12" y="104" type="line"/>
      <point x="82" y="69"/>
      <point x="192" y="45"/>
    </contour>
  </outline>
</glyph>
<glyph name="uaddakaltguru" format="2">
  <advance width="792"/>
  <outline>
    <contour>
      <point x="799" y="484" type="line"/>
      <point x="799" y="622" type="line"/>
      <point x="747" y="622" type="line"/>
      <point x="747" y="484" type="line"/>
    </contour>
    <component base="uraaddakguru"/>
    <component base="umatraguru" xOffset="691"/>
  </outline>
</glyph>
